<?xml version="1.0" encoding="iso-8859-1"?>
<!-- Generator: Adobe Illustrator 19.0.0, SVG Export Plug-In . SVG Version: 6.00 Build 0)  -->
<svg version="1.1" id="Layer_1" xmlns="http://www.w3.org/2000/svg" xmlns:xlink="http://www.w3.org/1999/xlink" x="0px" y="0px"
	 viewBox="0 0 512 512" style="enable-background:new 0 0 512 512;" xml:space="preserve">
<polygon style="fill:#52DBFF;" points="329.508,201.108 324.039,266.405 303.447,512 121.812,512 89.02,120.828 189.849,120.828 
	190.963,121.469 "/>
<g>
	<polygon style="fill:#00AEFD;" points="89.02,120.828 121.812,512 164.564,512 142.474,120.828 	"/>
	<path style="fill:#00AEFD;" d="M329.508,201.108l-5.469,65.297c-17.177-2.932-34.955-8.776-52.271-17.659
		c-58.383-29.956-91.679-84.219-80.806-127.277L329.508,201.108z"/>
</g>
<polygon style="fill:#558AFF;" points="308.05,457.063 303.447,512 121.812,512 117.21,457.063 "/>
<polygon style="fill:#00DCAB;" points="312.395,405.241 308.05,457.063 117.21,457.063 112.865,405.241 "/>
<polygon style="fill:#FF8522;" points="325.741,246.06 324.039,266.405 320.24,311.646 105.019,311.646 99.519,246.06 "/>
<polygon style="fill:#FFDD00;" points="320.24,311.646 312.395,405.241 112.865,405.241 105.019,311.646 "/>
<path style="fill:#FF7224;" d="M325.741,246.06l-1.702,20.345c-17.177-2.932-34.955-8.776-52.271-17.659
	c-1.702-0.878-3.382-1.766-5.041-2.686H325.741z"/>
<path style="fill:#FA496E;" d="M329.508,201.108l-3.767,44.951H99.519l-5.501-65.575h161.707c0.525,0.289,1.06,0.557,1.595,0.835
	C281.454,193.691,306.456,200.177,329.508,201.108z"/>
<polygon style="fill:#E23760;" points="149.543,246.06 99.519,246.06 94.018,180.485 145.84,180.485 "/>
<polygon style="fill:#FF7224;" points="153.246,311.646 105.019,311.646 99.519,246.06 149.543,246.06 "/>
<polygon style="fill:#02BC90;" points="161.455,457.063 117.21,457.063 112.865,405.241 158.533,405.241 "/>
<polygon style="fill:#FFBC00;" points="158.533,405.241 112.865,405.241 105.019,311.646 153.246,311.646 "/>
<polygon style="fill:#3469C6;" points="164.559,512 121.812,512 117.21,457.063 161.455,457.063 "/>
<path style="fill:#E23760;" d="M329.508,201.108l-3.767,44.951h-59.014c-30.748-16.932-54.006-40.659-66.763-65.575h55.761
	c0.525,0.289,1.06,0.557,1.595,0.835C281.454,193.691,306.456,200.177,329.508,201.108z"/>
<path style="fill:#8666DD;" d="M422.917,133.325c-0.178,4.399-0.763,8.735-1.766,12.957c-1.17,4.963-2.936,9.791-5.308,14.42
	c-7.816,15.245-21.274,26.363-38.181,33.05c-7.722,3.062-16.175,5.193-25.151,6.374c-3.772,0.502-7.638,0.836-11.578,0.993
	c-26.06,1.066-55.443-5.35-83.613-19.801c-15.391-7.899-29.038-17.481-40.584-28.098c-2.884-2.644-5.632-5.36-8.244-8.119
	c-29.78-31.504-41.995-70.071-28.651-100.833c0.533-1.254,1.128-2.497,1.755-3.73c1.243-2.435,2.644-4.765,4.159-6.98
	C202.661,8.96,236.056-2.586,273.923,0.486c2.278,0.178,4.566,0.418,6.875,0.711c2.476,0.313,4.963,0.679,7.471,1.118
	c17.053,2.968,34.67,8.788,51.859,17.596c13.699,7.032,26.029,15.402,36.718,24.67c3.678,3.177,7.168,6.458,10.46,9.833
	C410.858,78.624,423.972,107.234,422.917,133.325z"/>
<path style="fill:#A67EFF;" d="M415.847,160.706c-7.823,15.241-21.276,26.361-38.187,33.049c-19.34-2.44-39.632-8.615-59.336-18.718
	c-64.687-33.178-98.593-96.217-75.721-140.783C250.426,19.002,263.89,7.892,280.8,1.192c19.34,2.44,39.622,8.615,59.325,18.718
	C404.802,53.101,438.708,116.129,415.847,160.706z"/>
<g>
	<path style="fill:#8666DD;" d="M422.917,133.325c-0.178,4.399-0.763,8.735-1.766,12.957l-93.833-68.964l6.802-9.268
		L422.917,133.325z"/>
	<path style="fill:#8666DD;" d="M352.511,200.126c-3.772,0.502-7.638,0.836-11.578,0.993L312.648,83.034l11.181-2.675
		L352.511,200.126z"/>
	<path style="fill:#8666DD;" d="M307.12,78.593l-90.384,74.627c-2.884-2.644-5.632-5.36-8.244-8.119l91.304-75.369L307.12,78.593z"
		/>
	<path style="fill:#8666DD;" d="M304.602,52.157l-0.167,1.034l-1.609,10.324L179.84,44.268c0.533-1.254,1.128-2.497,1.755-3.73
		c1.243-2.435,2.644-4.765,4.159-6.98l118.012,18.463L304.602,52.157z"/>
	<path style="fill:#8666DD;" d="M315.657,49.618l-9.948,5.768l-1.275-2.194v-0.01l-0.669-1.16L273.923,0.486
		c2.278,0.178,4.566,0.418,6.875,0.711c2.476,0.313,4.963,0.679,7.471,1.118L315.657,49.618z"/>
	<path style="fill:#8666DD;" d="M387.306,54.414l-56.331,9.801l-1.964-11.316l47.836-8.317
		C380.525,47.758,384.015,51.039,387.306,54.414z"/>
</g>
<circle style="fill:#FFDD00;" cx="315.645" cy="67.617" r="19.264"/>
<g>
</g>
<g>
</g>
<g>
</g>
<g>
</g>
<g>
</g>
<g>
</g>
<g>
</g>
<g>
</g>
<g>
</g>
<g>
</g>
<g>
</g>
<g>
</g>
<g>
</g>
<g>
</g>
<g>
</g>
</svg>
