<svg xmlns="http://www.w3.org/2000/svg" viewBox="0 0 778.99 763.4"><defs><style>.cls-1,.cls-21,.cls-8{fill:#414042;}.cls-1{opacity:0.2;}.cls-2{fill:#a8cf3b;}.cls-3{fill:#fec752;}.cls-4{fill:#f78d36;}.cls-5{fill:#f06323;}.cls-6{fill:#f7941d;}.cls-7{fill:#fbb040;}.cls-9{fill:#79471e;}.cls-10{fill:#fff;}.cls-11{fill:#e6e7e8;}.cls-12,.cls-27{fill:#231f20;}.cls-12,.cls-21{opacity:0.15;}.cls-13{fill:#ded550;}.cls-14{fill:#4fb875;}.cls-15{fill:#51b874;}.cls-16{fill:#fdf8d5;}.cls-17{fill:#fcf2a9;}.cls-18{fill:#4eb771;}.cls-19{fill:#fff6d2;}.cls-20{fill:#ec5859;}.cls-22{fill:#e84749;}.cls-23{fill:#38b482;}.cls-24{fill:#eb5957;}.cls-25{fill:#faa71b;}.cls-26{fill:#006838;opacity:0.4;}.cls-27{opacity:0.05;}.cls-28{fill:#fbf2a3;}</style></defs><title>자산 1</title><g id="레이어_2" data-name="레이어 2"><g id="fruit"><path id="shadow" class="cls-1" d="M767.56,565.14a184.78,184.78,0,0,1-19.38-38.66l-25.65-72A15.07,15.07,0,0,0,708,444.34c2.54-9.33,8.5-22.87,21.65-23l0-3.44c-9.64.13-17.34,6.27-22.26,17.77a60.92,60.92,0,0,0-3,9.16,15,15,0,0,0-10.68,9.72l-25.65,72c-.93,2.61-2,5.18-3,7.74-.74-1.26-1.49-2.5-2.28-3.72q-3.65-5.6-7-11.39t-6.35-11.74q-3-6-5.65-12.09t-4.89-12.43l-23-64.49a247.53,247.53,0,0,0-13.47-72.42c23-13,21.67-38.06,21.67-38.06-1.68.18-3.29.44-4.85.74h0c-12,2.35-20.43,8-26.28,14.52-1.07-2.19-2.16-4.36-3.29-6.49-19.71-37.22-30.55-78.5-30.55-120.62V179.16a81.48,81.48,0,0,0-73.54-80.84C484.17,79,486.09,45.24,497,35.48L486.76,24c-19,17-17.28,64-16.66,74.34a81.47,81.47,0,0,0-73.42,80.82V196c0,42.12-10.83,83.4-30.55,120.62a221.53,221.53,0,0,0-18.93,49.93c-.31-.73-.61-1.47-.92-2.2q-2.92-6.88-6.23-13.64-2.21-4.5-4.56-8.92c-.79-1.48-1.59-2.94-2.4-4.4q-2.43-4.38-5-8.65t-5.32-8.44q-4.1-6.22-8.51-12.18a237.44,237.44,0,0,0-15.5-18.82c-4.35-4.73-8.85-9.23-13.5-13.45-1.17-1.06-2.34-2.09-3.52-3.11q-3.54-3.06-7.19-5.9c-23.11-18-49.29-29-77-29-1.28,0-2.56,0-3.84.08l-.86,0c-1.12,0-2.23.12-3.35.21l-1.5.13-2.11.22c-1,.11-2,.23-3,.37l-.86.13C95.81,251.79,28.28,368.27,28.28,456.5A168.42,168.42,0,0,0,59,553.66C23.48,559.37,0,581.85,0,621.06c0,45.86,37.18,95.19,83,95.19.77,0,1.55,0,2.32,0h0a66,66,0,0,0,20.24-4h0c.6-.21,1.19-.44,1.79-.68l.15-.06c.56-.22,1.1-.44,1.65-.68l.28-.11L111,710l.35-.17c.5-.22,1-.46,1.47-.7l.42-.2,1.4-.72.46-.24,1.35-.74.48-.27,1.31-.76.51-.3,1.25-.78.54-.34,1.21-.79.56-.37,1.17-.81.57-.4,1.13-.83.58-.42c.37-.28.74-.56,1.1-.85.2-.15.4-.3.59-.46l1.07-.86.6-.48,1-.88.6-.51,1-.88.61-.55,1-.9.6-.57,1-.92.6-.59.92-.93.6-.62c.3-.31.6-.62.89-.94l.6-.64.86-.95.59-.67.84-1,.59-.7c.27-.32.54-.64.8-1l.59-.72.78-1,.57-.74.76-1,.57-.76.73-1,.56-.78.06-.09c12.77,25.35,36.68,45.12,64.08,45.12,16.83,0,32.34-7.46,44.76-19.09a72.69,72.69,0,0,0,28.66,35.6l1.13.73c.5.31,1,.61,1.51.9s.82.48,1.24.71l1.5.83c.45.24.9.46,1.36.69s1,.5,1.46.73c.75.36,1.5.69,2.26,1l1.68.7,1.74.69,1.38.49,1.73.59c.45.14.91.29,1.37.42.63.2,1.27.37,1.92.55l1.21.33c1,.26,2.07.5,3.11.72l.64.11c.87.18,1.75.33,2.64.48l1.16.16c.73.11,1.47.2,2.21.28l1.22.13c.78.07,1.55.13,2.33.17l1.08.07c1.13,0,2.27.09,3.42.09s2.49,0,3.73-.1a70.4,70.4,0,0,0,7.31-.74,69.36,69.36,0,0,0,7.08-1.45,72.17,72.17,0,0,0,22.13-9.91,82.1,82.1,0,0,0,133.82-29.69,36.12,36.12,0,0,0,3.9,1.06h0c1.26.27,2.55.48,3.86.63h.09c.59.06,1.18.1,1.77.14l.26,0c.67,0,1.34,0,2,0a38,38,0,0,0,38.05-38c0-.64,0-1.26,0-1.88,0-.21,0-.41,0-.61,0-.41-.06-.81-.1-1.21,0-.24-.06-.47-.09-.71s-.08-.69-.14-1-.09-.5-.13-.74-.12-.64-.19-1-.11-.49-.17-.73-.15-.59-.23-.88-.15-.49-.22-.73-.17-.55-.27-.82-.17-.48-.26-.72-.2-.51-.31-.77-.2-.46-.3-.69-.22-.49-.34-.73-.23-.45-.35-.67-.24-.46-.37-.68-.26-.45-.39-.66l-.41-.63c-.14-.22-.28-.44-.43-.65l-.43-.58-.48-.63-.45-.53-.53-.62-.46-.48c-.19-.2-.39-.41-.59-.6l-.45-.43-.66-.6-.42-.35-.55-.46a25.23,25.23,0,0,0,7.88,2.67h0c.63.1,1.26.17,1.9.23l.29,0c.63,0,1.26.08,1.9.08.44,0,.88,0,1.31,0a23.86,23.86,0,0,0,2.56-.26c.43-.06.84-.13,1.26-.22a25.64,25.64,0,0,0,4.77-1.48c.71-.3,1.4-.64,2.08-1-6.1,4.82-9.82,12-9.82,21.77A38.07,38.07,0,0,0,583.88,712h0l1.12.16.62.07,1,.1.93.07.74.05c.58,0,1.17,0,1.75,0a38,38,0,0,0,38-38c0-.73,0-1.45-.06-2.15,0-.23,0-.44-.06-.66,0-.48-.08-1-.13-1.43,0-.24-.07-.48-.1-.72-.06-.44-.14-.88-.22-1.32,0-.22-.08-.44-.13-.65-.1-.49-.22-1-.34-1.43,0-.15-.07-.3-.11-.44-.18-.62-.37-1.23-.59-1.82l0-.09q-.3-.83-.66-1.62c-.06-.13-.13-.26-.19-.4-.2-.42-.4-.84-.62-1.25-.08-.13-.15-.27-.23-.41-.23-.41-.48-.82-.73-1.22-.07-.1-.13-.2-.19-.3a24.44,24.44,0,0,0-3.49-4.16l-.13-.12c-.4-.38-.81-.75-1.24-1.11l-.14-.12a29.44,29.44,0,0,0-2.78-2A89.34,89.34,0,0,0,647,637.32c12.34,18.11,35.06,28,61.06,28,39.16,0,70.9-22.43,70.9-61.59A70.52,70.52,0,0,0,767.56,565.14Zm-237.83,83-.16-.06c-.42-.17-.86-.33-1.29-.48l-.23-.08-1.3-.43-.27-.08-1.32-.38-.28-.07-1.35-.34-.29-.06c-.46-.11-.92-.21-1.39-.3l-.28,0-1.43-.26-.27,0-1.48-.22-.24,0c-.51-.07-1-.13-1.55-.18h-.1l1.15-.88c2.66-2.1,5.26-4.25,7.83-6.45A25.44,25.44,0,0,0,533.82,650,35.7,35.7,0,0,0,529.73,648.09Zm-57.57,33.23H449.79a232.57,232.57,0,0,0,21.79-8.85c0,.65-.05,1.31-.05,2A39,39,0,0,0,472.16,681.32Z"/><g id="fruit-2" data-name="fruit"><path class="cls-2" d="M559.07,172V155.16A81.44,81.44,0,0,0,477.88,74h0a81.44,81.44,0,0,0-81.2,81.2V172c0,42.12-10.83,83.4-30.55,120.62-16.62,31.37-26.42,70-26.42,111.78,0,105,61.86,167.62,138.17,167.62s138.17-62.63,138.17-167.62c0-41.79-9.81-80.41-26.43-111.78C569.91,255.43,559.07,214.15,559.07,172Z"/><path class="cls-3" d="M552.7,177.06V160.81c0-43-33.67-78.15-74.82-78.15h0c-41.16,0-74.83,35.17-74.83,78.15v16.25a257,257,0,0,1-28.15,116.1c-15.32,30.19-24.35,67.36-24.35,107.59,0,101.05,57,161.34,127.33,161.34S605.21,501.8,605.21,400.75c0-40.23-9-77.4-24.35-107.59A257,257,0,0,1,552.7,177.06Z"/><path class="cls-4" d="M544.24,194.89V180.25c0-38.77-29.86-70.49-66.36-70.49h0c-36.51,0-66.37,31.72-66.37,70.49v14.64a235.06,235.06,0,0,1-25,104.72c-13.58,27.23-21.6,60.76-21.6,97,0,91.14,50.56,145.52,112.94,145.52s112.93-54.38,112.93-145.52c0-36.27-8-69.8-21.59-97A234.94,234.94,0,0,1,544.24,194.89Z"/><path class="cls-5" d="M532.53,221.39V208.75c0-33.46-24.59-60.84-54.65-60.84h0c-30.06,0-54.66,27.38-54.66,60.84v12.64a210.79,210.79,0,0,1-20.56,90.38c-11.19,23.5-17.79,52.44-17.79,83.75,0,78.67,41.64,125.6,93,125.6s93-46.93,93-125.6c0-31.31-6.6-60.25-17.78-83.75A210.66,210.66,0,0,1,532.53,221.39Z"/><path class="cls-6" d="M508.19,277.68v-8c0-21.24-13.64-38.62-30.31-38.62h0c-16.67,0-30.31,17.38-30.31,38.62v8a150.11,150.11,0,0,1-11.41,57.38c-6.2,14.92-9.86,33.3-9.86,53.17,0,49.95,23.09,79.74,51.58,79.74s51.58-29.79,51.58-79.74c0-19.87-3.66-38.25-9.87-53.17A150.1,150.1,0,0,1,508.19,277.68Z"/><path class="cls-7" d="M495.6,325.21v-4.69c0-12.43-3.92-30.26-17.39-29.15-8.55.7-18.06,16.72-18.06,29.15v4.69a87.85,87.85,0,0,1-6.67,33.56,81.93,81.93,0,0,0-5.77,31.1c0,29.21,13.51,46.64,30.17,46.64S508,419.08,508,389.87a81.93,81.93,0,0,0-5.77-31.1A87.85,87.85,0,0,1,495.6,325.21Z"/><path class="cls-8" d="M474,316.28a4.43,4.43,0,1,1-4.43-4.42A4.43,4.43,0,0,1,474,316.28Z"/><path class="cls-8" d="M474,327.91a4.43,4.43,0,1,1-4.43-4.43A4.43,4.43,0,0,1,474,327.91Z"/><circle class="cls-8" cx="469.57" cy="344.52" r="4.43"/><circle class="cls-8" cx="469.57" cy="360.57" r="4.43"/><circle class="cls-8" cx="469.57" cy="372.75" r="4.43"/><circle class="cls-8" cx="469.57" cy="389.36" r="4.43"/><path class="cls-8" d="M474,402.65a4.43,4.43,0,1,1-4.43-4.43A4.43,4.43,0,0,1,474,402.65Z"/><circle class="cls-8" cx="469.57" cy="420.92" r="4.43"/><path class="cls-8" d="M481.46,322.37a3.59,3.59,0,1,1-3.58-3.58A3.58,3.58,0,0,1,481.46,322.37Z"/><path class="cls-8" d="M481.46,334.52a3.59,3.59,0,1,1-3.58-3.59A3.58,3.58,0,0,1,481.46,334.52Z"/><path class="cls-8" d="M484,352.82a6.09,6.09,0,1,1-6.09-6.09A6.09,6.09,0,0,1,484,352.82Z"/><path class="cls-8" d="M481.46,368.32a3.59,3.59,0,1,1-3.58-3.58A3.58,3.58,0,0,1,481.46,368.32Z"/><path class="cls-8" d="M481.46,384.93a3.59,3.59,0,1,1-3.58-3.58A3.58,3.58,0,0,1,481.46,384.93Z"/><circle class="cls-8" cx="479.54" cy="398.22" r="4.43"/><circle class="cls-8" cx="477.88" cy="416.49" r="4.43"/><path class="cls-8" d="M488.4,360.57a4.43,4.43,0,1,1-4.43-4.43A4.43,4.43,0,0,1,488.4,360.57Z"/><path class="cls-8" d="M486.41,342.3a4.1,4.1,0,1,1-4.1-4.1A4.1,4.1,0,0,1,486.41,342.3Z"/><path class="cls-8" d="M488.4,326a4.43,4.43,0,1,1-4.43-4.43A4.44,4.44,0,0,1,488.4,326Z"/><circle class="cls-8" cx="481.46" cy="311.86" r="2.51"/><circle class="cls-8" cx="471.79" cy="303.55" r="3.32"/><path class="cls-8" d="M488.13,377.18A4.17,4.17,0,1,1,484,373,4.17,4.17,0,0,1,488.13,377.18Z"/><path class="cls-8" d="M491.68,388.52a5.28,5.28,0,1,1-5.27-5.28A5.27,5.27,0,0,1,491.68,388.52Z"/><path class="cls-8" d="M488.13,407.08a4.17,4.17,0,1,1-4.16-4.17A4.16,4.16,0,0,1,488.13,407.08Z"/><path class="cls-8" d="M495.26,368.32a3.58,3.58,0,1,1-3.58-3.58A3.58,3.58,0,0,1,495.26,368.32Z"/><path class="cls-8" d="M493.53,351a5.14,5.14,0,1,1-5.13-5.14A5.13,5.13,0,0,1,493.53,351Z"/><path class="cls-8" d="M495.26,334.52a3.58,3.58,0,1,1-3.58-3.59A3.58,3.58,0,0,1,495.26,334.52Z"/><path class="cls-8" d="M490.34,315.17A2.51,2.51,0,1,1,487,314,2.5,2.5,0,0,1,490.34,315.17Z"/><path class="cls-8" d="M486.41,300.23a5.28,5.28,0,1,1-5.28-5.27A5.28,5.28,0,0,1,486.41,300.23Z"/><path class="cls-8" d="M479.5,426.4a3.25,3.25,0,1,1-4.44,1.19A3.27,3.27,0,0,1,479.5,426.4Z"/><path class="cls-2" d="M470.2,75.81C469.77,70,466.56,18,486.76,0L497,11.48c-11,9.82-12.86,44-11.46,63.2Z"/><path class="cls-9" d="M366.71,432.5a169.22,169.22,0,0,1-338.43,0c0-93.45,75.76-218.62,169.21-218.62S366.71,339.05,366.71,432.5Z"/><path class="cls-10" d="M356.36,431a158.87,158.87,0,0,1-317.73,0c0-87.74,71.13-205.25,158.86-205.25S356.36,343.25,356.36,431Z"/><path class="cls-11" d="M343.9,429.17a146.41,146.41,0,1,1-292.82,0C51.08,348.31,116.63,240,197.49,240S343.9,348.31,343.9,429.17Z"/><path class="cls-12" d="M197.49,213.88a106.65,106.65,0,0,0-20,1.93c51.62,65.93,109.92,185.26,84.25,373.26a169.25,169.25,0,0,0,105-156.57C366.71,339.05,291,213.88,197.49,213.88Z"/><path class="cls-13" d="M638.84,458.85l-31.62-88.7c-6-16.73-29.63-16.73-35.59,0L540,458.85a227.49,227.49,0,0,1-23.88,47.65A86.93,86.93,0,0,0,502,554.08c0,48.26,39.12,75.9,87.38,75.9s87.39-27.64,87.39-75.9a86.93,86.93,0,0,0-14.09-47.58A227.49,227.49,0,0,1,638.84,458.85Z"/><path class="cls-14" d="M585.84,368.26l6.78-.68a127.71,127.71,0,0,0-8.91-33.69c-9.76-22.76-25-34.92-44.08-35.18l-.09,6.81C579.1,306,585.78,367.64,585.84,368.26Z"/><path class="cls-15" d="M579.7,328.86s3.5-40.45,44.35-45C624.05,283.88,626.13,323.35,579.7,328.86Z"/><path class="cls-12" d="M580,326.91c1.25-7.75,8-36.2,39.23-42.29C614.8,297,604.33,312.89,580,326.91Z"/><path class="cls-12" d="M662.72,506.5a227.49,227.49,0,0,1-23.88-47.65l-31.62-88.7a18.46,18.46,0,0,0-15.31-12.38c9.77,45.39,42.85,216.57-.24,272.17,47.22-.84,85.14-28.35,85.14-75.86A86.93,86.93,0,0,0,662.72,506.5Z"/><path class="cls-14" d="M706.3,429l-3.42-.35a64.11,64.11,0,0,1,4.5-17c4.92-11.5,12.62-17.64,22.26-17.77l0,3.44C709.7,397.56,706.33,428.67,706.3,429Z"/><path class="cls-13" d="M748.18,502.48l-25.65-72c-4.84-13.57-24-13.57-28.88,0l-25.65,72a184.78,184.78,0,0,1-19.38,38.66,70.52,70.52,0,0,0-11.43,38.6c0,39.16,31.74,61.59,70.9,61.59S779,618.9,779,579.74a70.52,70.52,0,0,0-11.43-38.6A184.78,184.78,0,0,1,748.18,502.48Z"/><path class="cls-16" d="M744.1,505.37l-23.05-64.63c-4.34-12.19-21.58-12.19-25.93,0l-23,64.63a165.65,165.65,0,0,1-17.4,34.72,63.37,63.37,0,0,0-10.26,34.67c0,35.16,28.5,55.3,63.67,55.3s63.67-20.14,63.67-55.3a63.37,63.37,0,0,0-10.26-34.67A165.65,165.65,0,0,1,744.1,505.37Z"/><path class="cls-17" d="M735,563.72c0,14.86-12,30.83-26.89,30.83s-26.9-16-26.9-30.83,10.41-22.3,25.26-22.3S735,548.87,735,563.72Z"/><path class="cls-8" d="M702.29,568.24c-1.53,4.4-4.13,7.5-5.81,6.91s-1.8-4.62-.27-9,4.13-7.5,5.8-6.92S703.81,563.83,702.29,568.24Z"/><path class="cls-8" d="M716.86,566.51c1,4.56.35,8.56-1.38,8.93s-3.94-3-4.91-7.59-.35-8.55,1.39-8.92S715.89,562,716.86,566.51Z"/><path class="cls-18" d="M137.61,448.7c7,123.6,109.41,221.68,234.76,221.68S600.14,572.3,607.13,448.7Z"/><path class="cls-19" d="M161.24,448.7c6.95,110.57,98.81,198.09,211.13,198.09S576.54,559.27,583.49,448.7Z"/><path class="cls-20" d="M170.69,448.7c6.94,105.35,94.57,188.66,201.68,188.66S567.1,554.05,574,448.7Z"/><path class="cls-8" d="M209.35,488.8c0,4.78-1.53,8.65-3.41,8.65s-3.41-3.87-3.41-8.65,1.53-8.65,3.41-8.65S209.35,484,209.35,488.8Z"/><path class="cls-8" d="M269.37,474.78c0,4.78-1.53,8.65-3.41,8.65s-3.41-3.87-3.41-8.65,1.53-8.65,3.41-8.65S269.37,470,269.37,474.78Z"/><path class="cls-8" d="M251.54,543.06c0,4.77-1.52,8.64-3.4,8.64s-3.41-3.87-3.41-8.64,1.53-8.65,3.41-8.65S251.54,538.28,251.54,543.06Z"/><path class="cls-8" d="M319.16,591.18c0,4.78-1.52,8.65-3.4,8.65s-3.41-3.87-3.41-8.65,1.52-8.65,3.41-8.65S319.16,586.4,319.16,591.18Z"/><path class="cls-8" d="M319.16,518.68c0,4.78-1.52,8.65-3.4,8.65s-3.41-3.87-3.41-8.65,1.52-8.65,3.41-8.65S319.16,513.9,319.16,518.68Z"/><path class="cls-8" d="M370.82,480.15c0,4.78-1.52,8.65-3.4,8.65s-3.41-3.87-3.41-8.65,1.52-8.64,3.41-8.64S370.82,475.38,370.82,480.15Z"/><path class="cls-8" d="M391.66,603.87c0,4.78-1.52,8.65-3.4,8.65s-3.41-3.87-3.41-8.65,1.52-8.65,3.41-8.65S391.66,599.1,391.66,603.87Z"/><path class="cls-8" d="M388.26,551.7c0,4.78-1.53,8.65-3.41,8.65s-3.41-3.87-3.41-8.65,1.53-8.64,3.41-8.64S388.26,546.93,388.26,551.7Z"/><path class="cls-8" d="M452.57,529.57c0,4.78-1.53,8.65-3.41,8.65s-3.41-3.87-3.41-8.65,1.53-8.65,3.41-8.65S452.57,524.79,452.57,529.57Z"/><path class="cls-8" d="M459.38,474.78c0,4.78-1.53,8.65-3.41,8.65s-3.4-3.87-3.4-8.65,1.52-8.65,3.4-8.65S459.38,470,459.38,474.78Z"/><path class="cls-8" d="M477.46,579.2c0,4.77-1.52,8.65-3.4,8.65s-3.41-3.88-3.41-8.65,1.53-8.65,3.41-8.65S477.46,574.42,477.46,579.2Z"/><path class="cls-8" d="M530.14,515.14c0,4.78-1.52,8.65-3.4,8.65s-3.41-3.87-3.41-8.65,1.53-8.65,3.41-8.65S530.14,510.37,530.14,515.14Z"/><ellipse class="cls-8" cx="533.55" cy="474.78" rx="3.41" ry="8.65"/><path class="cls-21" d="M583.49,448.7H472.76C460.44,503,418.17,592.12,276.38,649.94a234.34,234.34,0,0,0,96,20.44c125.34,0,227.77-98.08,234.76-221.68Z"/><path class="cls-22" d="M524.37,606.24a25.43,25.43,0,1,0,50.85,0c0-14-11.39-19.89-25.43-19.89S524.37,592.2,524.37,606.24Z"/><path class="cls-12" d="M564.62,589.23c1,14.38-1,34.76-18.92,42.11a26.25,26.25,0,0,0,4.09.33,25.44,25.44,0,0,0,25.43-25.43C575.22,597.74,571,592.24,564.62,589.23Z"/><path class="cls-23" d="M551,565.77a64.5,64.5,0,0,0-22.52-34.63H524.9c11.74,7.65,19.65,19.43,23.56,35.18a88.87,88.87,0,0,1,2.21,28.53l2.57.31A89.54,89.54,0,0,0,551,565.77Z"/><path class="cls-22" d="M547.63,650.44a38,38,0,0,1-76.1,0c0-21,17-29.76,38.05-29.76S547.63,629.43,547.63,650.44Z"/><path class="cls-22" d="M552,650.44a38,38,0,0,0,76.1,0c0-21-17-29.76-38-29.76S552,629.43,552,650.44Z"/><path class="cls-23" d="M591.81,589.88a96.51,96.51,0,0,0-40-56.41c-2.23-9.43,1.1-30.69,1.13-30.91l-3.83-.61c-.14.89-3.17,20.24-1.37,30.92-18,12.15-34,33.1-39.93,57a134.26,134.26,0,0,0-3.36,44l3.85-.46a133.07,133.07,0,0,1,3.31-42.69c6.18-24.88,19-43.15,38.21-54.51,19.2,11.36,32,29.63,38.22,54.51a132.55,132.55,0,0,1,3.3,42.69l3.86.46A134.26,134.26,0,0,0,591.81,589.88Z"/><path class="cls-12" d="M512.93,620.76c9.14,9.63,15,21.35,9.38,33.83a141.06,141.06,0,0,1-20.73,33,38.05,38.05,0,0,0,46.05-37.2C547.63,630.56,532.38,621.66,512.93,620.76Z"/><path class="cls-12" d="M612.2,625c1.57,21.52-1.44,52-28.32,63a38.58,38.58,0,0,0,6.12.49,38,38,0,0,0,38-38C628.05,637.72,621.8,629.49,612.2,625Z"/><path class="cls-24" d="M166.08,597.06c0,45.86-37.18,95.19-83,95.19S0,642.92,0,597.06s32.11-68.87,78-68.87S166.08,551.19,166.08,597.06Z"/><path class="cls-14" d="M87.07,551.2,79,550.39a151.52,151.52,0,0,1,10.6-40.09c11.61-27.08,29.75-41.55,52.45-41.85l.1,8.1C95.09,477.17,87.14,550.46,87.07,551.2Z"/><path class="cls-15" d="M94.37,504.32s-4.16-48.13-52.77-53.53C41.6,450.79,39.13,497.76,94.37,504.32Z"/><path class="cls-12" d="M94.06,502c-1.5-9.22-9.48-43.07-46.68-50.31C52.61,466.34,65.07,485.31,94.06,502Z"/><path class="cls-12" d="M128.25,539C140.79,588.13,142,651.9,85.36,692.2c44.79-1.62,80.72-50.06,80.72-95.14C166.08,569.31,150.62,549.94,128.25,539Z"/><path class="cls-14" d="M213.65,573.91l-5.24-.53a98.09,98.09,0,0,1,6.9-26.08c7.55-17.62,19.35-27,34.12-27.23l.07,5.27C218.87,525.74,213.7,573.42,213.65,573.91Z"/><path class="cls-24" d="M284.82,615.63c0,40.83-33.1,84.74-73.93,84.74S137,656.46,137,615.63s28.59-61.3,69.41-61.3S284.82,574.8,284.82,615.63Z"/><path class="cls-16" d="M281.21,616.2c0,38.84-31.48,80.61-70.32,80.61S140.57,655,140.57,616.2s27.2-58.31,66-58.31S281.21,577.37,281.21,616.2Z"/><path class="cls-17" d="M234.78,623.56c0,13.2-10.7,27.39-23.89,27.39S187,636.76,187,623.56s9.24-19.81,22.43-19.81S234.78,610.37,234.78,623.56Z"/><ellipse class="cls-8" cx="200.97" cy="626.45" rx="9.47" ry="3.61" transform="translate(-456.74 611) rotate(-70.87)"/><path class="cls-8" d="M220.73,625.7c1.09,5.11.39,9.59-1.56,10s-4.41-3.4-5.5-8.51-.39-9.6,1.56-10S219.64,620.58,220.73,625.7Z"/><circle class="cls-25" cx="323.61" cy="655.96" r="72.51" transform="translate(-390.37 814.81) rotate(-76.29)"/><path class="cls-18" d="M328.08,588.92h-5.47c0-1.66.32-40.62,27.75-46l1.05,5.37C328.35,552.81,328.08,588.56,328.08,588.92Z"/><path class="cls-18" d="M328.88,573.53s19-17.79,35.09-13,21.89,9.92,27.36,9.92C391.33,570.45,363.22,587.89,328.88,573.53Z"/><path class="cls-26" d="M330.11,572.44c-.79.68-1.23,1.09-1.23,1.09,34.34,14.36,62.45-3.08,62.45-3.08S351.83,577.39,330.11,572.44Z"/><path class="cls-27" d="M378.16,608.21c0,28.42-7.19,115.37-97.63,106.07a72.5,72.5,0,0,0,97.63-106.07Z"/><path class="cls-25" d="M338.88,657.32a82.09,82.09,0,0,0,164.18,0Z"/><path class="cls-28" d="M496.48,657.32h-151a75.61,75.61,0,0,0,71.9,75.41v.12l8.21-.06v-.13A75.59,75.59,0,0,0,496.48,657.32ZM354.4,663.24l56.69-.38-39.22,39.75A66.53,66.53,0,0,1,354.4,663.24Zm23.39,45,39.14-39.67.37,55.44A66.59,66.59,0,0,1,377.79,708.29ZM425.51,724l-.37-55.42,39.67,39.14A66.51,66.51,0,0,1,425.51,724Zm5.4-61.27,56.7-.38A66.54,66.54,0,0,1,470.67,702Z"/></g></g></g></svg>