<svg height="511pt" viewBox="-87 0 511 511.99966" width="511pt" xmlns="http://www.w3.org/2000/svg"><path d="m115.007812 44.109375c-2.773437-2.777344-2.625-7.300781.292969-9.921875 52.488281-47.183594 133.332031-45.527344 183.828125 4.96875 50.496094 50.5 52.15625 131.339844 4.972656 183.832031-2.625 2.917969-7.148437 3.066407-9.921874.289063zm0 0" fill="#fff0d0"/><path d="m142.144531 45.828125c12.933594-9.210937 27.984375-15.632813 44.285157-18.398437 9.492187-1.609376 18.164062 5.660156 18.164062 15.285156v90.980468l-64.324219-64.328124c-6.753906-6.75-5.902343-18 1.875-23.539063zm0 0" fill="#ffae4d"/><path d="m222.566406 27.40625c15.65625 2.628906 30.84375 8.730469 44.324219 18.300781 7.851563 5.574219 8.839844 16.847657 2.035156 23.65625l-64.332031 64.328125v-90.96875c0-9.546875 8.554688-16.902344 17.972656-15.316406zm0 0" fill="#ffcb6f"/><path d="m204.59375 133.695312 64.332031-64.332031c6.804688-6.804687 18.078125-5.816406 23.652344 2.035157 9.570313 13.480468 15.671875 28.667968 18.304687 44.324218 1.582032 9.414063-5.773437 17.972656-15.320312 17.972656zm0 0" fill="#ffae4d"/><path d="m204.59375 133.695312h90.976562c9.625 0 16.898438 8.671876 15.289063 18.164063-2.765625 16.296875-9.191406 31.351563-18.402344 44.285156-5.535156 7.777344-16.785156 8.625-23.539062 1.875zm0 0" fill="#ffcb6f"/><path d="m240.449219 96.765625v405.070313c0 5.609374-4.550781 10.164062-10.164063 10.164062h-219.621094c-5.609374 0-10.164062-4.554688-10.164062-10.164062v-405.070313c0-5.609375 4.554688-10.164063 10.164062-10.164063h219.621094c5.613282 0 10.164063 4.554688 10.164063 10.164063zm0 0" fill="#c8ffff"/><path d="m110.734375 209.40625-33.707031 5.601562-21.316406-128.402343-10.054688-60.582031c-.9375-5.617188 2.867188-10.921876 8.480469-11.847657l13.382812-2.226562c5.613281-.925781 10.917969 2.863281 11.84375 8.476562l10.984375 66.179688zm0 0" fill="#ff7061"/><path d="m110.734375 209.40625-33.707031 5.601562-21.316406-128.402343h34.636718zm0 0" fill="#f74f43"/><path d="m44.726562 512h-34.0625c-5.609374 0-10.164062-4.554688-10.164062-10.164062v-405.070313c0-5.609375 4.554688-10.164063 10.164062-10.164063h34.0625c-5.609374 0-10.164062 4.554688-10.164062 10.164063v405.070313c0 5.609374 4.554688 10.164062 10.164062 10.164062zm0 0" fill="#70efef"/><path d="m196.222656 475.804688h-151.492187c-5.613281 0-10.164063-4.550782-10.164063-10.167969v-256.257813c0-5.617187 4.550782-10.167968 10.164063-10.167968h151.492187c5.613282 0 10.164063 4.550781 10.164063 10.167968v256.257813c0 5.617187-4.550781 10.167969-10.164063 10.167969zm0 0" fill="#ffe671"/><path d="m74.773438 475.800781h-30.046876c-5.609374 0-10.164062-4.550781-10.164062-10.164062v-256.265625c0-5.609375 4.554688-10.164063 10.164062-10.164063h30.046876c-5.609376 0-10.164063 4.554688-10.164063 10.164063v256.265625c0 5.613281 4.554687 10.164062 10.164063 10.164062zm0 0" fill="#ffcb6f"/><g fill="#fff0d0"><path d="m169.820312 411.878906c0 11.859375-9.617187 21.476563-21.476562 21.476563-11.863281 0-21.476562-9.617188-21.476562-21.476563s9.613281-21.476562 21.476562-21.476562c11.859375 0 21.476562 9.617187 21.476562 21.476562zm0 0"/><path d="m133.550781 349.25c0 9.449219-7.660156 17.105469-17.105469 17.105469-9.449218 0-17.109374-7.65625-17.109374-17.105469 0-9.445312 7.660156-17.105469 17.109374-17.105469 9.445313 0 17.105469 7.660157 17.105469 17.105469zm0 0"/></g></svg>