<svg xmlns="http://www.w3.org/2000/svg" viewBox="0 0 500 500"><defs><style>.cls-1{fill:none;}.cls-2{fill:#fff;}</style></defs><title>margherita_full</title><g id="Layer_1" data-name="Layer 1"><rect class="cls-1" x="1" width="500" height="500"/></g><g id="Layer_2" data-name="Layer 2"><path class="cls-2" d="M397,44H103c2.2,2.83-6,12.9,15,34,7.44,7.48,25.5,11.5,38.5,22.5,8,22,15.5,78.5,73.5,94.5,8.71,29,9,197,8,207s-8,16-14,23-49.5,16-54.5,19-5,11-5,11S202,466,250,466s85.5-11,85.5-11,0-8-5-11S282,432,276,425s-13-13-14-23-.71-178,8-207c58-16,64-74,72-96,13-11,32.56-10.62,40-18.1C403,59.8,394.8,46.83,397,44Z"/></g><g id="Layer_3" data-name="Layer 3"><path class="cls-2" d="M112,59c0,14.76,34,27.56,53,33.45,3.21,1.83,10.48,46.17,24.69,62C209.65,176.75,225.47,183,250,183s40.35-6.25,60.31-28.52c14.21-15.86,21.48-60.2,24.69-62,19-5.89,53-18.69,53-33.45Z"/></g></svg>