<svg xmlns="http://www.w3.org/2000/svg" viewBox="0 0 500 500"><defs><style>.cls-1{fill:none;}.cls-2{fill:#fff;}</style></defs><title>collins</title><g id="Layer_1" data-name="Layer 1"><rect class="cls-1" x="4" width="500" height="500"/></g><g id="Layer_2" data-name="Layer 2"><path class="cls-2" d="M341,269c19.5-44-23.5-119.5-23.5-170.5C317.5,75.5,333,53,338,44H162c5,9,20.5,31.5,20.5,54.5,0,51-43,126.5-23.5,170.5s61,43,74.25,51.75c0,17,.5,73.5-.5,83.5S223.5,424,214,430s-38.5,8-43.5,11-5,14-5,14,36.49,10.84,84,11h1c47.51-.15,84-11,84-11s0-11-5-14-34-5-43.5-11-17.75-15.75-18.75-25.75-.5-66.5-.5-83.5C280,312,321.5,313,341,269Z"/></g></svg>