<svg xmlns="http://www.w3.org/2000/svg" viewBox="0 0 500 500"><defs><style>.cls-1{fill:none;}.cls-2{fill:#fff;}</style></defs><title>liqeur</title><g id="Layer_1" data-name="Layer 1"><rect class="cls-1" width="500" height="500"/></g><g id="Layer_2" data-name="Layer 2"><path class="cls-2" d="M176.5,44h147s-9,13-14,34-9,58-9,103,.75,88-4,99c-6.25,8.25-30,18-30,40s-1,82.5-1,82.5,2,18.5,16,24.5,44,13,47,19a33,33,0,0,1,3,13s-30,7-78,7-85-11-85-11,0-11,5-14,36-9,42-16,17-13,18-23,0-67,0-84S210,286.5,204,278.5s-4.29-45.5-4.29-96.5-2.77-93.66-7.21-106C186.5,61,181.5,53,176.5,44Z"/></g></svg>