<svg xmlns="http://www.w3.org/2000/svg" viewBox="0 0 500 500"><defs><style>.cls-1{fill:none;}.cls-2{fill:#fff;}</style></defs><title>martini</title><g id="Layer_1" data-name="Layer 1"><rect class="cls-1" width="500" height="500"/></g><g id="Layer_2" data-name="Layer 2"><path class="cls-2" d="M330,444c-5-3-48.5-12-54.5-19s-13-13-14-23-3.71-167,5-196c19-25,123-153,130-162h-293c7,9,111,137,130,162,8.71,29,6,186,5,196s-8,16-14,23S175,441,170,444s-5,11-5,11,37,11,85,11,85-11,85-11S335,447,330,444Z"/></g></svg>