<svg xmlns="http://www.w3.org/2000/svg" viewBox="0 0 500 500"><defs><style>.cls-1{opacity:0;}.cls-2{fill:#c1272d;}.cls-3{fill:#fff;}.cls-10,.cls-4{fill:none;}.cls-5{fill:#f8ff6a;}.cls-6{fill:#f7f7f7;}.cls-7{fill:#fdffad;}.cls-8{fill:#f7931e;}.cls-9{fill:#f7cc6f;}.cls-10{stroke:#004203;stroke-linecap:round;stroke-miterlimit:10;stroke-width:2px;}.cls-11{fill:#691518;}.cls-12{fill:#ff5559;}</style></defs><title>collins_whole</title><g id="Layer_2" data-name="Layer 2"><g id="base" class="cls-1"><rect class="cls-2" width="500" height="500"/></g><g id="glass"><path class="cls-3" d="M341,269c19.5-44-23.5-119.5-23.5-170.5C317.5,75.5,333,53,338,44H162c5,9,20.5,31.5,20.5,54.5,0,51-43,126.5-23.5,170.5s61,43,74.25,51.75c0,17,.5,73.5-.5,83.5S223.5,424,214,430s-38.5,8-43.5,11-5,14-5,14,36.49,10.84,84,11h1c47.51-.15,84-11,84-11s0-11-5-14-34-5-43.5-11-17.75-15.75-18.75-25.75-.5-66.5-.5-83.5C280,312,321.5,313,341,269Z"/></g><g id="whole"><path class="cls-4" d="M315,152c-6.62-26.9-11.5-55.81-4-78.65-.78-.28-121.22-.28-122,0,7.5,22.84,2.62,51.75-4,78.65s-32.5,94.05-12.25,120.06S211,305.15,250,305.15s57-7.07,77.25-33.08S321.62,178.9,315,152Z"/></g><g id="lemon"><path class="cls-5" d="M145.32,16.56c-31.95,18.22-43.95,57.36-26.8,87.43L234.2,38C217.06,8,177.26-1.65,145.32,16.56Z"/><path class="cls-6" d="M147.92,21.74c-28.62,16.32-39.2,51.67-23.64,79L227.93,41.6C212.36,14.31,176.54,5.41,147.92,21.74Z"/><path class="cls-7" d="M150.31,24.07C123,39.67,112.67,73.2,127.36,99l99.09-56.51C211.76,16.69,177.67,8.46,150.31,24.07Z"/><polygon class="cls-6" points="118.97 81.38 176.18 71.09 118.65 78.19 118.97 81.38"/><polyline class="cls-6" points="131.57 37.23 129.57 39.74 175.74 70.69"/><polygon class="cls-6" points="168.02 15.33 176.24 69.54 164.9 16.08 168.02 15.33"/><polygon class="cls-6" points="210.17 23.8 176.03 70.68 207.44 22.12 210.17 23.8"/><path class="cls-6" d="M180.05,68.9a4.91,4.91,0,0,0-.67-.92,4.5,4.5,0,0,0-6.44-.19,4.62,4.62,0,0,0-.7,5.56Z"/></g><g id="orange"><path class="cls-8" d="M144.5,17.47c-32.19,18.38-44.29,57.87-27,88.2l116.6-66.56C216.81,8.78,176.7-.91,144.5,17.47Z"/><path class="cls-6" d="M147.13,22.68c-28.85,16.47-39.52,52.14-23.83,79.68L227.76,42.72C212.08,15.19,176,6.22,147.13,22.68Z"/><path class="cls-9" d="M149.54,25C122,40.78,111.6,74.6,126.4,100.59l99.87-57C211.47,17.59,177.11,9.29,149.54,25Z"/><polygon class="cls-6" points="117.95 82.86 175.61 72.48 117.63 79.64 117.95 82.86"/><polyline class="cls-6" points="130.65 38.32 128.63 40.85 175.16 72.08"/><polygon class="cls-6" points="167.38 16.22 175.67 70.91 164.23 16.98 167.38 16.22"/><polygon class="cls-6" points="209.87 24.77 175.46 72.06 207.11 23.07 209.87 24.77"/><path class="cls-6" d="M179.51,70.27a5,5,0,0,0-.68-.93,4.54,4.54,0,0,0-6.49-.19,4.67,4.67,0,0,0-.7,5.61Z"/></g><g id="cherry"><path class="cls-2" d="M310.73,77.5c1.86-7.71-2.66-15.16-10.09-16.64a15.14,15.14,0,0,0-8.68.86c-2-1.74-4.94-3.78-7.49-4.08A15.18,15.18,0,0,0,267.63,68.9a23.28,23.28,0,0,0-.34,10.74c.89,4,7.62,13,16.75,14.79,8.26,1.65,17.7-3,20.66-6.05A24,24,0,0,0,310.73,77.5Z"/><path class="cls-10" d="M290.64,64.18s3.78-20.24,11.07-36.41S314.18,9.05,314.18,9.05c.61,3.53,1,3.15,1,3.15"/><path class="cls-11" d="M288.18,61.77a4.31,4.31,0,0,0,.36,1.81,2,2,0,0,0,1.35.75,4.78,4.78,0,0,0,1.78.21,18.63,18.63,0,0,0,1.94-.32,4.31,4.31,0,0,1-1.79,1.08,3.29,3.29,0,0,1-1.1.17,8,8,0,0,1-1.07-.17,4,4,0,0,1-1-.43,1.83,1.83,0,0,1-.77-1A2.65,2.65,0,0,1,288.18,61.77Z"/><path class="cls-12" d="M274.86,63.9a23.81,23.81,0,0,0-3.15,13,9.45,9.45,0,0,1-.71-3.45,13.5,13.5,0,0,1,.38-3.53,13.83,13.83,0,0,1,1.3-3.3A9.93,9.93,0,0,1,274.86,63.9Z"/></g></g></svg>