<svg xmlns="http://www.w3.org/2000/svg" viewBox="0 0 500 500">
    <defs>
        <style>.cls-1{opacity:0;}.cls-2{fill:#c1272d;}.cls-26,.cls-3{fill:#fff;}.cls-4{fill:#f8ff6a;}.cls-5{fill:#f7f7f7;}.cls-6{fill:#fdffad;}.cls-7{fill:#30ab14;}.cls-8{fill:#dce06c;}.cls-9{fill:#f7931e;}.cls-10{fill:#f7cc6f;}.cls-11{fill:#faff96;}.cls-12{fill:#f4ff1f;}.cls-13{fill:#8c6239;}.cls-14{fill:#6b4b2c;}.cls-15,.cls-16{fill:none;stroke-miterlimit:10;}.cls-15{stroke:#754c24;}.cls-16{stroke:#004203;stroke-linecap:round;stroke-width:2px;}.cls-17{fill:#691518;}.cls-18{fill:#ff5559;}.cls-19{fill:#a62226;}.cls-20{fill:#a2b400;}.cls-21{fill:#197d38;}.cls-22{fill:#166b2f;}.cls-23{fill:#1d8f3f;}.cls-24{fill:#22a649;}.cls-25{fill:#7ca622;}.cls-26{opacity:0.3;}</style>
    </defs>
    <title>collins</title>
    <g id="Layer_2" data-name="Layer 2">
        <g id="base" class="cls-1">
            <rect class="cls-2" width="500" height="500"/>
        </g>
        <g id="glass">
            <path class="cls-3" d="M341,269c19.5-44-23.5-119.5-23.5-170.5C317.5,75.5,333,53,338,44H162c5,9,20.5,31.5,20.5,54.5,0,51-43,126.5-23.5,170.5s61,43,74.25,51.75c0,17,.5,73.5-.5,83.5S223.5,424,214,430s-38.5,8-43.5,11-5,14-5,14,36.49,10.84,84,11h1c47.51-.15,84-11,84-11s0-11-5-14-34-5-43.5-11-17.75-15.75-18.75-25.75-.5-66.5-.5-83.5C280,312,321.5,313,341,269Z"/>
        </g>
        <g id="cuts">
            <path class="cls-3" d="M175.92,276c17.4,20.84,34,27.94,65,29h18.14c31-1.06,47.61-8.16,65-29Z"/>
            <path class="cls-3" d="M165.23,247c.41,10,2.6,18.76,7.52,25.07,1.06,1.37,2.12,2.67,3.17,3.93H324.08c1.05-1.26,2.11-2.56,3.17-3.93,4.92-6.31,7.11-15.06,7.52-25.07Z"/>
            <path class="cls-3" d="M165.23,247H334.77c.37-8.94-.68-18.88-2.49-29H167.72C165.91,228.12,164.86,238.06,165.23,247Z"/>
            <path class="cls-3" d="M167.72,218H332.28c-1.75-9.75-4.19-19.67-6.74-29H174.46C171.91,198.33,169.47,208.25,167.72,218Z"/>
            <path class="cls-3" d="M174.46,189H325.54c-3-10.84-6.07-20.9-8.38-29H182.84C180.53,168.1,177.43,178.16,174.46,189Z"/>
            <path class="cls-3" d="M185,152c-.58,2.37-1.32,5.05-2.16,8H317.16c-.84-2.94-1.58-5.62-2.16-8-1.7-6.92-3.29-14-4.58-21H189.58C188.29,138,186.7,145.09,185,152Z"/>
            <path class="cls-3" d="M310.42,131a179,179,0,0,1-3.18-29H192.76a179,179,0,0,1-3.18,29Z"/>
            <path class="cls-3" d="M189,73.36c2.89,8.8,3.94,18.5,3.76,28.64H307.24c-.18-10.14.87-19.84,3.76-28.64C310.22,73.08,189.78,73.08,189,73.36Z"/>
        </g>
        <g id="lemon">
            <path class="cls-4" d="M145.32,16.56c-31.95,18.22-43.95,57.36-26.8,87.43L234.2,38C217.06,8,177.26-1.65,145.32,16.56Z"/>
            <path class="cls-5" d="M147.92,21.74c-28.62,16.32-39.2,51.67-23.64,79L227.93,41.6C212.36,14.31,176.54,5.41,147.92,21.74Z"/>
            <path class="cls-6" d="M150.31,24.07C123,39.67,112.67,73.2,127.36,99l99.09-56.51C211.76,16.69,177.67,8.46,150.31,24.07Z"/>
            <polygon class="cls-5" points="118.97 81.38 176.18 71.09 118.65 78.19 118.97 81.38"/>
            <polyline class="cls-5" points="131.57 37.23 129.57 39.74 175.74 70.69"/>
            <polygon class="cls-5" points="168.02 15.33 176.24 69.54 164.9 16.08 168.02 15.33"/>
            <polygon class="cls-5" points="210.17 23.8 176.03 70.68 207.44 22.12 210.17 23.8"/>
            <path class="cls-5" d="M180.05,68.9a4.91,4.91,0,0,0-.67-.92,4.5,4.5,0,0,0-6.44-.19,4.62,4.62,0,0,0-.7,5.56Z"/>
        </g>
        <g id="lime">
            <path class="cls-7" d="M145.79,17.34c-31.78,18.12-43.71,57.05-26.66,87L234.2,38.68C217.15,8.77,177.56-.78,145.79,17.34Z"/>
            <path class="cls-5" d="M148.38,22.48c-28.47,16.23-39,51.4-23.52,78.55L228,42.24C212.48,15.09,176.85,6.24,148.38,22.48Z"/>
            <path class="cls-8" d="M150.76,24.8c-27.22,15.52-37.44,48.87-22.83,74.48l98.56-56.2C211.88,17.46,178,9.28,150.76,24.8Z"/>
            <polygon class="cls-5" points="119.59 81.81 176.49 71.58 119.27 78.63 119.59 81.81"/>
            <polyline class="cls-5" points="132.12 37.9 130.13 40.39 176.05 71.17"/>
            <polygon class="cls-5" points="168.37 16.11 176.55 70.03 165.26 16.86 168.37 16.11"/>
            <polygon class="cls-5" points="210.3 24.54 176.34 71.16 207.58 22.86 210.3 24.54"/>
            <path class="cls-5" d="M180.34,69.39a4.85,4.85,0,0,0-.67-.91,4.47,4.47,0,0,0-6.4-.19,4.61,4.61,0,0,0-.7,5.53Z"/>
        </g>
        <g id="orange">
            <path class="cls-9" d="M144.5,17.47c-32.19,18.38-44.29,57.87-27,88.2l116.6-66.56C216.81,8.78,176.7-.91,144.5,17.47Z"/>
            <path class="cls-5" d="M147.13,22.68c-28.85,16.47-39.52,52.14-23.83,79.68L227.76,42.72C212.08,15.19,176,6.22,147.13,22.68Z"/>
            <path class="cls-10" d="M149.54,25C122,40.78,111.6,74.6,126.4,100.59l99.87-57C211.47,17.59,177.11,9.29,149.54,25Z"/>
            <polygon class="cls-5" points="117.95 82.86 175.61 72.48 117.63 79.64 117.95 82.86"/>
            <polyline class="cls-5" points="130.65 38.32 128.63 40.85 175.16 72.08"/>
            <polygon class="cls-5" points="167.38 16.22 175.67 70.91 164.23 16.98 167.38 16.22"/>
            <polygon class="cls-5" points="209.87 24.77 175.46 72.06 207.11 23.07 209.87 24.77"/>
            <path class="cls-5" d="M179.51,70.27a5,5,0,0,0-.68-.93,4.54,4.54,0,0,0-6.49-.19,4.67,4.67,0,0,0-.7,5.61Z"/>
        </g>
        <g id="lemon_zest" data-name="lemon zest">
            <polygon class="cls-11" points="352.62 60.6 363 57.93 338.81 14.67 328.42 17.34 352.62 60.6"/>
            <polygon class="cls-11" points="328.08 66.91 338.46 64.24 314.26 20.97 303.88 23.64 328.08 66.91"/>
            <polygon class="cls-11" points="303.56 73.33 313.95 70.67 289.75 27.4 279.36 30.07 303.56 73.33"/>
            <polygon class="cls-12" points="352.97 11.03 363.35 8.36 363 57.93 352.62 60.6 352.97 11.03"/>
            <polyline class="cls-12" points="338.81 14.67 338.46 64.24 328.08 66.91 328.42 17.34"/>
            <polyline class="cls-12" points="314.29 21.09 313.95 70.67 303.56 73.33 303.91 23.76"/>
            <polyline class="cls-12" points="289.75 27.4 289.4 76.97 279.02 79.64 279.36 30.07"/>
        </g>
        <g id="cinnamon">
            <path class="cls-13" d="M142.74,25.63c1.55-2.82,1.08-6.06-1.06-7.25s-5.13.14-6.68,3l6-10.87c-1.73,3.15-1.41,6.67.73,7.85s5.27-.41,7-3.56,1.42-6.66-.72-7.84L285.64,83.24l-12,21.66L136.05,28.58C138.19,29.77,141.18,28.45,142.74,25.63Z"/>
            <ellipse class="cls-14" cx="144.86" cy="12.62" rx="6.51" ry="4.42" transform="translate(64.01 133.48) rotate(-61.2)"/>
            <ellipse class="cls-14" cx="138.87" cy="23.48" rx="5.83" ry="4.42" transform="translate(51.5 133.94) rotate(-61.26)"/>
            <ellipse class="cls-13" cx="281.94" cy="88.63" rx="6.51" ry="4.42" transform="translate(68.44 293) rotate(-61.2)"/>
            <ellipse class="cls-13" cx="275.94" cy="99.5" rx="5.83" ry="4.42" transform="translate(56 293.59) rotate(-61.26)"/>
            <line class="cls-15" x1="141.16" y1="18.01" x2="278.24" y2="94.03"/>
        </g>
        <g id="cherry">
            <path class="cls-2" d="M310.73,77.5c1.86-7.71-2.66-15.16-10.09-16.64a15.14,15.14,0,0,0-8.68.86c-2-1.74-4.94-3.78-7.49-4.08A15.18,15.18,0,0,0,267.63,68.9a23.28,23.28,0,0,0-.34,10.74c.89,4,7.62,13,16.75,14.79,8.26,1.65,17.7-3,20.66-6.05A24,24,0,0,0,310.73,77.5Z"/>
            <path class="cls-16" d="M290.64,64.18s3.78-20.24,11.07-36.41S314.18,9.05,314.18,9.05c.61,3.53,1,3.15,1,3.15"/>
            <path class="cls-17" d="M288.18,61.77a4.31,4.31,0,0,0,.36,1.81,2,2,0,0,0,1.35.75,4.78,4.78,0,0,0,1.78.21,18.63,18.63,0,0,0,1.94-.32,4.31,4.31,0,0,1-1.79,1.08,3.29,3.29,0,0,1-1.1.17,8,8,0,0,1-1.07-.17,4,4,0,0,1-1-.43,1.83,1.83,0,0,1-.77-1A2.65,2.65,0,0,1,288.18,61.77Z"/>
            <path class="cls-18" d="M274.86,63.9a23.81,23.81,0,0,0-3.15,13,9.45,9.45,0,0,1-.71-3.45,13.5,13.5,0,0,1,.38-3.53,13.83,13.83,0,0,1,1.3-3.3A9.93,9.93,0,0,1,274.86,63.9Z"/>
        </g>
        <g id="strawberry">
            <path class="cls-19" d="M327.08,51.68c-6,16-29.8,34-38.06,30.92s-14.2-32.38-8.19-48.35S298,20,310.8,24.8,333.09,35.71,327.08,51.68Z"/>
            <path class="cls-20" d="M286.52,32a4.47,4.47,0,0,0,.12-1.45,4.41,4.41,0,0,0-.86,1.17c-.19.51-.09.73.12.81S286.32,32.46,286.52,32Z"/>
            <path class="cls-20" d="M290.73,34.59a4.47,4.47,0,0,0,.12-1.45,4.65,4.65,0,0,0-.86,1.17c-.19.51-.09.73.12.81S290.54,35.1,290.73,34.59Z"/>
            <path class="cls-20" d="M296.57,37.25a4.53,4.53,0,0,0,.13-1.44,4.41,4.41,0,0,0-.86,1.17c-.2.51-.09.73.11.81S296.38,37.76,296.57,37.25Z"/>
            <path class="cls-20" d="M303,40a4.59,4.59,0,0,0,.13-1.45,4.41,4.41,0,0,0-.86,1.17c-.2.51-.09.73.11.81S302.83,40.53,303,40Z"/>
            <path class="cls-20" d="M321.37,45.08a4.41,4.41,0,0,1,.86-1.17,4.53,4.53,0,0,1-.13,1.44c-.19.51-.41.61-.62.54S321.18,45.59,321.37,45.08Z"/>
            <path class="cls-20" d="M316.12,44.08a4.41,4.41,0,0,1,.86-1.17,4.59,4.59,0,0,1-.13,1.45c-.19.51-.42.61-.62.53S315.92,44.59,316.12,44.08Z"/>
            <path class="cls-20" d="M310,42.23a4.41,4.41,0,0,1,.86-1.17,4.24,4.24,0,0,1-.13,1.44c-.19.52-.41.61-.62.54S309.78,42.74,310,42.23Z"/>
            <path class="cls-20" d="M284,36.32a4.6,4.6,0,0,0,.13-1.45A4.41,4.41,0,0,0,283.3,36c-.2.51-.09.73.11.81S283.84,36.83,284,36.32Z"/>
            <path class="cls-20" d="M288.21,40.15a4.59,4.59,0,0,0,.13-1.45,4.41,4.41,0,0,0-.86,1.17c-.19.52-.09.74.11.81S288,40.66,288.21,40.15Z"/>
            <path class="cls-20" d="M295.05,43.11a4.42,4.42,0,0,0,.12-1.44,4.65,4.65,0,0,0-.86,1.17c-.19.51-.09.73.12.81S294.85,43.62,295.05,43.11Z"/>
            <path class="cls-20" d="M301.5,45.88a4.47,4.47,0,0,0,.12-1.45,4.41,4.41,0,0,0-.86,1.17c-.19.51-.09.74.12.81S301.3,46.39,301.5,45.88Z"/>
            <path class="cls-20" d="M319.84,50.94a4.65,4.65,0,0,1,.86-1.17,4.42,4.42,0,0,1-.12,1.44c-.19.52-.42.61-.62.54S319.65,51.45,319.84,50.94Z"/>
            <path class="cls-20" d="M313.49,48.54a4.41,4.41,0,0,1,.86-1.17,4.59,4.59,0,0,1-.13,1.45c-.19.51-.42.61-.62.53S313.29,49.05,313.49,48.54Z"/>
            <path class="cls-21" d="M311.41,24.63s-5.35-11-16.62-6.26S278,21,278,21s8.12,12,17.91,11.23S309.93,28.56,311.41,24.63Z"/>
            <path class="cls-22" d="M305.09,26.39s9.15-10.69,16.38-4.93,12.7,4.12,12.7,4.12-11.87,11.5-19.59,9.85S304.62,30.5,305.09,26.39Z"/>
            <path class="cls-21" d="M309.74,24s11.27-4.74,16.62,6.26,10.88,13.08,10.88,13.08S323.2,47,316.37,40,308.25,27.93,309.74,24Z"/>
            <path class="cls-23" d="M309,22.38s-9.82-5.42-17.3,3.51S278.45,36,278.45,36s12.7,4.84,20.77-.5S309.59,26,309,22.38Z"/>
            <path class="cls-24" d="M309,22.19s12.21,2.86,10.59,13.12,1.91,14.63,1.91,14.63-14-5-15.82-13.46S305.54,24,309,22.19Z"/>
            <path class="cls-20" d="M307,47.52a4.41,4.41,0,0,1,.86-1.17,4.59,4.59,0,0,1-.13,1.45c-.19.51-.42.61-.62.53S306.75,48,307,47.52Z"/>
            <path class="cls-20" d="M281.62,42.71a4.59,4.59,0,0,0,.13-1.45,4.41,4.41,0,0,0-.86,1.17c-.19.52-.09.74.11.81S281.43,43.22,281.62,42.71Z"/>
            <path class="cls-20" d="M287,45.71a4.47,4.47,0,0,0,.12-1.45,4.65,4.65,0,0,0-.86,1.17c-.19.51-.08.73.12.81S286.77,46.22,287,45.71Z"/>
            <path class="cls-20" d="M293.52,49a4.31,4.31,0,0,0,.13-1.45,4.41,4.41,0,0,0-.86,1.17c-.19.51-.09.73.11.81S293.33,49.49,293.52,49Z"/>
            <path class="cls-20" d="M300,51.74a4.29,4.29,0,0,0,.13-1.45,4.41,4.41,0,0,0-.86,1.17c-.19.51-.09.74.11.81S299.78,52.25,300,51.74Z"/>
            <path class="cls-20" d="M318.32,56.8a4.41,4.41,0,0,1,.86-1.17,4.48,4.48,0,0,1-.12,1.45c-.2.51-.42.6-.62.53S318.13,57.31,318.32,56.8Z"/>
            <path class="cls-20" d="M311.82,54.09a4.41,4.41,0,0,1,.86-1.17,4.42,4.42,0,0,1-.12,1.44c-.2.52-.42.61-.63.54S311.63,54.6,311.82,54.09Z"/>
            <path class="cls-20" d="M305.42,53.38a4.65,4.65,0,0,1,.86-1.17,4.47,4.47,0,0,1-.12,1.45c-.19.51-.42.61-.62.53S305.23,53.9,305.42,53.38Z"/>
            <path class="cls-20" d="M280.87,51.28a4.47,4.47,0,0,0,.12-1.45,4.65,4.65,0,0,0-.86,1.17c-.19.51-.08.73.12.81S280.68,51.79,280.87,51.28Z"/>
            <path class="cls-20" d="M286.16,52.17a4.47,4.47,0,0,0,.12-1.45,4.65,4.65,0,0,0-.86,1.17c-.19.51-.09.74.12.81S286,52.68,286.16,52.17Z"/>
            <path class="cls-20" d="M292,54.84a4.59,4.59,0,0,0,.13-1.45,4.41,4.41,0,0,0-.86,1.17c-.2.51-.09.73.11.81S291.81,55.35,292,54.84Z"/>
            <path class="cls-20" d="M298.45,57.6a4.59,4.59,0,0,0,.13-1.45,4.41,4.41,0,0,0-.86,1.17c-.2.51-.09.74.11.81S298.26,58.11,298.45,57.6Z"/>
            <path class="cls-20" d="M316.8,62.66a4.41,4.41,0,0,1,.86-1.17,4.59,4.59,0,0,1-.13,1.45c-.19.51-.42.61-.62.53S316.61,63.17,316.8,62.66Z"/>
            <path class="cls-20" d="M310.3,60a4.41,4.41,0,0,1,.86-1.17,4.6,4.6,0,0,1-.13,1.45c-.19.51-.42.6-.62.53S310.1,60.46,310.3,60Z"/>
            <path class="cls-20" d="M303.9,59.25a4.23,4.23,0,0,1,.86-1.17,4.24,4.24,0,0,1-.13,1.44c-.19.51-.41.61-.62.54S303.71,59.76,303.9,59.25Z"/>
            <path class="cls-20" d="M281.23,58.68a4.59,4.59,0,0,0,.13-1.45,4.41,4.41,0,0,0-.86,1.17c-.19.51-.09.74.11.81S281,59.19,281.23,58.68Z"/>
            <path class="cls-20" d="M284.63,58a4.29,4.29,0,0,0,.13-1.45,4.41,4.41,0,0,0-.86,1.17c-.19.52-.09.74.11.81S284.44,58.54,284.63,58Z"/>
            <path class="cls-20" d="M290.48,60.7a4.47,4.47,0,0,0,.12-1.45,4.41,4.41,0,0,0-.86,1.17c-.19.51-.09.73.12.81S290.28,61.21,290.48,60.7Z"/>
            <path class="cls-20" d="M296.93,63.46a4.47,4.47,0,0,0,.12-1.45,4.41,4.41,0,0,0-.86,1.17c-.19.52-.09.74.12.81S296.73,64,296.93,63.46Z"/>
            <path class="cls-20" d="M308.77,65.81a4.65,4.65,0,0,1,.86-1.17,4.47,4.47,0,0,1-.12,1.45c-.19.51-.42.61-.62.53S308.58,66.32,308.77,65.81Z"/>
            <path class="cls-20" d="M302.38,65.11a4.41,4.41,0,0,1,.86-1.17,4.53,4.53,0,0,1-.13,1.44c-.19.51-.42.61-.62.54S302.18,65.62,302.38,65.11Z"/>
            <path class="cls-20" d="M283.11,63.89a4.53,4.53,0,0,0,.13-1.44,4.23,4.23,0,0,0-.86,1.17c-.2.51-.09.73.11.81S282.92,64.4,283.11,63.89Z"/>
            <path class="cls-20" d="M289,66.56a4.29,4.29,0,0,0,.13-1.45,4.41,4.41,0,0,0-.86,1.17c-.19.51-.09.73.11.81S288.76,67.07,289,66.56Z"/>
            <path class="cls-20" d="M295.4,69.32a4.24,4.24,0,0,0,.13-1.44,4.23,4.23,0,0,0-.86,1.17c-.19.51-.09.73.11.81S295.21,69.83,295.4,69.32Z"/>
            <path class="cls-20" d="M300.85,71a4.41,4.41,0,0,1,.86-1.17,4.42,4.42,0,0,1-.12,1.44c-.2.51-.42.61-.62.54S300.66,71.48,300.85,71Z"/>
            <path class="cls-20" d="M287.43,72.42a4.59,4.59,0,0,0,.13-1.45,4.41,4.41,0,0,0-.86,1.17c-.2.51-.09.73.11.81S287.24,72.93,287.43,72.42Z"/>
            <path class="cls-20" d="M293.88,75.18a4.53,4.53,0,0,0,.13-1.44,4.41,4.41,0,0,0-.86,1.17c-.2.51-.09.73.11.81S293.69,75.69,293.88,75.18Z"/>
            <path class="cls-20" d="M299.33,76.83a4.41,4.41,0,0,1,.86-1.17,4.31,4.31,0,0,1-.13,1.45c-.19.51-.41.6-.62.53S299.14,77.34,299.33,76.83Z"/>
            <path class="cls-20" d="M284.33,70.45a4.42,4.42,0,0,0,.12-1.44,4.65,4.65,0,0,0-.86,1.17c-.19.51-.08.73.12.81S284.14,71,284.33,70.45Z"/>
            <path class="cls-20" d="M288,78.73a4.47,4.47,0,0,0,.12-1.45,4.41,4.41,0,0,0-.86,1.17c-.19.51-.09.74.12.81S287.82,79.24,288,78.73Z"/>
            <path class="cls-20" d="M294.12,79.9a4.47,4.47,0,0,0,.12-1.45,4.41,4.41,0,0,0-.86,1.17c-.19.51-.09.73.11.81S293.92,80.41,294.12,79.9Z"/>
            <path class="cls-20" d="M305.7,71.74a4.34,4.34,0,0,1,.86-1.18,4.29,4.29,0,0,1-.13,1.45c-.19.51-.41.61-.62.53S305.51,72.25,305.7,71.74Z"/>
            <path class="cls-20" d="M311.9,69.1a4.41,4.41,0,0,1,.86-1.17,4.59,4.59,0,0,1-.13,1.45c-.19.51-.41.61-.62.53S311.71,69.61,311.9,69.1Z"/>
            <path class="cls-20" d="M323.16,54.84a4.65,4.65,0,0,1,.86-1.17,4.42,4.42,0,0,1-.12,1.44c-.19.51-.42.61-.62.54S323,55.35,323.16,54.84Z"/>
            <path class="cls-20" d="M325.18,48.37A4.41,4.41,0,0,1,326,47.2a4.42,4.42,0,0,1-.12,1.44c-.2.51-.42.61-.62.54S325,48.88,325.18,48.37Z"/>
            <ellipse class="cls-25" cx="309.93" cy="23.5" rx="1.74" ry="5.28" transform="translate(242.34 326.88) rotate(-81.78)"/>
        </g>
        <g id="ice">
            <rect class="cls-26" x="250.41" y="95.21" width="47.27" height="50.95" transform="translate(-21.17 70.55) rotate(-14.13)"/>
            <rect class="cls-26" x="230.37" y="201.25" width="47.27" height="50.95" transform="translate(-66.28 111.24) rotate(-21.92)"/>
            <rect class="cls-26" x="186.87" y="136.86" width="47.27" height="50.95" transform="translate(-14.29 20.44) rotate(-5.38)"/>
            <rect class="cls-26" x="183.27" y="196.94" width="47.27" height="50.95" transform="translate(-89.51 288.85) rotate(-59.7)"/>
            <rect class="cls-26" x="198.05" y="86.94" width="47.27" height="50.95" transform="translate(47.13 -64.54) rotate(18.5)"/>
            <rect class="cls-26" x="279.55" y="193.02" width="47.27" height="50.95" transform="translate(-44.16 80.62) rotate(-14.13)"/>
            <rect class="cls-26" x="238.11" y="145.69" width="47.27" height="50.95" transform="translate(-46.72 222.7) rotate(-42.67)"/>
        </g>
    </g>
</svg>