<svg xmlns="http://www.w3.org/2000/svg" viewBox="0 0 500 500">
    <defs>
        <style>.cls-1{opacity:0;}.cls-2{fill:#c1272d;}.cls-26,.cls-3{fill:#fff;}.cls-4{fill:#f8ff6a;}.cls-5{fill:#f7f7f7;}.cls-6{fill:#fdffad;}.cls-7{fill:#30ab14;}.cls-8{fill:#dce06c;}.cls-9{fill:#f7931e;}.cls-10{fill:#f7cc6f;}.cls-11{fill:#faff96;}.cls-12{fill:#f4ff1f;}.cls-13{fill:#8c6239;}.cls-14{fill:#6b4b2c;}.cls-15,.cls-16{fill:none;stroke-miterlimit:10;}.cls-15{stroke:#754c24;}.cls-16{stroke:#004203;stroke-linecap:round;stroke-width:2px;}.cls-17{fill:#691518;}.cls-18{fill:#ff5559;}.cls-19{fill:#a62226;}.cls-20{fill:#a2b400;}.cls-21{fill:#197d38;}.cls-22{fill:#166b2f;}.cls-23{fill:#1d8f3f;}.cls-24{fill:#22a649;}.cls-25{fill:#7ca622;}.cls-26{opacity:0.3;}</style>
    </defs>
    <title>highball</title>
    <g id="Layer_2" data-name="Layer 2">
        <g id="base" class="cls-1">
            <rect class="cls-2" width="500" height="500"/>
        </g>
        <g id="glass">
            <path class="cls-3" d="M151,44l24.09,411S208,466,250,466s74.91-11,74.91-11L349,44Z"/>
        </g>
        <g id="cuts">
            <path class="cls-3" d="M314.56,376H185.44c1.68,21.22,2.74,34.48,2.74,34.48S195.91,418,250,418s61.82-7.52,61.82-7.52S312.88,397.22,314.56,376Z"/>
            <path class="cls-3" d="M314.56,376c.93-11.83,2.05-26.13,3.28-42H182.16c1.23,15.87,2.35,30.17,3.28,42Z"/>
            <path class="cls-3" d="M317.84,334c1-13.11,2.12-27.28,3.24-42H178.92c1.12,14.72,2.22,28.89,3.24,42Z"/>
            <path class="cls-3" d="M321.08,292c1-13.67,2.11-27.8,3.17-42H175.75c1.06,14.2,2.13,28.33,3.17,42Z"/>
            <path class="cls-3" d="M324.25,250c1.05-14.08,2.09-28.21,3.09-42H172.66c1,13.79,2,27.92,3.09,42Z"/>
            <path class="cls-3" d="M327.34,208c1.05-14.54,2.06-28.7,3-42H169.69c.91,13.3,1.92,27.46,3,42Z"/>
            <path class="cls-3" d="M330.31,166c1.06-15.39,2-29.63,2.74-42H167c.75,12.37,1.68,26.61,2.74,42Z"/>
            <path class="cls-3" d="M333.05,124c1.21-19.86,1.95-34.87,1.95-42H165c0,7.13.74,22.14,1.95,42Z"/>
        </g>
        <g id="lemon">
            <path class="cls-4" d="M131,21C100,38.71,88.3,76.74,105,106L217.37,41.85C200.71,12.64,162,3.3,131,21Z"/>
            <path class="cls-5" d="M133.53,26c-27.81,15.86-38.1,50.21-23,76.73L211.27,45.33C196.15,18.81,161.34,10.17,133.53,26Z"/>
            <path class="cls-6" d="M135.85,28.29C109.26,43.46,99.28,76,113.55,101.06l96.28-54.91C195.56,21.13,162.44,13.13,135.85,28.29Z"/>
            <polygon class="cls-5" points="105.4 83.99 160.99 73.99 105.09 80.88 105.4 83.99"/>
            <polyline class="cls-5" points="117.65 41.09 115.7 43.53 160.56 73.6"/>
            <polygon class="cls-5" points="153.06 19.81 161.05 72.48 150.02 20.54 153.06 19.81"/>
            <polygon class="cls-5" points="194.02 28.04 160.84 73.59 191.37 26.41 194.02 28.04"/>
            <path class="cls-5" d="M164.75,71.86a4.32,4.32,0,0,0-.65-.89,4.38,4.38,0,0,0-6.26-.19,4.52,4.52,0,0,0-.68,5.41Z"/>
        </g>
        <g id="lime">
            <path class="cls-7" d="M130.62,21.84c-31.17,17.78-42.88,56-26.15,85.32l112.9-64.38C200.64,13.44,161.8,4.06,130.62,21.84Z"/>
            <path class="cls-5" d="M133.17,26.89C105.23,42.82,94.9,77.32,110.09,104L211.25,46.27C196.06,19.64,161.1,11,133.17,26.89Z"/>
            <path class="cls-8" d="M135.5,29.16c-26.71,15.23-36.74,48-22.4,73.08L209.8,47.1C195.47,22,162.2,13.93,135.5,29.16Z"/>
            <polygon class="cls-5" points="104.91 85.1 160.75 75.06 104.6 81.98 104.91 85.1"/>
            <polyline class="cls-5" points="117.21 42.01 115.26 44.46 160.31 74.66"/>
            <polygon class="cls-5" points="152.78 20.64 160.8 73.54 149.73 21.37 152.78 20.64"/>
            <polygon class="cls-5" points="193.92 28.91 160.6 74.65 191.25 27.26 193.92 28.91"/>
            <path class="cls-5" d="M164.52,72.92a4.33,4.33,0,0,0-.66-.9,4.39,4.39,0,0,0-6.28-.19,4.53,4.53,0,0,0-.68,5.43Z"/>
        </g>
        <g id="orange">
            <path class="cls-9" d="M130.5,21.58c-31.38,17.9-43.17,56.36-26.32,85.9L217.84,42.66C201,13.12,161.89,3.69,130.5,21.58Z"/>
            <path class="cls-5" d="M133.07,26.66c-28.12,16-38.53,50.78-23.23,77.59L211.67,46.18C196.38,19.37,161.19,10.63,133.07,26.66Z"/>
            <path class="cls-10" d="M135.41,29c-26.88,15.33-37,48.27-22.55,73.58L210.22,47C195.79,21.71,162.3,13.62,135.41,29Z"/>
            <polygon class="cls-5" points="104.62 85.27 160.83 75.16 104.31 82.13 104.62 85.27"/>
            <polyline class="cls-5" points="117 41.89 115.03 44.36 160.4 74.76"/>
            <polygon class="cls-5" points="152.81 20.37 160.89 73.63 149.74 21.11 152.81 20.37"/>
            <polygon class="cls-5" points="194.23 28.7 160.68 74.75 191.54 27.04 194.23 28.7"/>
            <path class="cls-5" d="M164.63,73a5.06,5.06,0,0,0-.66-.9,4.42,4.42,0,0,0-6.32-.19,4.56,4.56,0,0,0-.69,5.47Z"/>
        </g>
        <g id="lemon_zest" data-name="lemon zest">
            <polygon class="cls-11" points="362.34 67.65 374.99 64.4 346.44 15.3 333.78 18.55 362.34 67.65"/>
            <polygon class="cls-11" points="332.44 75.34 345.09 72.09 316.53 22.99 303.88 26.24 332.44 75.34"/>
            <polygon class="cls-11" points="302.56 83.16 315.22 79.91 286.66 30.81 274.01 34.06 302.56 83.16"/>
            <polygon class="cls-12" points="363.69 10.87 376.34 7.62 374.99 64.4 362.34 67.65 363.69 10.87"/>
            <polyline class="cls-12" points="346.44 15.3 345.09 72.09 332.44 75.34 333.78 18.55"/>
            <polyline class="cls-12" points="316.57 23.13 315.22 79.91 302.56 83.16 303.91 26.38"/>
            <polyline class="cls-12" points="286.66 30.81 285.31 87.59 272.66 90.84 274.01 34.06"/>
        </g>
        <g id="cinnamon">
            <path class="cls-13" d="M137.92,32.15c1-3.43-.29-6.86-2.82-7.66s-5.36,1.32-6.33,4.74L132.51,16c-1.08,3.82.09,7.58,2.61,8.38s5.46-1.64,6.54-5.47-.09-7.59-2.62-8.39L301.8,62.34l-7.45,26.34L131.59,36.89C134.12,37.7,137,35.57,137.92,32.15Z"/>
            <ellipse class="cls-14" cx="137.08" cy="17.48" rx="7.21" ry="4.8" transform="translate(86.25 145.99) rotate(-75.69)"/>
            <ellipse class="cls-14" cx="133.35" cy="30.69" rx="6.45" ry="4.8" transform="translate(72.39 153.2) rotate(-76.51)"/>
            <ellipse class="cls-13" cx="299.19" cy="69.06" rx="7.21" ry="4.8" transform="translate(158.3 341.88) rotate(-75.69)"/>
            <ellipse class="cls-13" cx="295.45" cy="82.27" rx="6.45" ry="4.8" transform="translate(146.52 350.37) rotate(-76.51)"/>
            <line class="cls-15" x1="134.47" y1="24.21" x2="296.57" y2="75.79"/>
        </g>
        <g id="cherry">
            <path class="cls-2" d="M273.34,77.9c1.87-7.71-2.65-15.16-10.09-16.64a15.2,15.2,0,0,0-8.67.86c-2-1.74-4.94-3.77-7.49-4.08A15.18,15.18,0,0,0,230.25,69.3a23.32,23.32,0,0,0-.34,10.75c.89,4,7.62,13,16.75,14.78,8.26,1.65,17.7-3,20.66-6A23.93,23.93,0,0,0,273.34,77.9Z"/>
            <path class="cls-16" d="M253.25,64.58s3.79-20.24,11.08-36.4S276.79,9.46,276.79,9.46c.62,3.52,1,3.14,1,3.14"/>
            <path class="cls-17" d="M250.8,62.17a4.31,4.31,0,0,0,.36,1.81,2,2,0,0,0,1.35.75,4.78,4.78,0,0,0,1.78.21,16.31,16.31,0,0,0,1.94-.32,4.11,4.11,0,0,1-1.79,1.08,3.29,3.29,0,0,1-1.1.17,8,8,0,0,1-1.07-.17,4,4,0,0,1-1.05-.43,1.79,1.79,0,0,1-.77-1A2.61,2.61,0,0,1,250.8,62.17Z"/>
            <path class="cls-18" d="M237.48,64.3a23.84,23.84,0,0,0-3.15,13,9.45,9.45,0,0,1-.71-3.45,13.18,13.18,0,0,1,.38-3.53,13.42,13.42,0,0,1,1.3-3.3A9.93,9.93,0,0,1,237.48,64.3Z"/>
        </g>
        <g id="strawberry">
            <path class="cls-19" d="M350.58,54.65c-7.13,19.23-35.31,41-45.1,37.25s-16.83-39-9.71-58.24,20.38-17.19,35.52-11.39S357.71,35.42,350.58,54.65Z"/>
            <path class="cls-20" d="M302.51,30.88a5.37,5.37,0,0,0,.15-1.74,5.31,5.31,0,0,0-1,1.41c-.23.61-.11.88.13,1S302.28,31.5,302.51,30.88Z"/>
            <path class="cls-20" d="M307.5,34.06a5.37,5.37,0,0,0,.15-1.74,5.31,5.31,0,0,0-1,1.41c-.23.61-.11.88.14,1S307.27,34.68,307.5,34.06Z"/>
            <path class="cls-20" d="M314.43,37.27a5.57,5.57,0,0,0,.14-1.74,5.31,5.31,0,0,0-1,1.41c-.22.62-.1.88.14,1S314.2,37.89,314.43,37.27Z"/>
            <path class="cls-20" d="M322.07,40.6a5.37,5.37,0,0,0,.15-1.74,5.5,5.5,0,0,0-1,1.41c-.23.62-.11.88.13,1S321.84,41.22,322.07,40.6Z"/>
            <path class="cls-20" d="M343.81,46.7a5.31,5.31,0,0,1,1-1.41,5.37,5.37,0,0,1-.15,1.74c-.22.62-.49.73-.73.64S343.59,47.31,343.81,46.7Z"/>
            <path class="cls-20" d="M337.59,45.5a5.31,5.31,0,0,1,1-1.41,5.37,5.37,0,0,1-.15,1.74c-.23.62-.49.73-.73.64S337.36,46.11,337.59,45.5Z"/>
            <path class="cls-20" d="M330.3,43.27a5.31,5.31,0,0,1,1-1.41,5.39,5.39,0,0,1-.15,1.74c-.22.61-.49.73-.73.64S330.08,43.88,330.3,43.27Z"/>
            <path class="cls-20" d="M299.56,36.14a5.37,5.37,0,0,0,.15-1.74,5.31,5.31,0,0,0-1,1.41c-.22.62-.1.88.14,1S299.34,36.76,299.56,36.14Z"/>
            <path class="cls-20" d="M304.52,40.76a5.37,5.37,0,0,0,.15-1.74,5.5,5.5,0,0,0-1,1.41c-.23.62-.11.88.13,1S304.29,41.38,304.52,40.76Z"/>
            <path class="cls-20" d="M312.62,44.33a5.37,5.37,0,0,0,.15-1.74,5.31,5.31,0,0,0-1,1.41c-.23.62-.11.88.13,1S312.39,45,312.62,44.33Z"/>
            <path class="cls-20" d="M320.26,47.66a5.37,5.37,0,0,0,.15-1.74,5.5,5.5,0,0,0-1,1.41c-.23.62-.1.88.14,1S320,48.28,320.26,47.66Z"/>
            <path class="cls-20" d="M342,53.76a5.31,5.31,0,0,1,1-1.41,5.37,5.37,0,0,1-.15,1.74c-.23.62-.5.74-.74.64S341.78,54.37,342,53.76Z"/>
            <path class="cls-20" d="M334.47,50.87a5.5,5.5,0,0,1,1-1.41,5.44,5.44,0,0,1-.15,1.75c-.22.61-.49.73-.73.64S334.25,51.49,334.47,50.87Z"/>
            <path class="cls-21" d="M332,22.06s-6.34-13.25-19.7-7.54-19.93,3.19-19.93,3.19S302,32.22,313.61,31.25,330.25,26.8,332,22.06Z"/>
            <path class="cls-22" d="M324.53,24.19s10.83-12.87,19.41-5.94,15.05,5,15.05,5-14.07,13.86-23.22,11.87S324,29.14,324.53,24.19Z"/>
            <path class="cls-21" d="M330,21.3s13.36-5.7,19.69,7.55,12.91,15.76,12.91,15.76S346,49.06,337.89,40.55,328.27,26,330,21.3Z"/>
            <path class="cls-23" d="M329.16,19.36s-11.63-6.54-20.5,4.22S293,35.75,293,35.75s15.05,5.83,24.61-.61S329.85,23.68,329.16,19.36Z"/>
            <path class="cls-24" d="M329.15,19.13s14.48,3.45,12.56,15.8S344,52.56,344,52.56s-16.57-6.08-18.75-16.21S325.05,21.35,329.15,19.13Z"/>
            <path class="cls-20" d="M326.72,49.65a5.31,5.31,0,0,1,1-1.41,5.39,5.39,0,0,1-.15,1.74c-.23.61-.49.73-.73.64S326.49,50.26,326.72,49.65Z"/>
            <path class="cls-20" d="M296.71,43.85a5.44,5.44,0,0,0,.15-1.75,5.5,5.5,0,0,0-1,1.41c-.23.62-.11.89.13,1S296.48,44.46,296.71,43.85Z"/>
            <path class="cls-20" d="M303,47.46a5.44,5.44,0,0,0,.15-1.75,5.5,5.5,0,0,0-1,1.41c-.23.62-.1.89.14,1S302.81,48.07,303,47.46Z"/>
            <path class="cls-20" d="M310.81,51.39a5.37,5.37,0,0,0,.15-1.74,5.31,5.31,0,0,0-1,1.41c-.22.62-.1.88.14,1S310.59,52,310.81,51.39Z"/>
            <path class="cls-20" d="M318.46,54.72a5.37,5.37,0,0,0,.15-1.74,5.5,5.5,0,0,0-1,1.41c-.23.62-.11.88.13,1S318.23,55.34,318.46,54.72Z"/>
            <path class="cls-20" d="M340.2,60.82a5.31,5.31,0,0,1,1-1.41,5.37,5.37,0,0,1-.15,1.74c-.22.62-.49.74-.73.64S340,61.43,340.2,60.82Z"/>
            <path class="cls-20" d="M332.5,57.55a5.5,5.5,0,0,1,1-1.41,5.44,5.44,0,0,1-.15,1.75c-.23.61-.5.73-.74.64S332.27,58.17,332.5,57.55Z"/>
            <path class="cls-20" d="M324.92,56.71a5.09,5.09,0,0,1,1-1.41,5.71,5.71,0,0,1-.15,1.74c-.23.61-.5.73-.74.64S324.69,57.32,324.92,56.71Z"/>
            <path class="cls-20" d="M295.82,54.17a5.64,5.64,0,0,0,.14-1.75,5.5,5.5,0,0,0-1,1.41c-.22.62-.1.89.14,1S295.59,54.78,295.82,54.17Z"/>
            <path class="cls-20" d="M302.08,55.24a5.37,5.37,0,0,0,.15-1.74,5.31,5.31,0,0,0-1,1.41c-.23.62-.1.88.14,1S301.86,55.86,302.08,55.24Z"/>
            <path class="cls-20" d="M309,58.45a5.37,5.37,0,0,0,.15-1.74,5.5,5.5,0,0,0-1,1.41c-.23.62-.11.88.13,1S308.78,59.07,309,58.45Z"/>
            <path class="cls-20" d="M316.65,61.78A5.37,5.37,0,0,0,316.8,60a5.5,5.5,0,0,0-1,1.41c-.23.62-.1.88.14,1S316.42,62.4,316.65,61.78Z"/>
            <path class="cls-20" d="M338.4,67.88a5.09,5.09,0,0,1,1-1.41,5.37,5.37,0,0,1-.15,1.74c-.23.62-.5.74-.74.64S338.17,68.49,338.4,67.88Z"/>
            <path class="cls-20" d="M330.69,64.61a5.5,5.5,0,0,1,1-1.41,5.44,5.44,0,0,1-.15,1.75c-.22.61-.49.73-.73.64S330.46,65.23,330.69,64.61Z"/>
            <path class="cls-20" d="M323.11,63.77a5.31,5.31,0,0,1,1-1.41A5.39,5.39,0,0,1,324,64.1c-.23.61-.49.73-.73.64S322.88,64.38,323.11,63.77Z"/>
            <path class="cls-20" d="M296.25,63.08a5.69,5.69,0,0,0,.15-1.74,5.26,5.26,0,0,0-1,1.41c-.23.62-.11.88.13,1S296,63.7,296.25,63.08Z"/>
            <path class="cls-20" d="M300.28,62.3a5.37,5.37,0,0,0,.15-1.74,5.31,5.31,0,0,0-1,1.41c-.23.62-.11.88.13,1S300.05,62.92,300.28,62.3Z"/>
            <path class="cls-20" d="M307.2,65.51a5.37,5.37,0,0,0,.15-1.74,5.5,5.5,0,0,0-1,1.41c-.23.62-.1.88.14,1S307,66.13,307.2,65.51Z"/>
            <path class="cls-20" d="M314.85,68.84A5.69,5.69,0,0,0,315,67.1a5.26,5.26,0,0,0-1,1.41c-.23.62-.11.88.13,1S314.62,69.46,314.85,68.84Z"/>
            <path class="cls-20" d="M328.89,71.67a5.5,5.5,0,0,1,1-1.41,5.44,5.44,0,0,1-.15,1.75c-.23.61-.5.73-.74.64S328.66,72.29,328.89,71.67Z"/>
            <path class="cls-20" d="M321.31,70.83a5.13,5.13,0,0,1,1-1.41,5.58,5.58,0,0,1-.14,1.74c-.23.61-.5.73-.74.64S321.08,71.44,321.31,70.83Z"/>
            <path class="cls-20" d="M298.47,69.36a5.37,5.37,0,0,0,.15-1.74,5.31,5.31,0,0,0-1,1.41c-.23.62-.1.88.14,1S298.24,70,298.47,69.36Z"/>
            <path class="cls-20" d="M305.4,72.57a5.37,5.37,0,0,0,.15-1.74,5.5,5.5,0,0,0-1,1.41c-.23.62-.11.88.13,1S305.17,73.19,305.4,72.57Z"/>
            <path class="cls-20" d="M313,75.9a5.37,5.37,0,0,0,.15-1.74,5.5,5.5,0,0,0-1,1.41c-.23.62-.1.88.14,1S312.81,76.52,313,75.9Z"/>
            <path class="cls-20" d="M319.5,77.89a5.31,5.31,0,0,1,1-1.41,5.39,5.39,0,0,1-.15,1.74c-.23.62-.49.73-.73.64S319.27,78.5,319.5,77.89Z"/>
            <path class="cls-20" d="M303.59,79.63a5.37,5.37,0,0,0,.15-1.74,5.5,5.5,0,0,0-1,1.41c-.23.62-.1.88.14,1S303.36,80.25,303.59,79.63Z"/>
            <path class="cls-20" d="M311.24,83a5.57,5.57,0,0,0,.14-1.74,5.31,5.31,0,0,0-1,1.41c-.23.62-.11.88.13,1S311,83.58,311.24,83Z"/>
            <path class="cls-20" d="M317.69,85a5.31,5.31,0,0,1,1-1.41,5.39,5.39,0,0,1-.15,1.74c-.22.62-.49.73-.73.64S317.47,85.56,317.69,85Z"/>
            <path class="cls-20" d="M299.92,77.27a5.76,5.76,0,0,0,.15-1.75,5.26,5.26,0,0,0-1,1.41c-.23.62-.11.89.13,1S299.69,77.88,299.92,77.27Z"/>
            <path class="cls-20" d="M304.29,87.24a5.44,5.44,0,0,0,.15-1.75,5.5,5.5,0,0,0-1,1.41c-.23.62-.11.89.13,1S304.06,87.85,304.29,87.24Z"/>
            <path class="cls-20" d="M311.51,88.64a5.37,5.37,0,0,0,.15-1.74,5.5,5.5,0,0,0-1,1.41c-.22.62-.1.88.14,1S311.29,89.26,311.51,88.64Z"/>
            <path class="cls-20" d="M325.24,78.81a5.5,5.5,0,0,1,1-1.41,5.37,5.37,0,0,1-.15,1.74c-.22.62-.49.74-.73.65S325,79.43,325.24,78.81Z"/>
            <path class="cls-20" d="M332.59,75.64a5.31,5.31,0,0,1,1-1.41,5.37,5.37,0,0,1-.15,1.74c-.23.62-.49.74-.73.64S332.36,76.25,332.59,75.64Z"/>
            <path class="cls-20" d="M345.94,58.46a5.31,5.31,0,0,1,1-1.41,5.39,5.39,0,0,1-.15,1.74c-.22.61-.49.73-.73.64S345.71,59.07,345.94,58.46Z"/>
            <path class="cls-20" d="M348.33,50.66a5.5,5.5,0,0,1,1-1.41A5.37,5.37,0,0,1,349.2,51c-.22.62-.49.74-.73.65S348.11,51.28,348.33,50.66Z"/>
            <ellipse class="cls-25" cx="330.26" cy="20.7" rx="2.09" ry="6.26" transform="translate(261.59 344.41) rotate(-81.61)"/>
        </g>
        <g id="ice">
            <rect class="cls-26" x="182.87" y="188.86" width="47.27" height="50.95" transform="translate(-46.07 56.89) rotate(-14.13)"/>
            <rect class="cls-26" x="268.75" y="158.39" width="47.27" height="50.95" transform="translate(-47.5 122.47) rotate(-21.92)"/>
            <rect class="cls-26" x="220.45" y="224.53" width="47.27" height="50.95" transform="translate(-104.83 231.6) rotate(-42.67)"/>
            <rect class="cls-26" x="271.75" y="217.46" width="47.27" height="50.95" transform="translate(92.36 -81.18) rotate(18.5)"/>
            <rect class="cls-26" x="182.87" y="130.86" width="47.27" height="50.95" transform="translate(-13.74 20.04) rotate(-5.38)"/>
            <rect class="cls-26" x="276.35" y="88.56" width="47.27" height="50.95" transform="translate(50.18 315.51) rotate(-59.7)"/>
            <rect class="cls-26" x="173.64" y="80.94" width="47.27" height="50.95" transform="translate(43.96 -57.1) rotate(18.5)"/>
            <rect class="cls-26" x="229.97" y="89.84" width="47.27" height="50.95" transform="translate(-20.48 65.39) rotate(-14.13)"/>
            <rect class="cls-26" x="234.11" y="156.55" width="47.27" height="50.95" transform="translate(-55.14 222.86) rotate(-42.67)"/>
        </g>
    </g>
</svg>