<svg xmlns="http://www.w3.org/2000/svg" viewBox="0 0 500 500"><defs><style>.cls-1{opacity:0;}.cls-2{fill:#c1272d;}.cls-3{fill:#fff;}.cls-14,.cls-15,.cls-4{fill:none;}.cls-5{fill:#f8ff6a;}.cls-6{fill:#f7f7f7;}.cls-7{fill:#fdffad;}.cls-8{fill:#30ab14;}.cls-9{fill:#dce06c;}.cls-10{fill:#f7931e;}.cls-11{fill:#f7cc6f;}.cls-12{fill:#8c6239;}.cls-13{fill:#6b4b2c;}.cls-14{stroke:#754c24;}.cls-14,.cls-15{stroke-miterlimit:10;}.cls-15{stroke:#004203;stroke-linecap:round;stroke-width:2px;}.cls-16{fill:#691518;}.cls-17{fill:#ff5559;}</style></defs><title>high-ball_whole</title><g id="Layer_2" data-name="Layer 2"><g id="base" class="cls-1"><rect class="cls-2" width="500" height="500"/></g><g id="glass"><path class="cls-3" d="M151,44l24.09,411S208,466,250,466s74.91-11,74.91-11L349,44Z"/></g><g id="whole"><path class="cls-4" d="M165,82c0,40,23.18,328.48,23.18,328.48S195.91,418,250,418s61.82-7.52,61.82-7.52S335,122,335,82Z"/></g><g id="lemon"><path class="cls-5" d="M131,21C100,38.71,88.3,76.74,105,106L217.37,41.85C200.71,12.64,162,3.3,131,21Z"/><path class="cls-6" d="M133.53,26c-27.81,15.86-38.1,50.21-23,76.73L211.27,45.33C196.15,18.81,161.34,10.17,133.53,26Z"/><path class="cls-7" d="M135.85,28.29C109.26,43.46,99.28,76,113.55,101.06l96.28-54.91C195.56,21.13,162.44,13.13,135.85,28.29Z"/><polygon class="cls-6" points="105.4 83.99 160.99 73.99 105.09 80.88 105.4 83.99"/><polyline class="cls-6" points="117.65 41.09 115.7 43.53 160.56 73.6"/><polygon class="cls-6" points="153.06 19.81 161.05 72.48 150.02 20.54 153.06 19.81"/><polygon class="cls-6" points="194.02 28.04 160.84 73.59 191.37 26.41 194.02 28.04"/><path class="cls-6" d="M164.75,71.86a4.32,4.32,0,0,0-.65-.89,4.38,4.38,0,0,0-6.26-.19,4.52,4.52,0,0,0-.68,5.41Z"/></g><g id="lime"><path class="cls-8" d="M130.62,21.84c-31.17,17.78-42.88,56-26.15,85.32l112.9-64.38C200.64,13.44,161.8,4.06,130.62,21.84Z"/><path class="cls-6" d="M133.17,26.89C105.23,42.82,94.9,77.32,110.09,104L211.25,46.27C196.06,19.64,161.1,11,133.17,26.89Z"/><path class="cls-9" d="M135.5,29.16c-26.71,15.23-36.74,48-22.4,73.08L209.8,47.1C195.47,22,162.2,13.93,135.5,29.16Z"/><polygon class="cls-6" points="104.91 85.1 160.75 75.06 104.6 81.98 104.91 85.1"/><polyline class="cls-6" points="117.21 42.01 115.26 44.46 160.31 74.66"/><polygon class="cls-6" points="152.78 20.64 160.8 73.54 149.73 21.37 152.78 20.64"/><polygon class="cls-6" points="193.92 28.91 160.6 74.65 191.25 27.26 193.92 28.91"/><path class="cls-6" d="M164.52,72.92a4.33,4.33,0,0,0-.66-.9,4.39,4.39,0,0,0-6.28-.19,4.53,4.53,0,0,0-.68,5.43Z"/></g><g id="orange"><path class="cls-10" d="M130.5,21.58c-31.38,17.9-43.17,56.36-26.32,85.9L217.84,42.66C201,13.12,161.89,3.69,130.5,21.58Z"/><path class="cls-6" d="M133.07,26.66c-28.12,16-38.53,50.78-23.23,77.59L211.67,46.18C196.38,19.37,161.19,10.63,133.07,26.66Z"/><path class="cls-11" d="M135.41,29c-26.88,15.33-37,48.27-22.55,73.58L210.22,47C195.79,21.71,162.3,13.62,135.41,29Z"/><polygon class="cls-6" points="104.62 85.27 160.83 75.16 104.31 82.13 104.62 85.27"/><polyline class="cls-6" points="117 41.89 115.03 44.36 160.4 74.76"/><polygon class="cls-6" points="152.81 20.37 160.89 73.63 149.74 21.11 152.81 20.37"/><polygon class="cls-6" points="194.23 28.7 160.68 74.75 191.54 27.04 194.23 28.7"/><path class="cls-6" d="M164.63,73a5.06,5.06,0,0,0-.66-.9,4.42,4.42,0,0,0-6.32-.19,4.56,4.56,0,0,0-.69,5.47Z"/></g><g id="cinnamon"><path class="cls-12" d="M361.69,29.61c-1-3.43.3-6.86,2.82-7.66s5.36,1.32,6.33,4.75l-3.73-13.21c1.08,3.83-.09,7.58-2.62,8.39S359,20.23,358,16.4,358,8.82,360.57,8L197.81,59.8l7.46,26.34L368,34.36C365.49,35.16,362.66,33,361.69,29.61Z"/><ellipse class="cls-13" cx="362.53" cy="14.94" rx="4.8" ry="7.21" transform="translate(7.56 90.1) rotate(-14.31)"/><ellipse class="cls-13" cx="366.27" cy="28.15" rx="4.8" ry="6.45" transform="translate(3.54 86.23) rotate(-13.49)"/><ellipse class="cls-12" cx="200.43" cy="66.52" rx="4.8" ry="7.21" transform="translate(-10.22 51.62) rotate(-14.31)"/><ellipse class="cls-12" cx="204.17" cy="79.73" rx="4.8" ry="6.45" transform="translate(-12.97 49.83) rotate(-13.49)"/><line class="cls-14" x1="365.15" y1="21.67" x2="203.04" y2="73.25"/></g><g id="cherry"><path class="cls-2" d="M273.34,77.9c1.87-7.71-2.65-15.16-10.09-16.64a15.2,15.2,0,0,0-8.67.86c-2-1.74-4.94-3.77-7.49-4.08A15.18,15.18,0,0,0,230.25,69.3a23.32,23.32,0,0,0-.34,10.75c.89,4,7.62,13,16.75,14.78,8.26,1.65,17.7-3,20.66-6A23.93,23.93,0,0,0,273.34,77.9Z"/><path class="cls-15" d="M253.25,64.58s3.79-20.24,11.08-36.4S276.79,9.46,276.79,9.46c.62,3.52,1,3.14,1,3.14"/><path class="cls-16" d="M250.8,62.17a4.31,4.31,0,0,0,.36,1.81,2,2,0,0,0,1.35.75,4.78,4.78,0,0,0,1.78.21,16.31,16.31,0,0,0,1.94-.32,4.11,4.11,0,0,1-1.79,1.08,3.29,3.29,0,0,1-1.1.17,8,8,0,0,1-1.07-.17,4,4,0,0,1-1.05-.43,1.79,1.79,0,0,1-.77-1A2.61,2.61,0,0,1,250.8,62.17Z"/><path class="cls-17" d="M237.48,64.3a23.84,23.84,0,0,0-3.15,13,9.45,9.45,0,0,1-.71-3.45,13.18,13.18,0,0,1,.38-3.53,13.42,13.42,0,0,1,1.3-3.3A9.93,9.93,0,0,1,237.48,64.3Z"/></g></g></svg>