<svg xmlns="http://www.w3.org/2000/svg" viewBox="0 0 500 500"><defs><style>.cls-1{opacity:0;}.cls-2{fill:#c1272d;}.cls-3{fill:#fff;}.cls-4{fill:none;}.cls-5{fill:#f8ff6a;}.cls-6{fill:#f7f7f7;}.cls-7{fill:#fdffad;}.cls-8{fill:#faff96;}.cls-9{fill:#f4ff1f;}.cls-10{fill:#a62226;}.cls-11{fill:#a2b400;}.cls-12{fill:#197d38;}.cls-13{fill:#166b2f;}.cls-14{fill:#1d8f3f;}.cls-15{fill:#22a649;}.cls-16{fill:#7ca622;}</style></defs><title>liqueur_whole</title><g id="Layer_2" data-name="Layer 2"><g id="base" class="cls-1"><rect class="cls-2" width="500" height="500"/></g><g id="glass"><path class="cls-3" d="M171.52,32.85h147s-9,13-14,34-9,58-9,103,.75,88-4,99c-6.25,8.25-30,18-30,40s-1,82.5-1,82.5,2,18.5,16,24.5,44,13,47,19a33,33,0,0,1,3,13s-30,7-78,7-85-11-85-11,0-11,5-14,36-9,42-16,17-13,18-23,0-67,0-84-23.5-31.5-29.5-39.5-4.28-45.5-4.28-96.5-2.77-93.66-7.22-106C181.52,49.85,176.52,41.85,171.52,32.85Z"/></g><g id="whole"><path class="cls-4" d="M195.27,62.67c7.5,21.34,6,81.37,8,126s-.5,63.95,7.76,72.6c0,0,5.74,11.24,33.74,11.24h.5c28,0,32.5-9.92,32.5-9.92,8.76-9.17,7-28.78,9-73.43s1-97.24,10-126.51C287.77,63.17,196.77,62.18,195.27,62.67Z"/></g><g id="lemon"><path class="cls-5" d="M154.26,17.6C125.34,34.09,114.48,69.53,130,96.75L234.73,37C219.21,9.81,183.18,1.11,154.26,17.6Z"/><path class="cls-6" d="M156.62,22.28c-25.91,14.78-35.49,46.79-21.4,71.49l93.83-53.51C215,15.56,182.53,7.51,156.62,22.28Z"/><path class="cls-7" d="M158.78,24.39C134,38.52,124.71,68.87,138,92.18L227.71,41C214.41,17.71,183.56,10.27,158.78,24.39Z"/><polygon class="cls-6" points="130.41 76.28 182.2 66.97 130.12 73.39 130.41 76.28"/><polyline class="cls-6" points="141.82 36.31 140.01 38.59 181.8 66.6"/><polygon class="cls-6" points="174.81 16.48 182.26 65.56 171.99 17.16 174.81 16.48"/><polygon class="cls-6" points="212.98 24.16 182.07 66.59 210.5 22.63 212.98 24.16"/><path class="cls-6" d="M185.71,65a4.43,4.43,0,0,0-.61-.83,4.07,4.07,0,0,0-5.83-.17,4.17,4.17,0,0,0-.63,5Z"/></g><g id="lemon_zest" data-name="lemon zest"><polygon class="cls-8" points="326.79 49.73 335.56 47.47 316.42 16.02 307.65 18.27 326.79 49.73"/><polygon class="cls-8" points="306.05 55.06 314.82 52.8 295.69 21.34 286.91 23.6 306.05 55.06"/><polygon class="cls-8" points="285.33 60.47 294.11 58.22 274.97 26.76 266.2 29.02 285.33 60.47"/><polygon class="cls-9" points="328.39 12.94 337.16 10.69 335.56 47.47 326.79 49.73 328.39 12.94"/><polyline class="cls-9" points="316.42 16.02 314.82 52.8 306.05 55.06 307.65 18.27"/><polyline class="cls-9" points="295.71 21.43 294.11 58.22 285.33 60.47 286.93 23.69"/><polyline class="cls-9" points="274.97 26.76 273.37 63.55 264.6 65.8 266.2 29.02"/></g><g id="strawberry"><path class="cls-10" d="M310,50.12c-6,16-29.8,34-38.06,30.93s-14.2-32.39-8.19-48.35,17.2-14.27,30-9.46S316,34.16,310,50.12Z"/><path class="cls-11" d="M269.44,30.39a4.47,4.47,0,0,0,.12-1.45,4.41,4.41,0,0,0-.86,1.17c-.19.51-.09.74.12.81S269.24,30.9,269.44,30.39Z"/><path class="cls-11" d="M273.65,33a4.47,4.47,0,0,0,.12-1.45,4.65,4.65,0,0,0-.86,1.17c-.19.51-.08.74.12.81S273.46,33.54,273.65,33Z"/><path class="cls-11" d="M279.49,35.7a4.6,4.6,0,0,0,.13-1.45,4.41,4.41,0,0,0-.86,1.17c-.2.51-.09.73.11.81S279.3,36.21,279.49,35.7Z"/><path class="cls-11" d="M285.94,38.46a4.59,4.59,0,0,0,.13-1.45,4.41,4.41,0,0,0-.86,1.17c-.2.51-.09.74.11.81S285.75,39,285.94,38.46Z"/><path class="cls-11" d="M304.29,43.52a4.41,4.41,0,0,1,.86-1.17A4.29,4.29,0,0,1,305,43.8c-.19.51-.41.61-.62.53S304.1,44,304.29,43.52Z"/><path class="cls-11" d="M299,42.52a4.41,4.41,0,0,1,.86-1.17,4.29,4.29,0,0,1-.13,1.45c-.19.51-.41.61-.62.53S298.85,43,299,42.52Z"/><path class="cls-11" d="M292.89,40.67a4.41,4.41,0,0,1,.86-1.17,4.29,4.29,0,0,1-.13,1.45c-.19.51-.41.61-.62.53S292.7,41.18,292.89,40.67Z"/><path class="cls-11" d="M267,34.76a4.59,4.59,0,0,0,.13-1.45,4.41,4.41,0,0,0-.86,1.17c-.19.51-.09.73.11.81S266.76,35.27,267,34.76Z"/><path class="cls-11" d="M271.13,38.59a4.24,4.24,0,0,0,.13-1.44,4.41,4.41,0,0,0-.86,1.17c-.19.51-.09.73.11.81S270.94,39.1,271.13,38.59Z"/><path class="cls-11" d="M278,41.56a4.47,4.47,0,0,0,.12-1.45,4.65,4.65,0,0,0-.86,1.17c-.19.51-.09.73.12.81S277.78,42.07,278,41.56Z"/><path class="cls-11" d="M284.42,44.32a4.47,4.47,0,0,0,.12-1.45,4.65,4.65,0,0,0-.86,1.17c-.19.52-.09.74.12.81S284.23,44.83,284.42,44.32Z"/><path class="cls-11" d="M302.77,49.38a4.41,4.41,0,0,1,.86-1.17,4.59,4.59,0,0,1-.13,1.45c-.19.51-.42.61-.62.53S302.57,49.89,302.77,49.38Z"/><path class="cls-11" d="M296.41,47a4.41,4.41,0,0,1,.86-1.17,4.59,4.59,0,0,1-.13,1.45c-.19.51-.42.61-.62.53S296.22,47.5,296.41,47Z"/><path class="cls-12" d="M294.33,23.07s-5.35-11-16.62-6.26-16.82,2.65-16.82,2.65S269,31.5,278.8,30.7,292.85,27,294.33,23.07Z"/><path class="cls-13" d="M288,24.83s9.15-10.68,16.39-4.93S317.09,24,317.09,24s-11.87,11.5-19.58,9.86S287.54,28.94,288,24.83Z"/><path class="cls-12" d="M292.66,22.44s11.27-4.74,16.62,6.26,10.88,13.09,10.88,13.09-14,3.69-20.87-3.37S291.17,26.37,292.66,22.44Z"/><path class="cls-14" d="M291.93,20.82s-9.82-5.42-17.3,3.51-13.26,10.1-13.26,10.1,12.7,4.84,20.77-.5S292.51,24.41,291.93,20.82Z"/><path class="cls-15" d="M291.92,20.63s12.21,2.86,10.59,13.12,1.91,14.64,1.91,14.64-14-5-15.82-13.46S288.46,22.48,291.92,20.63Z"/><path class="cls-11" d="M289.87,46a4.41,4.41,0,0,1,.86-1.17,4.53,4.53,0,0,1-.13,1.44c-.19.51-.42.61-.62.54S289.67,46.48,289.87,46Z"/><path class="cls-11" d="M264.54,41.15a4.24,4.24,0,0,0,.13-1.44,4.41,4.41,0,0,0-.86,1.17c-.19.51-.09.73.11.81S264.35,41.66,264.54,41.15Z"/><path class="cls-11" d="M269.88,44.15A4.59,4.59,0,0,0,270,42.7a4.59,4.59,0,0,0-.87,1.17c-.19.51-.08.74.12.81S269.69,44.66,269.88,44.15Z"/><path class="cls-11" d="M276.44,47.42a4.29,4.29,0,0,0,.13-1.45,4.41,4.41,0,0,0-.86,1.17c-.19.51-.09.73.11.81S276.25,47.93,276.44,47.42Z"/><path class="cls-11" d="M282.89,50.18a4.29,4.29,0,0,0,.13-1.45,4.34,4.34,0,0,0-.86,1.18c-.19.51-.09.73.11.81S282.7,50.69,282.89,50.18Z"/><path class="cls-11" d="M301.24,55.24a4.41,4.41,0,0,1,.86-1.17,4.47,4.47,0,0,1-.12,1.45c-.2.51-.42.61-.62.53S301.05,55.75,301.24,55.24Z"/><path class="cls-11" d="M294.74,52.53a4.41,4.41,0,0,1,.86-1.17,4.47,4.47,0,0,1-.12,1.45c-.2.51-.42.61-.62.53S294.55,53,294.74,52.53Z"/><path class="cls-11" d="M288.34,51.83a4.65,4.65,0,0,1,.86-1.17,4.42,4.42,0,0,1-.12,1.44c-.19.51-.42.61-.62.54S288.15,52.34,288.34,51.83Z"/><path class="cls-11" d="M263.79,49.72a4.47,4.47,0,0,0,.12-1.45,4.65,4.65,0,0,0-.86,1.17c-.19.51-.08.74.12.81S263.6,50.23,263.79,49.72Z"/><path class="cls-11" d="M269.08,50.61a4.42,4.42,0,0,0,.12-1.44,4.65,4.65,0,0,0-.86,1.17c-.19.51-.09.73.12.81S268.89,51.12,269.08,50.61Z"/><path class="cls-11" d="M274.92,53.28a4.59,4.59,0,0,0,.13-1.45,4.41,4.41,0,0,0-.86,1.17c-.2.51-.09.73.11.81S274.73,53.79,274.92,53.28Z"/><path class="cls-11" d="M281.37,56a4.53,4.53,0,0,0,.13-1.44,4.41,4.41,0,0,0-.86,1.17c-.2.51-.09.73.11.81S281.18,56.55,281.37,56Z"/><path class="cls-11" d="M299.72,61.1a4.41,4.41,0,0,1,.86-1.17,4.29,4.29,0,0,1-.13,1.45c-.19.51-.41.61-.62.53S299.53,61.61,299.72,61.1Z"/><path class="cls-11" d="M293.22,58.39a4.41,4.41,0,0,1,.86-1.17,4.59,4.59,0,0,1-.13,1.45c-.19.51-.41.61-.62.53S293,58.9,293.22,58.39Z"/><path class="cls-11" d="M286.82,57.69a4.41,4.41,0,0,1,.86-1.17,4.24,4.24,0,0,1-.13,1.44c-.19.52-.41.61-.62.54S286.63,58.2,286.82,57.69Z"/><path class="cls-11" d="M264.15,57.12a4.29,4.29,0,0,0,.13-1.45,4.34,4.34,0,0,0-.86,1.18c-.19.51-.09.73.11.81S264,57.63,264.15,57.12Z"/><path class="cls-11" d="M267.55,56.47a4.24,4.24,0,0,0,.13-1.44,4.41,4.41,0,0,0-.86,1.17c-.19.51-.09.73.11.81S267.36,57,267.55,56.47Z"/><path class="cls-11" d="M273.4,59.14a4.47,4.47,0,0,0,.12-1.45,4.65,4.65,0,0,0-.86,1.17c-.19.51-.09.74.12.81S273.21,59.65,273.4,59.14Z"/><path class="cls-11" d="M279.85,61.9a4.42,4.42,0,0,0,.12-1.44,4.65,4.65,0,0,0-.86,1.17c-.19.51-.09.73.12.81S279.65,62.41,279.85,61.9Z"/><path class="cls-11" d="M291.69,64.25a4.65,4.65,0,0,1,.86-1.17,4.47,4.47,0,0,1-.12,1.45c-.19.51-.42.61-.62.53S291.5,64.76,291.69,64.25Z"/><path class="cls-11" d="M285.3,63.55a4.41,4.41,0,0,1,.86-1.17,4.6,4.6,0,0,1-.13,1.45c-.19.51-.42.6-.62.53S285.1,64.06,285.3,63.55Z"/><path class="cls-11" d="M266,62.33a4.53,4.53,0,0,0,.13-1.44,4.41,4.41,0,0,0-.86,1.17c-.2.51-.09.73.11.81S265.84,62.85,266,62.33Z"/><path class="cls-11" d="M271.87,65a4.29,4.29,0,0,0,.13-1.45,4.41,4.41,0,0,0-.86,1.17c-.19.51-.09.74.11.81S271.68,65.51,271.87,65Z"/><path class="cls-11" d="M278.32,67.76a4.24,4.24,0,0,0,.13-1.44,4.41,4.41,0,0,0-.86,1.17c-.19.51-.09.73.11.81S278.13,68.28,278.32,67.76Z"/><path class="cls-11" d="M283.77,69.41a4.65,4.65,0,0,1,.86-1.17,4.47,4.47,0,0,1-.12,1.45c-.19.51-.42.61-.62.53S283.58,69.92,283.77,69.41Z"/><path class="cls-11" d="M270.35,70.86a4.59,4.59,0,0,0,.13-1.45,4.41,4.41,0,0,0-.86,1.17c-.2.51-.09.74.11.81S270.16,71.37,270.35,70.86Z"/><path class="cls-11" d="M276.8,73.63a4.6,4.6,0,0,0,.13-1.45,4.41,4.41,0,0,0-.86,1.17c-.2.51-.09.73.11.81S276.61,74.14,276.8,73.63Z"/><path class="cls-11" d="M282.25,75.27a4.41,4.41,0,0,1,.86-1.17,4.29,4.29,0,0,1-.13,1.45c-.19.51-.41.61-.62.53S282.06,75.78,282.25,75.27Z"/><path class="cls-11" d="M267.25,68.9a4.47,4.47,0,0,0,.12-1.45,4.65,4.65,0,0,0-.86,1.17c-.19.51-.08.73.12.81S267.06,69.41,267.25,68.9Z"/><path class="cls-11" d="M270.94,77.17a4.42,4.42,0,0,0,.12-1.44,4.65,4.65,0,0,0-.86,1.17c-.19.51-.09.73.12.81S270.75,77.68,270.94,77.17Z"/><path class="cls-11" d="M277,78.34a4.47,4.47,0,0,0,.12-1.45,4.41,4.41,0,0,0-.86,1.17c-.19.51-.09.74.12.81S276.84,78.85,277,78.34Z"/><path class="cls-11" d="M288.62,70.18a4.41,4.41,0,0,1,.86-1.17,4.24,4.24,0,0,1-.13,1.44c-.19.52-.41.61-.62.54S288.43,70.69,288.62,70.18Z"/><path class="cls-11" d="M294.82,67.54a4.41,4.41,0,0,1,.86-1.17,4.29,4.29,0,0,1-.13,1.45c-.19.51-.41.61-.62.53S294.63,68.05,294.82,67.54Z"/><path class="cls-11" d="M306.09,53.28a4.41,4.41,0,0,1,.86-1.17,4.59,4.59,0,0,1-.13,1.45c-.19.51-.42.61-.62.53S305.89,53.79,306.09,53.28Z"/><path class="cls-11" d="M308.1,46.81a4.65,4.65,0,0,1,.86-1.17,4.47,4.47,0,0,1-.12,1.45c-.19.51-.42.61-.62.53S307.91,47.32,308.1,46.81Z"/><ellipse class="cls-16" cx="292.85" cy="21.94" rx="1.74" ry="5.28" transform="translate(229.25 308.64) rotate(-81.78)"/></g></g></svg>