<svg xmlns="http://www.w3.org/2000/svg" viewBox="0 0 500 500">
    <defs>
        <style>.cls-1{opacity:0;}.cls-2{fill:#c1272d;}.cls-26,.cls-3{fill:#fff;}.cls-4{fill:#f8ff6a;}.cls-5{fill:#f7f7f7;}.cls-6{fill:#fdffad;}.cls-7{fill:#30ab14;}.cls-8{fill:#dce06c;}.cls-9{fill:#f7931e;}.cls-10{fill:#f7cc6f;}.cls-11{fill:#faff96;}.cls-12{fill:#f4ff1f;}.cls-13{fill:#8c6239;}.cls-14{fill:#6b4b2c;}.cls-15,.cls-16{fill:none;stroke-miterlimit:10;}.cls-15{stroke:#754c24;}.cls-16{stroke:#004203;stroke-linecap:round;stroke-width:2px;}.cls-17{fill:#691518;}.cls-18{fill:#ff5559;}.cls-19{fill:#a62226;}.cls-20{fill:#a2b400;}.cls-21{fill:#197d38;}.cls-22{fill:#166b2f;}.cls-23{fill:#1d8f3f;}.cls-24{fill:#22a649;}.cls-25{fill:#7ca622;}.cls-26{opacity:0.3;}</style>
    </defs>
    <title>liqueur</title>
    <g id="Layer_2" data-name="Layer 2">
        <g id="base" class="cls-1">
            <rect class="cls-2" width="500" height="500"/>
        </g>
        <g id="glass">
            <path class="cls-3" d="M171.52,32.85h147s-9,13-14,34-9,58-9,103,.75,88-4,99c-6.25,8.25-30,18-30,40s-1,82.5-1,82.5,2,18.5,16,24.5,44,13,47,19a33,33,0,0,1,3,13s-30,7-78,7-85-11-85-11,0-11,5-14,36-9,42-16,17-13,18-23,0-67,0-84-23.5-31.5-29.5-39.5-4.28-45.5-4.28-96.5-2.77-93.66-7.22-106C181.52,49.85,176.52,41.85,171.52,32.85Z"/>
        </g>
        <g id="cuts">
            <path class="cls-3" d="M204.77,237.69c.64,11.86,2.06,19,6.26,23.44,0,0,5.74,11.24,33.74,11.24h.5c28,0,32.5-9.92,32.5-9.92,4.55-4.76,6.26-12.34,7.13-24.76Z"/>
            <path class="cls-3" d="M204.77,237.69H284.9c.63-8.91.83-20.33,1.34-35H203.8C204.24,217.48,204.3,228.88,204.77,237.69Z"/>
            <path class="cls-3" d="M202.57,167.69c.18,7.17.4,14.17.7,20.84.23,5,.39,9.74.53,14.16h82.44c.14-4.28.31-8.82.53-13.67.31-7,.55-14.11.77-21.33Z"/>
            <path class="cls-3" d="M202.57,167.69h85c.34-11.64.63-23.47,1.06-35H201.79C202.07,144.28,202.27,156.19,202.57,167.69Z"/>
            <path class="cls-3" d="M201.79,132.69H288.6c.45-12.2,1.07-24.06,2.09-35H200.43C201.11,108.4,201.49,120.36,201.79,132.69Z"/>
            <path class="cls-3" d="M200.43,97.69h90.26c1.26-13.41,3.11-25.44,6-35H195.33C198,70.32,199.48,82.79,200.43,97.69Z"/>
        </g>
        <g id="lemon">
            <path class="cls-4" d="M154.26,17.6C125.34,34.09,114.48,69.53,130,96.75L234.73,37C219.21,9.81,183.18,1.11,154.26,17.6Z"/>
            <path class="cls-5" d="M156.62,22.28c-25.91,14.78-35.49,46.79-21.4,71.49l93.83-53.51C215,15.56,182.53,7.51,156.62,22.28Z"/>
            <path class="cls-6" d="M158.78,24.39C134,38.52,124.71,68.87,138,92.18L227.71,41C214.41,17.71,183.56,10.27,158.78,24.39Z"/>
            <polygon class="cls-5" points="130.41 76.28 182.2 66.97 130.12 73.39 130.41 76.28"/>
            <polyline class="cls-5" points="141.82 36.31 140.01 38.59 181.8 66.6"/>
            <polygon class="cls-5" points="174.81 16.48 182.26 65.56 171.99 17.16 174.81 16.48"/>
            <polygon class="cls-5" points="212.98 24.16 182.07 66.59 210.5 22.63 212.98 24.16"/>
            <path class="cls-5" d="M185.71,65a4.43,4.43,0,0,0-.61-.83,4.07,4.07,0,0,0-5.83-.17,4.17,4.17,0,0,0-.63,5Z"/>
        </g>
        <g id="lime">
            <path class="cls-7" d="M154.26,17.6C125.34,34.09,114.48,69.53,130,96.75L234.73,37C219.21,9.81,183.18,1.11,154.26,17.6Z"/>
            <path class="cls-5" d="M156.62,22.28c-25.91,14.78-35.49,46.79-21.4,71.49l93.83-53.51C215,15.56,182.53,7.51,156.62,22.28Z"/>
            <path class="cls-8" d="M158.78,24.39C134,38.52,124.71,68.87,138,92.18L227.71,41C214.41,17.71,183.56,10.27,158.78,24.39Z"/>
            <polygon class="cls-5" points="130.41 76.28 182.2 66.97 130.12 73.39 130.41 76.28"/>
            <polyline class="cls-5" points="141.82 36.31 140.01 38.59 181.8 66.6"/>
            <polygon class="cls-5" points="174.81 16.48 182.26 65.56 171.99 17.16 174.81 16.48"/>
            <polygon class="cls-5" points="212.98 24.16 182.07 66.59 210.5 22.63 212.98 24.16"/>
            <path class="cls-5" d="M185.71,65a4.43,4.43,0,0,0-.61-.83,4.07,4.07,0,0,0-5.83-.17,4.17,4.17,0,0,0-.63,5Z"/>
        </g>
        <g id="orange">
            <path class="cls-9" d="M154.32,17.6c-28.92,16.49-39.78,51.93-24.26,79.15L234.79,37C219.27,9.81,183.24,1.11,154.32,17.6Z"/>
            <path class="cls-5" d="M156.68,22.28c-25.91,14.78-35.5,46.79-21.41,71.49l93.84-53.51C215,15.56,182.59,7.51,156.68,22.28Z"/>
            <path class="cls-10" d="M158.84,24.39c-24.77,14.13-34.08,44.48-20.78,67.79L227.77,41C214.47,17.71,183.61,10.27,158.84,24.39Z"/>
            <polygon class="cls-5" points="130.47 76.28 182.26 66.97 130.18 73.39 130.47 76.28"/>
            <polyline class="cls-5" points="141.88 36.31 140.06 38.59 181.86 66.6"/>
            <polygon class="cls-5" points="174.87 16.48 182.31 65.56 172.04 17.16 174.87 16.48"/>
            <polygon class="cls-5" points="213.03 24.16 182.12 66.59 210.56 22.63 213.03 24.16"/>
            <path class="cls-5" d="M185.76,65a4.13,4.13,0,0,0-6.43-1,4.19,4.19,0,0,0-.64,5Z"/>
        </g>
        <g id="lemon_zest" data-name="lemon zest">
            <polygon class="cls-11" points="326.79 49.73 335.56 47.47 316.42 16.02 307.65 18.27 326.79 49.73"/>
            <polygon class="cls-11" points="306.05 55.06 314.82 52.8 295.69 21.34 286.91 23.6 306.05 55.06"/>
            <polygon class="cls-11" points="285.33 60.47 294.11 58.22 274.97 26.76 266.2 29.02 285.33 60.47"/>
            <polygon class="cls-12" points="328.39 12.94 337.16 10.69 335.56 47.47 326.79 49.73 328.39 12.94"/>
            <polyline class="cls-12" points="316.42 16.02 314.82 52.8 306.05 55.06 307.65 18.27"/>
            <polyline class="cls-12" points="295.71 21.43 294.11 58.22 285.33 60.47 286.93 23.69"/>
            <polyline class="cls-12" points="274.97 26.76 273.37 63.55 264.6 65.8 266.2 29.02"/>
        </g>
        <g id="cinnamon">
            <path class="cls-13" d="M159.61,32.1c1.14-2.19.68-4.69-1-5.59s-4,.15-5.17,2.34l4.42-8.43c-1.28,2.44-.94,5.15.78,6s4.14-.36,5.42-2.81.93-5.15-.78-6.05L273.53,75.38l-8.82,16.83L154.43,34.44C156.14,35.34,158.46,34.29,159.61,32.1Z"/>
            <ellipse class="cls-14" cx="160.93" cy="22.04" rx="5" ry="3.5" transform="translate(66.73 154.36) rotate(-62.35)"/>
            <ellipse class="cls-14" cx="156.51" cy="30.48" rx="4.47" ry="3.5" transform="translate(56.88 154.97) rotate(-62.35)"/>
            <ellipse class="cls-13" cx="270.77" cy="79.58" rx="5" ry="3.5" transform="translate(74.62 282.5) rotate(-62.35)"/>
            <ellipse class="cls-13" cx="266.35" cy="88.02" rx="4.47" ry="3.5" transform="translate(64.78 283.11) rotate(-62.35)"/>
            <line class="cls-15" x1="158.16" y1="26.24" x2="268" y2="83.78"/>
        </g>
        <g id="cherry">
            <path class="cls-2" d="M299.93,64.48c1.57-6.79-2.24-13.36-8.52-14.66a12.33,12.33,0,0,0-7.32.75c-1.69-1.53-4.16-3.32-6.32-3.6a12.84,12.84,0,0,0-14.21,9.94,21.42,21.42,0,0,0-.29,9.46c.75,3.53,6.43,11.43,14.13,13,7,1.45,15-2.63,17.44-5.34A21.33,21.33,0,0,0,299.93,64.48Z"/>
            <path class="cls-16" d="M283,52.74s3.2-17.84,9.35-32.09,10.52-16.5,10.52-16.5c.52,3.11.83,2.77.83,2.77"/>
            <path class="cls-17" d="M280.9,50.62a4.28,4.28,0,0,0,.35,1.55,1.53,1.53,0,0,0,1.08.64,4.08,4.08,0,0,0,1.48.21c.53,0,1.08-.14,1.67-.24a3.27,3.27,0,0,1-1.51,1,2.78,2.78,0,0,1-1,.15,6,6,0,0,1-.93-.16,3,3,0,0,1-.92-.41,1.67,1.67,0,0,1-.63-.91A2.37,2.37,0,0,1,280.9,50.62Z"/>
            <path class="cls-18" d="M269.66,52.5A24,24,0,0,0,267,64a8.27,8.27,0,0,1-.65-3,11.64,11.64,0,0,1,.29-3.11,12.29,12.29,0,0,1,1.11-2.92A8.53,8.53,0,0,1,269.66,52.5Z"/>
        </g>
        <g id="strawberry">
            <path class="cls-19" d="M310,50.12c-6,16-29.8,34-38.06,30.93s-14.2-32.39-8.19-48.35,17.2-14.27,30-9.46S316,34.16,310,50.12Z"/>
            <path class="cls-20" d="M269.44,30.39a4.47,4.47,0,0,0,.12-1.45,4.41,4.41,0,0,0-.86,1.17c-.19.51-.09.74.12.81S269.24,30.9,269.44,30.39Z"/>
            <path class="cls-20" d="M273.65,33a4.47,4.47,0,0,0,.12-1.45,4.65,4.65,0,0,0-.86,1.17c-.19.51-.08.74.12.81S273.46,33.54,273.65,33Z"/>
            <path class="cls-20" d="M279.49,35.7a4.6,4.6,0,0,0,.13-1.45,4.41,4.41,0,0,0-.86,1.17c-.2.51-.09.73.11.81S279.3,36.21,279.49,35.7Z"/>
            <path class="cls-20" d="M285.94,38.46a4.59,4.59,0,0,0,.13-1.45,4.41,4.41,0,0,0-.86,1.17c-.2.51-.09.74.11.81S285.75,39,285.94,38.46Z"/>
            <path class="cls-20" d="M304.29,43.52a4.41,4.41,0,0,1,.86-1.17A4.29,4.29,0,0,1,305,43.8c-.19.51-.41.61-.62.53S304.1,44,304.29,43.52Z"/>
            <path class="cls-20" d="M299,42.52a4.41,4.41,0,0,1,.86-1.17,4.29,4.29,0,0,1-.13,1.45c-.19.51-.41.61-.62.53S298.85,43,299,42.52Z"/>
            <path class="cls-20" d="M292.89,40.67a4.41,4.41,0,0,1,.86-1.17,4.29,4.29,0,0,1-.13,1.45c-.19.51-.41.61-.62.53S292.7,41.18,292.89,40.67Z"/>
            <path class="cls-20" d="M267,34.76a4.59,4.59,0,0,0,.13-1.45,4.41,4.41,0,0,0-.86,1.17c-.19.51-.09.73.11.81S266.76,35.27,267,34.76Z"/>
            <path class="cls-20" d="M271.13,38.59a4.24,4.24,0,0,0,.13-1.44,4.41,4.41,0,0,0-.86,1.17c-.19.51-.09.73.11.81S270.94,39.1,271.13,38.59Z"/>
            <path class="cls-20" d="M278,41.56a4.47,4.47,0,0,0,.12-1.45,4.65,4.65,0,0,0-.86,1.17c-.19.51-.09.73.12.81S277.78,42.07,278,41.56Z"/>
            <path class="cls-20" d="M284.42,44.32a4.47,4.47,0,0,0,.12-1.45,4.65,4.65,0,0,0-.86,1.17c-.19.52-.09.74.12.81S284.23,44.83,284.42,44.32Z"/>
            <path class="cls-20" d="M302.77,49.38a4.41,4.41,0,0,1,.86-1.17,4.59,4.59,0,0,1-.13,1.45c-.19.51-.42.61-.62.53S302.57,49.89,302.77,49.38Z"/>
            <path class="cls-20" d="M296.41,47a4.41,4.41,0,0,1,.86-1.17,4.59,4.59,0,0,1-.13,1.45c-.19.51-.42.61-.62.53S296.22,47.5,296.41,47Z"/>
            <path class="cls-21" d="M294.33,23.07s-5.35-11-16.62-6.26-16.82,2.65-16.82,2.65S269,31.5,278.8,30.7,292.85,27,294.33,23.07Z"/>
            <path class="cls-22" d="M288,24.83s9.15-10.68,16.39-4.93S317.09,24,317.09,24s-11.87,11.5-19.58,9.86S287.54,28.94,288,24.83Z"/>
            <path class="cls-21" d="M292.66,22.44s11.27-4.74,16.62,6.26,10.88,13.09,10.88,13.09-14,3.69-20.87-3.37S291.17,26.37,292.66,22.44Z"/>
            <path class="cls-23" d="M291.93,20.82s-9.82-5.42-17.3,3.51-13.26,10.1-13.26,10.1,12.7,4.84,20.77-.5S292.51,24.41,291.93,20.82Z"/>
            <path class="cls-24" d="M291.92,20.63s12.21,2.86,10.59,13.12,1.91,14.64,1.91,14.64-14-5-15.82-13.46S288.46,22.48,291.92,20.63Z"/>
            <path class="cls-20" d="M289.87,46a4.41,4.41,0,0,1,.86-1.17,4.53,4.53,0,0,1-.13,1.44c-.19.51-.42.61-.62.54S289.67,46.48,289.87,46Z"/>
            <path class="cls-20" d="M264.54,41.15a4.24,4.24,0,0,0,.13-1.44,4.41,4.41,0,0,0-.86,1.17c-.19.51-.09.73.11.81S264.35,41.66,264.54,41.15Z"/>
            <path class="cls-20" d="M269.88,44.15A4.59,4.59,0,0,0,270,42.7a4.59,4.59,0,0,0-.87,1.17c-.19.51-.08.74.12.81S269.69,44.66,269.88,44.15Z"/>
            <path class="cls-20" d="M276.44,47.42a4.29,4.29,0,0,0,.13-1.45,4.41,4.41,0,0,0-.86,1.17c-.19.51-.09.73.11.81S276.25,47.93,276.44,47.42Z"/>
            <path class="cls-20" d="M282.89,50.18a4.29,4.29,0,0,0,.13-1.45,4.34,4.34,0,0,0-.86,1.18c-.19.51-.09.73.11.81S282.7,50.69,282.89,50.18Z"/>
            <path class="cls-20" d="M301.24,55.24a4.41,4.41,0,0,1,.86-1.17,4.47,4.47,0,0,1-.12,1.45c-.2.51-.42.61-.62.53S301.05,55.75,301.24,55.24Z"/>
            <path class="cls-20" d="M294.74,52.53a4.41,4.41,0,0,1,.86-1.17,4.47,4.47,0,0,1-.12,1.45c-.2.51-.42.61-.62.53S294.55,53,294.74,52.53Z"/>
            <path class="cls-20" d="M288.34,51.83a4.65,4.65,0,0,1,.86-1.17,4.42,4.42,0,0,1-.12,1.44c-.19.51-.42.61-.62.54S288.15,52.34,288.34,51.83Z"/>
            <path class="cls-20" d="M263.79,49.72a4.47,4.47,0,0,0,.12-1.45,4.65,4.65,0,0,0-.86,1.17c-.19.51-.08.74.12.81S263.6,50.23,263.79,49.72Z"/>
            <path class="cls-20" d="M269.08,50.61a4.42,4.42,0,0,0,.12-1.44,4.65,4.65,0,0,0-.86,1.17c-.19.51-.09.73.12.81S268.89,51.12,269.08,50.61Z"/>
            <path class="cls-20" d="M274.92,53.28a4.59,4.59,0,0,0,.13-1.45,4.41,4.41,0,0,0-.86,1.17c-.2.51-.09.73.11.81S274.73,53.79,274.92,53.28Z"/>
            <path class="cls-20" d="M281.37,56a4.53,4.53,0,0,0,.13-1.44,4.41,4.41,0,0,0-.86,1.17c-.2.51-.09.73.11.81S281.18,56.55,281.37,56Z"/>
            <path class="cls-20" d="M299.72,61.1a4.41,4.41,0,0,1,.86-1.17,4.29,4.29,0,0,1-.13,1.45c-.19.51-.41.61-.62.53S299.53,61.61,299.72,61.1Z"/>
            <path class="cls-20" d="M293.22,58.39a4.41,4.41,0,0,1,.86-1.17,4.59,4.59,0,0,1-.13,1.45c-.19.51-.41.61-.62.53S293,58.9,293.22,58.39Z"/>
            <path class="cls-20" d="M286.82,57.69a4.41,4.41,0,0,1,.86-1.17,4.24,4.24,0,0,1-.13,1.44c-.19.52-.41.61-.62.54S286.63,58.2,286.82,57.69Z"/>
            <path class="cls-20" d="M264.15,57.12a4.29,4.29,0,0,0,.13-1.45,4.34,4.34,0,0,0-.86,1.18c-.19.51-.09.73.11.81S264,57.63,264.15,57.12Z"/>
            <path class="cls-20" d="M267.55,56.47a4.24,4.24,0,0,0,.13-1.44,4.41,4.41,0,0,0-.86,1.17c-.19.51-.09.73.11.81S267.36,57,267.55,56.47Z"/>
            <path class="cls-20" d="M273.4,59.14a4.47,4.47,0,0,0,.12-1.45,4.65,4.65,0,0,0-.86,1.17c-.19.51-.09.74.12.81S273.21,59.65,273.4,59.14Z"/>
            <path class="cls-20" d="M279.85,61.9a4.42,4.42,0,0,0,.12-1.44,4.65,4.65,0,0,0-.86,1.17c-.19.51-.09.73.12.81S279.65,62.41,279.85,61.9Z"/>
            <path class="cls-20" d="M291.69,64.25a4.65,4.65,0,0,1,.86-1.17,4.47,4.47,0,0,1-.12,1.45c-.19.51-.42.61-.62.53S291.5,64.76,291.69,64.25Z"/>
            <path class="cls-20" d="M285.3,63.55a4.41,4.41,0,0,1,.86-1.17,4.6,4.6,0,0,1-.13,1.45c-.19.51-.42.6-.62.53S285.1,64.06,285.3,63.55Z"/>
            <path class="cls-20" d="M266,62.33a4.53,4.53,0,0,0,.13-1.44,4.41,4.41,0,0,0-.86,1.17c-.2.51-.09.73.11.81S265.84,62.85,266,62.33Z"/>
            <path class="cls-20" d="M271.87,65a4.29,4.29,0,0,0,.13-1.45,4.41,4.41,0,0,0-.86,1.17c-.19.51-.09.74.11.81S271.68,65.51,271.87,65Z"/>
            <path class="cls-20" d="M278.32,67.76a4.24,4.24,0,0,0,.13-1.44,4.41,4.41,0,0,0-.86,1.17c-.19.51-.09.73.11.81S278.13,68.28,278.32,67.76Z"/>
            <path class="cls-20" d="M283.77,69.41a4.65,4.65,0,0,1,.86-1.17,4.47,4.47,0,0,1-.12,1.45c-.19.51-.42.61-.62.53S283.58,69.92,283.77,69.41Z"/>
            <path class="cls-20" d="M270.35,70.86a4.59,4.59,0,0,0,.13-1.45,4.41,4.41,0,0,0-.86,1.17c-.2.51-.09.74.11.81S270.16,71.37,270.35,70.86Z"/>
            <path class="cls-20" d="M276.8,73.63a4.6,4.6,0,0,0,.13-1.45,4.41,4.41,0,0,0-.86,1.17c-.2.51-.09.73.11.81S276.61,74.14,276.8,73.63Z"/>
            <path class="cls-20" d="M282.25,75.27a4.41,4.41,0,0,1,.86-1.17,4.29,4.29,0,0,1-.13,1.45c-.19.51-.41.61-.62.53S282.06,75.78,282.25,75.27Z"/>
            <path class="cls-20" d="M267.25,68.9a4.47,4.47,0,0,0,.12-1.45,4.65,4.65,0,0,0-.86,1.17c-.19.51-.08.73.12.81S267.06,69.41,267.25,68.9Z"/>
            <path class="cls-20" d="M270.94,77.17a4.42,4.42,0,0,0,.12-1.44,4.65,4.65,0,0,0-.86,1.17c-.19.51-.09.73.12.81S270.75,77.68,270.94,77.17Z"/>
            <path class="cls-20" d="M277,78.34a4.47,4.47,0,0,0,.12-1.45,4.41,4.41,0,0,0-.86,1.17c-.19.51-.09.74.12.81S276.84,78.85,277,78.34Z"/>
            <path class="cls-20" d="M288.62,70.18a4.41,4.41,0,0,1,.86-1.17,4.24,4.24,0,0,1-.13,1.44c-.19.52-.41.61-.62.54S288.43,70.69,288.62,70.18Z"/>
            <path class="cls-20" d="M294.82,67.54a4.41,4.41,0,0,1,.86-1.17,4.29,4.29,0,0,1-.13,1.45c-.19.51-.41.61-.62.53S294.63,68.05,294.82,67.54Z"/>
            <path class="cls-20" d="M306.09,53.28a4.41,4.41,0,0,1,.86-1.17,4.59,4.59,0,0,1-.13,1.45c-.19.51-.42.61-.62.53S305.89,53.79,306.09,53.28Z"/>
            <path class="cls-20" d="M308.1,46.81a4.65,4.65,0,0,1,.86-1.17,4.47,4.47,0,0,1-.12,1.45c-.19.51-.42.61-.62.53S307.91,47.32,308.1,46.81Z"/>
            <ellipse class="cls-25" cx="292.85" cy="21.94" rx="1.74" ry="5.28" transform="translate(229.25 308.64) rotate(-81.78)"/>
        </g>
        <g id="ice">
            <rect class="cls-26" x="216.42" y="125.42" width="47.27" height="50.95" transform="translate(367.05 -102.61) rotate(84.46)"/>
            <rect class="cls-26" x="239.33" y="88.69" width="47.27" height="50.95" transform="translate(30.65 -53.81) rotate(12.4)"/>
            <rect class="cls-26" x="207.06" y="67.18" width="47.27" height="50.95" transform="translate(-17.56 105.87) rotate(-24.93)"/>
        </g>
    </g>
</svg>