<svg xmlns="http://www.w3.org/2000/svg" viewBox="0 0 500 500">
    <defs>
        <style>.cls-1{opacity:0;}.cls-2{fill:#c1272d;}.cls-26,.cls-3{fill:#fff;}.cls-4{fill:#f8ff6a;}.cls-5{fill:#f7f7f7;}.cls-6{fill:#fdffad;}.cls-7{fill:#30ab14;}.cls-8{fill:#dce06c;}.cls-9{fill:#f7931e;}.cls-10{fill:#f7cc6f;}.cls-11{fill:#faff96;}.cls-12{fill:#f4ff1f;}.cls-13{fill:#8c6239;}.cls-14{fill:#6b4b2c;}.cls-15,.cls-16{fill:none;stroke-miterlimit:10;}.cls-15{stroke:#754c24;}.cls-16{stroke:#004203;stroke-linecap:round;stroke-width:2px;}.cls-17{fill:#691518;}.cls-18{fill:#ff5559;}.cls-19{fill:#a62226;}.cls-20{fill:#a2b400;}.cls-21{fill:#197d38;}.cls-22{fill:#166b2f;}.cls-23{fill:#1d8f3f;}.cls-24{fill:#22a649;}.cls-25{fill:#7ca622;}.cls-26{opacity:0.3;}</style>
    </defs>
    <title>margherita</title>
    <g id="Layer_2" data-name="Layer 2">
        <g id="base" class="cls-1">
            <rect class="cls-2" width="500" height="500"/>
        </g>
        <g id="glass">
            <path class="cls-3" d="M396,44H102c2.2,2.83-6,12.9,15,34,7.44,7.48,25.5,11.5,38.5,22.5,8,22,15.5,78.5,73.5,94.5,8.71,29,9,197,8,207s-8,16-14,23-49.5,16-54.5,19-5,11-5,11S201,466,249,466s85.5-11,85.5-11,0-8-5-11S281,432,275,425s-13-13-14-23-.71-178,8-207c58-16,64-74,72-96,13-11,32.56-10.62,40-18.1C402,59.8,393.8,46.83,396,44Z"/>
        </g>
        <g id="cuts">
            <path class="cls-3" d="M309.31,154.48c.69-.76,1.35-1.59,2-2.48H186.68c.66.89,1.32,1.72,2,2.48C208.65,176.75,224.47,183,249,183S289.35,176.75,309.31,154.48Z"/>
            <path class="cls-3" d="M311.32,152c5.65-7.69,10.12-19.74,13.61-31H173.07c3.49,11.26,8,23.31,13.61,31Z"/>
            <path class="cls-3" d="M156.5,90h185C360.76,83.42,387,72,387,59H111C111,72,137.24,83.42,156.5,90Z"/>
            <path class="cls-3" d="M156.5,90c2.66.91,5.19,1.73,7.5,2.45,1.72,1,4.59,14.11,9.07,28.55H324.93c4.48-14.44,7.35-27.58,9.07-28.55,2.31-.72,4.84-1.54,7.5-2.45Z"/>
        </g>
        <g id="lemon">
            <path class="cls-4" d="M86.43,17.39C57.51,33.88,46.65,69.32,62.17,96.53L166.9,36.81C151.38,9.59,115.35.9,86.43,17.39Z"/>
            <path class="cls-5" d="M88.79,22.07C62.88,36.85,53.3,68.85,67.39,93.56l93.83-53.51C147.13,15.34,114.7,7.29,88.79,22.07Z"/>
            <path class="cls-6" d="M91,24.18C66.18,38.31,56.88,68.66,70.18,92l89.7-51.15C146.59,17.5,115.73,10.05,91,24.18Z"/>
            <polygon class="cls-5" points="62.59 76.07 114.38 66.75 62.3 73.17 62.59 76.07"/>
            <polyline class="cls-5" points="73.99 36.1 72.18 38.37 113.97 66.39"/>
            <polygon class="cls-5" points="106.98 16.27 114.43 65.34 104.16 16.95 106.98 16.27"/>
            <polygon class="cls-5" points="145.15 23.94 114.24 66.38 142.68 22.42 145.15 23.94"/>
            <path class="cls-5" d="M117.88,64.77a4.13,4.13,0,0,0-.61-.83,4.07,4.07,0,0,0-5.83-.18,4.21,4.21,0,0,0-.63,5Z"/>
        </g>
        <g id="lime">
            <path class="cls-7" d="M86.43,17.39C57.51,33.88,46.65,69.32,62.17,96.53L166.9,36.81C151.38,9.59,115.35.9,86.43,17.39Z"/>
            <path class="cls-5" d="M88.79,22.07C62.88,36.85,53.3,68.85,67.39,93.56l93.83-53.51C147.13,15.34,114.7,7.29,88.79,22.07Z"/>
            <path class="cls-8" d="M91,24.18C66.18,38.31,56.88,68.66,70.18,92l89.7-51.15C146.59,17.5,115.73,10.05,91,24.18Z"/>
            <polygon class="cls-5" points="62.59 76.07 114.38 66.75 62.3 73.17 62.59 76.07"/>
            <polyline class="cls-5" points="73.99 36.1 72.18 38.37 113.97 66.39"/>
            <polygon class="cls-5" points="106.98 16.27 114.43 65.34 104.16 16.95 106.98 16.27"/>
            <polygon class="cls-5" points="145.15 23.94 114.24 66.38 142.68 22.42 145.15 23.94"/>
            <path class="cls-5" d="M117.88,64.77a4.13,4.13,0,0,0-.61-.83,4.07,4.07,0,0,0-5.83-.18,4.21,4.21,0,0,0-.63,5Z"/>
        </g>
        <g id="orange">
            <path class="cls-9" d="M86.43,17.72C57.51,34.21,46.65,69.65,62.17,96.86L166.9,37.14C151.38,9.92,115.35,1.23,86.43,17.72Z"/>
            <path class="cls-5" d="M88.79,22.4C62.88,37.18,53.3,69.18,67.39,93.89l93.83-53.51C147.13,15.67,114.7,7.62,88.79,22.4Z"/>
            <path class="cls-10" d="M91,24.51C66.18,38.63,56.88,69,70.17,92.3l89.71-51.15C146.58,17.83,115.72,10.38,91,24.51Z"/>
            <polygon class="cls-5" points="62.58 76.4 114.37 67.08 62.29 73.5 62.58 76.4"/>
            <polyline class="cls-5" points="73.99 36.43 72.18 38.7 113.97 66.72"/>
            <polygon class="cls-5" points="106.98 16.6 114.43 65.67 104.16 17.28 106.98 16.6"/>
            <polygon class="cls-5" points="145.15 24.27 114.24 66.71 142.67 22.75 145.15 24.27"/>
            <path class="cls-5" d="M117.88,65.1a4.5,4.5,0,0,0-.61-.84,4.08,4.08,0,0,0-5.83-.17,4.19,4.19,0,0,0-.63,5Z"/>
        </g>
        <g id="lemon_zest" data-name="lemon zest">
            <polygon class="cls-11" points="406.99 55.86 417.56 53.14 394.88 16.7 384.3 19.42 406.99 55.86"/>
            <polygon class="cls-11" points="381.99 62.28 392.57 59.57 369.88 23.13 359.3 25.84 381.99 62.28"/>
            <polygon class="cls-11" points="357.02 68.81 367.6 66.09 344.91 29.65 334.33 32.37 357.02 68.81"/>
            <polygon class="cls-12" points="409.3 13 419.88 10.28 417.56 53.14 406.99 55.86 409.3 13"/>
            <polyline class="cls-12" points="394.88 16.7 392.57 59.57 381.99 62.28 384.3 19.42"/>
            <polyline class="cls-12" points="369.91 23.23 367.6 66.09 357.02 68.81 359.33 25.95"/>
            <polyline class="cls-12" points="344.91 29.65 342.6 72.52 332.02 75.23 334.33 32.37"/>
        </g>
        <g id="cinnamon">
            <path class="cls-13" d="M73.66,26.61c1-3.43-.3-6.86-2.82-7.66s-5.36,1.32-6.33,4.75l3.73-13.21c-1.08,3.83.09,7.58,2.62,8.39s5.45-1.65,6.53-5.48S77.31,5.81,74.78,5L237.54,56.8l-7.46,26.34L67.33,31.35C69.86,32.16,72.69,30,73.66,26.61Z"/>
            <ellipse class="cls-14" cx="72.82" cy="11.94" rx="7.21" ry="4.8" transform="translate(43.24 79.55) rotate(-75.69)"/>
            <ellipse class="cls-14" cx="69.08" cy="25.15" rx="6.45" ry="4.8" transform="translate(28.51 86.46) rotate(-76.51)"/>
            <ellipse class="cls-13" cx="234.92" cy="63.52" rx="7.21" ry="4.8" transform="translate(115.29 275.44) rotate(-75.69)"/>
            <ellipse class="cls-13" cx="231.18" cy="76.73" rx="6.45" ry="4.8" transform="translate(102.63 283.63) rotate(-76.51)"/>
            <line class="cls-15" x1="70.2" y1="18.67" x2="232.31" y2="70.25"/>
        </g>
        <g id="cherry">
            <path class="cls-2" d="M351,72.29c1.86-7.7-2.66-15.15-10.09-16.63a15.14,15.14,0,0,0-8.68.86c-2-1.74-4.94-3.78-7.49-4.09A15.2,15.2,0,0,0,307.92,63.7a23.28,23.28,0,0,0-.34,10.74c.89,4,7.62,13,16.75,14.79,8.26,1.65,17.7-3,20.66-6A24,24,0,0,0,351,72.29Z"/>
            <path class="cls-16" d="M330.93,59S334.71,38.74,342,22.57,354.47,3.85,354.47,3.85c.61,3.53,1,3.15,1,3.15"/>
            <path class="cls-17" d="M328.47,56.57a4.31,4.31,0,0,0,.36,1.81,2,2,0,0,0,1.35.75,4.78,4.78,0,0,0,1.78.21A18.63,18.63,0,0,0,333.9,59a4.31,4.31,0,0,1-1.79,1.08,3.29,3.29,0,0,1-1.1.17,8,8,0,0,1-1.07-.17,4,4,0,0,1-1.05-.43,1.83,1.83,0,0,1-.77-1A2.64,2.64,0,0,1,328.47,56.57Z"/>
            <path class="cls-18" d="M315.15,58.7a23.81,23.81,0,0,0-3.15,13,9.45,9.45,0,0,1-.71-3.45,13.5,13.5,0,0,1,.38-3.53,13.83,13.83,0,0,1,1.3-3.3A9.93,9.93,0,0,1,315.15,58.7Z"/>
        </g>
        <g id="strawberry">
            <path class="cls-19" d="M389.84,43.66c-6,16-29.8,34-38,30.93S337.58,42.2,343.6,26.24s17.19-14.27,30-9.45S395.85,27.7,389.84,43.66Z"/>
            <path class="cls-20" d="M349.28,23.94a4.48,4.48,0,0,0,.12-1.45,4.65,4.65,0,0,0-.86,1.17c-.19.51-.08.73.12.81S349.09,24.45,349.28,23.94Z"/>
            <path class="cls-20" d="M353.49,26.58a4.59,4.59,0,0,0,.13-1.45,4.41,4.41,0,0,0-.86,1.17c-.2.51-.09.73.11.81S353.3,27.09,353.49,26.58Z"/>
            <path class="cls-20" d="M359.33,29.24a4.29,4.29,0,0,0,.13-1.45A4.41,4.41,0,0,0,358.6,29c-.19.52-.09.74.11.81S359.14,29.75,359.33,29.24Z"/>
            <path class="cls-20" d="M365.78,32a4.29,4.29,0,0,0,.13-1.45,4.41,4.41,0,0,0-.86,1.17c-.19.51-.09.73.11.81S365.59,32.52,365.78,32Z"/>
            <path class="cls-20" d="M384.13,37.06a4.41,4.41,0,0,1,.86-1.17,4.29,4.29,0,0,1-.13,1.45c-.19.51-.41.61-.62.53S383.94,37.58,384.13,37.06Z"/>
            <path class="cls-20" d="M378.88,36.07a4.41,4.41,0,0,1,.86-1.17,4.31,4.31,0,0,1-.13,1.45c-.19.51-.41.6-.62.53S378.69,36.58,378.88,36.07Z"/>
            <path class="cls-20" d="M372.73,34.22a4.34,4.34,0,0,1,.86-1.18,4.47,4.47,0,0,1-.12,1.45c-.2.51-.42.61-.63.54S372.54,34.73,372.73,34.22Z"/>
            <path class="cls-20" d="M346.79,28.3a4.24,4.24,0,0,0,.13-1.44,4.41,4.41,0,0,0-.86,1.17c-.19.51-.09.73.11.81S346.6,28.81,346.79,28.3Z"/>
            <path class="cls-20" d="M351,32.14a4.29,4.29,0,0,0,.13-1.45,4.41,4.41,0,0,0-.86,1.17c-.19.51-.09.74.11.81S350.78,32.65,351,32.14Z"/>
            <path class="cls-20" d="M357.81,35.1a4.59,4.59,0,0,0,.13-1.45,4.52,4.52,0,0,0-.87,1.18c-.19.51-.08.73.12.8S357.62,35.61,357.81,35.1Z"/>
            <path class="cls-20" d="M364.26,37.87a4.47,4.47,0,0,0,.12-1.45,4.65,4.65,0,0,0-.86,1.17c-.19.51-.08.73.12.81S364.07,38.38,364.26,37.87Z"/>
            <path class="cls-20" d="M382.61,42.93a4.34,4.34,0,0,1,.86-1.18,4.59,4.59,0,0,1-.13,1.45c-.19.51-.42.61-.62.54S382.41,43.44,382.61,42.93Z"/>
            <path class="cls-20" d="M376.25,40.53a4.41,4.41,0,0,1,.86-1.17,4.29,4.29,0,0,1-.13,1.45c-.19.51-.41.61-.62.53S376.06,41,376.25,40.53Z"/>
            <path class="cls-21" d="M374.17,16.61s-5.35-11-16.62-6.26S340.73,13,340.73,13s8.12,12.05,17.91,11.24S372.69,20.55,374.17,16.61Z"/>
            <path class="cls-22" d="M367.86,18.38S377,7.69,384.24,13.45s12.69,4.11,12.69,4.11-11.87,11.51-19.58,9.86S367.38,22.49,367.86,18.38Z"/>
            <path class="cls-21" d="M372.5,16s11.27-4.73,16.62,6.27S400,35.33,400,35.33,386,39,379.13,32,371,19.92,372.5,16Z"/>
            <path class="cls-23" d="M371.77,14.37s-9.82-5.43-17.3,3.51S341.22,28,341.22,28s12.69,4.84,20.76-.51S372.35,18,371.77,14.37Z"/>
            <path class="cls-24" d="M371.76,14.18S384,17,382.35,27.3s1.91,14.63,1.91,14.63-14-5-15.82-13.46S368.3,16,371.76,14.18Z"/>
            <path class="cls-20" d="M369.71,39.51a4.41,4.41,0,0,1,.86-1.17,4.29,4.29,0,0,1-.13,1.45c-.19.51-.41.61-.62.53S369.52,40,369.71,39.51Z"/>
            <path class="cls-20" d="M344.38,34.7a4.29,4.29,0,0,0,.13-1.45,4.41,4.41,0,0,0-.86,1.17c-.19.51-.09.74.11.81S344.19,35.21,344.38,34.7Z"/>
            <path class="cls-20" d="M349.72,37.69a4.53,4.53,0,0,0,.13-1.44,4.41,4.41,0,0,0-.86,1.17c-.2.51-.09.73.11.81S349.53,38.2,349.72,37.69Z"/>
            <path class="cls-20" d="M356.29,41a4.42,4.42,0,0,0,.12-1.44,4.41,4.41,0,0,0-.86,1.17c-.19.51-.09.73.12.81S356.09,41.47,356.29,41Z"/>
            <path class="cls-20" d="M362.74,43.73a4.47,4.47,0,0,0,.12-1.45,4.41,4.41,0,0,0-.86,1.17c-.19.51-.09.73.12.81S362.54,44.24,362.74,43.73Z"/>
            <path class="cls-20" d="M381.08,48.79a4.65,4.65,0,0,1,.86-1.17,4.42,4.42,0,0,1-.12,1.44c-.19.51-.42.61-.62.54S380.89,49.3,381.08,48.79Z"/>
            <path class="cls-20" d="M374.58,46.08a4.57,4.57,0,0,1,.86-1.18,4.47,4.47,0,0,1-.12,1.45c-.2.51-.42.61-.62.54S374.39,46.59,374.58,46.08Z"/>
            <path class="cls-20" d="M368.19,45.37a4.41,4.41,0,0,1,.86-1.17,4.59,4.59,0,0,1-.13,1.45c-.19.51-.42.61-.62.53S368,45.88,368.19,45.37Z"/>
            <path class="cls-20" d="M343.63,43.26a4.53,4.53,0,0,0,.13-1.44A4.41,4.41,0,0,0,342.9,43c-.2.51-.09.73.11.81S343.44,43.78,343.63,43.26Z"/>
            <path class="cls-20" d="M348.92,44.16a4.59,4.59,0,0,0,.13-1.45,4.59,4.59,0,0,0-.87,1.17c-.19.51-.08.74.12.81S348.73,44.67,348.92,44.16Z"/>
            <path class="cls-20" d="M354.76,46.82a4.24,4.24,0,0,0,.13-1.44,4.41,4.41,0,0,0-.86,1.17c-.19.51-.09.73.11.81S354.57,47.33,354.76,46.82Z"/>
            <path class="cls-20" d="M361.21,49.59a4.59,4.59,0,0,0,.13-1.45,4.41,4.41,0,0,0-.86,1.17c-.19.51-.09.74.11.81S361,50.1,361.21,49.59Z"/>
            <path class="cls-20" d="M379.56,54.65a4.41,4.41,0,0,1,.86-1.17,4.24,4.24,0,0,1-.13,1.44c-.19.51-.41.61-.62.54S379.37,55.16,379.56,54.65Z"/>
            <path class="cls-20" d="M373.06,51.94a4.41,4.41,0,0,1,.86-1.17,4.24,4.24,0,0,1-.13,1.44c-.19.51-.41.61-.62.54S372.87,52.45,373.06,51.94Z"/>
            <path class="cls-20" d="M366.66,51.23a4.41,4.41,0,0,1,.86-1.17,4.47,4.47,0,0,1-.12,1.45c-.2.51-.42.61-.62.53S366.47,51.74,366.66,51.23Z"/>
            <path class="cls-20" d="M344,50.67a4.29,4.29,0,0,0,.13-1.45,4.41,4.41,0,0,0-.86,1.17c-.19.51-.09.73.11.81S343.8,51.18,344,50.67Z"/>
            <path class="cls-20" d="M347.4,50a4.47,4.47,0,0,0,.12-1.45,4.41,4.41,0,0,0-.86,1.17c-.19.51-.09.74.12.81S347.2,50.53,347.4,50Z"/>
            <path class="cls-20" d="M353.24,52.68a4.53,4.53,0,0,0,.13-1.44,4.59,4.59,0,0,0-.87,1.17c-.19.51-.08.73.12.81S353.05,53.2,353.24,52.68Z"/>
            <path class="cls-20" d="M359.69,55.45a4.47,4.47,0,0,0,.12-1.45,4.65,4.65,0,0,0-.86,1.17c-.19.51-.08.74.12.81S359.5,56,359.69,55.45Z"/>
            <path class="cls-20" d="M371.54,57.8a4.41,4.41,0,0,1,.86-1.17,4.53,4.53,0,0,1-.13,1.44c-.19.51-.42.61-.62.54S371.34,58.31,371.54,57.8Z"/>
            <path class="cls-20" d="M365.14,57.09a4.41,4.41,0,0,1,.86-1.17,4.29,4.29,0,0,1-.13,1.45c-.19.51-.41.61-.62.53S365,57.61,365.14,57.09Z"/>
            <path class="cls-20" d="M345.87,55.88a4.29,4.29,0,0,0,.13-1.45,4.41,4.41,0,0,0-.86,1.17c-.19.51-.09.74.11.81S345.68,56.39,345.87,55.88Z"/>
            <path class="cls-20" d="M351.72,58.55a4.48,4.48,0,0,0,.12-1.45,4.41,4.41,0,0,0-.86,1.17c-.19.51-.09.73.12.81S351.52,59.06,351.72,58.55Z"/>
            <path class="cls-20" d="M358.17,61.31a4.47,4.47,0,0,0,.12-1.45,4.41,4.41,0,0,0-.86,1.17c-.19.51-.09.74.12.81S358,61.82,358.17,61.31Z"/>
            <path class="cls-20" d="M363.61,63a4.52,4.52,0,0,1,.87-1.18,4.59,4.59,0,0,1-.13,1.45c-.19.51-.42.61-.62.53S363.42,63.47,363.61,63Z"/>
            <path class="cls-20" d="M350.19,64.41a4.59,4.59,0,0,0,.13-1.45,4.41,4.41,0,0,0-.86,1.17c-.19.51-.09.73.11.81S350,64.92,350.19,64.41Z"/>
            <path class="cls-20" d="M356.64,67.17a4.59,4.59,0,0,0,.13-1.45,4.41,4.41,0,0,0-.86,1.17c-.2.52-.09.74.11.81S356.45,67.68,356.64,67.17Z"/>
            <path class="cls-20" d="M362.09,68.82a4.41,4.41,0,0,1,.86-1.17,4.42,4.42,0,0,1-.12,1.44c-.2.51-.42.61-.62.54S361.9,69.33,362.09,68.82Z"/>
            <path class="cls-20" d="M347.09,62.44a4.59,4.59,0,0,0,.13-1.45,4.34,4.34,0,0,0-.86,1.18c-.2.51-.09.73.11.81S346.9,63,347.09,62.44Z"/>
            <path class="cls-20" d="M350.78,70.72a4.59,4.59,0,0,0,.13-1.45,4.59,4.59,0,0,0-.87,1.17c-.19.51-.08.74.12.81S350.59,71.23,350.78,70.72Z"/>
            <path class="cls-20" d="M356.88,71.89a4.48,4.48,0,0,0,.12-1.45,4.65,4.65,0,0,0-.86,1.17c-.19.51-.09.73.12.81S356.68,72.4,356.88,71.89Z"/>
            <path class="cls-20" d="M368.46,63.72a4.41,4.41,0,0,1,.86-1.17A4.47,4.47,0,0,1,369.2,64c-.2.51-.42.61-.62.53S368.27,64.23,368.46,63.72Z"/>
            <path class="cls-20" d="M374.66,61.09a4.41,4.41,0,0,1,.86-1.17,4.29,4.29,0,0,1-.13,1.45c-.19.51-.41.61-.62.53S374.47,61.6,374.66,61.09Z"/>
            <path class="cls-20" d="M385.93,46.83a4.34,4.34,0,0,1,.86-1.18,4.59,4.59,0,0,1-.13,1.45c-.19.51-.42.61-.62.53S385.73,47.34,385.93,46.83Z"/>
            <path class="cls-20" d="M387.94,40.36a4.52,4.52,0,0,1,.87-1.18,4.59,4.59,0,0,1-.13,1.45c-.19.51-.42.61-.62.53S387.75,40.87,387.94,40.36Z"/>
            <ellipse class="cls-25" cx="372.69" cy="15.49" rx="1.74" ry="5.28" transform="translate(304.06 382.13) rotate(-81.78)"/>
        </g>
        <g id="ice">
            <rect class="cls-26" x="193.68" y="110.66" width="47.27" height="50.95" transform="translate(-26.66 57.16) rotate(-14.13)"/>
            <rect class="cls-26" x="164.54" y="64" width="47.27" height="50.95" transform="translate(-19.8 76.73) rotate(-21.92)"/>
            <rect class="cls-26" x="237.23" y="115.95" width="47.27" height="50.95" transform="translate(-26.8 214.23) rotate(-42.67)"/>
            <rect class="cls-26" x="275.23" y="80.94" width="47.27" height="50.95" transform="matrix(0.95, 0.32, -0.32, 0.95, 49.21, -89.34)"/>
            <rect class="cls-26" x="221.29" y="62.89" width="47.27" height="50.95" transform="translate(-7.2 23.34) rotate(-5.38)"/>
        </g>
    </g>
</svg>