<svg xmlns="http://www.w3.org/2000/svg" viewBox="0 0 500 500">
    <defs>
        <style>.cls-1{opacity:0;}.cls-2{fill:#c1272d;}.cls-26,.cls-3{fill:#fff;}.cls-4{fill:#f8ff6a;}.cls-5{fill:#f7f7f7;}.cls-6{fill:#fdffad;}.cls-7{fill:#30ab14;}.cls-8{fill:#dce06c;}.cls-9{fill:#f7931e;}.cls-10{fill:#f7cc6f;}.cls-11{fill:#faff96;}.cls-12{fill:#f4ff1f;}.cls-13{fill:#8c6239;}.cls-14{fill:#6b4b2c;}.cls-15,.cls-16{fill:none;stroke-miterlimit:10;}.cls-15{stroke:#754c24;}.cls-16{stroke:#004203;stroke-linecap:round;stroke-width:2px;}.cls-17{fill:#691518;}.cls-18{fill:#ff5559;}.cls-19{fill:#a62226;}.cls-20{fill:#a2b400;}.cls-21{fill:#197d38;}.cls-22{fill:#166b2f;}.cls-23{fill:#1d8f3f;}.cls-24{fill:#22a649;}.cls-25{fill:#7ca622;}.cls-26{opacity:0.3;}</style>
    </defs>
    <title>martini</title>
    <g id="Layer_2" data-name="Layer 2">
        <g id="base" class="cls-1">
            <rect class="cls-2" width="500" height="500"/>
        </g>
        <g id="glass">
            <path class="cls-3" d="M330,444c-5-3-48.5-12-54.5-19s-13-13-14-23-3.71-167,5-196c19-25,123-153,130-162h-293c7,9,111,137,130,162,8.71,29,6,186,5,196s-8,16-14,23S175,441,170,444s-5,11-5,11,37,11,85,11,85-11,85-11S335,447,330,444Z"/>
        </g>
        <g id="cuts">
            <path class="cls-3" d="M211.33,156c11.84,14.17,21,24.53,23.67,25.62,8.27,3.42,11.33,4.27,15,4.27s6.73-.85,15-4.27c2.63-1.09,11.83-11.45,23.67-25.62Z"/>
            <path class="cls-3" d="M211.33,156h77.34c7.48-8.94,16-19.39,24.62-30H186.71C195.33,136.61,203.85,147.06,211.33,156Z"/>
            <path class="cls-3" d="M186.71,126H313.29c8.34-10.28,16.76-20.69,24.36-30H162.35C170,105.31,178.37,115.72,186.71,126Z"/>
            <path class="cls-3" d="M137,66.17c4.82,4.93,14.2,16.19,25.35,29.83h175.3C348.8,82.36,358.18,71.1,363,66.17c-.32-.07-8.7-.13-22.05-.17H159.05C145.7,66,137.32,66.1,137,66.17Z"/>
        </g>
        <g id="lemon">
            <path class="cls-4" d="M99.64,16.06C70.72,32.55,59.86,68,75.38,95.21L180.11,35.48C164.59,8.26,128.56-.43,99.64,16.06Z"/>
            <path class="cls-5" d="M102,20.74C76.09,35.52,66.5,67.52,80.59,92.23l93.84-53.51C160.34,14,127.91,6,102,20.74Z"/>
            <path class="cls-6" d="M104.16,22.85C79.39,37,70.08,67.33,83.38,90.64l89.71-51.15C159.79,16.17,128.93,8.72,104.16,22.85Z"/>
            <polygon class="cls-5" points="75.79 74.74 127.58 65.42 75.5 71.85 75.79 74.74"/>
            <polyline class="cls-5" points="87.2 34.77 85.38 37.04 127.18 65.06"/>
            <polygon class="cls-5" points="120.19 14.94 127.63 64.02 117.36 15.62 120.19 14.94"/>
            <polygon class="cls-5" points="158.35 22.61 127.44 65.05 155.88 21.09 158.35 22.61"/>
            <path class="cls-5" d="M131.08,63.44a4.13,4.13,0,0,0-6.43-1,4.2,4.2,0,0,0-.64,5Z"/>
        </g>
        <g id="lime">
            <path class="cls-7" d="M99.75,16.06C70.83,32.55,60,68,75.49,95.21L180.22,35.48C164.7,8.26,128.67-.43,99.75,16.06Z"/>
            <path class="cls-5" d="M102.11,20.74C76.2,35.52,66.62,67.52,80.7,92.23l93.84-53.51C160.45,14,128,6,102.11,20.74Z"/>
            <path class="cls-8" d="M104.27,22.85C79.5,37,70.2,67.33,83.49,90.64L173.2,39.49C159.9,16.17,129,8.72,104.27,22.85Z"/>
            <polygon class="cls-5" points="75.9 74.74 127.69 65.42 75.61 71.85 75.9 74.74"/>
            <polyline class="cls-5" points="87.31 34.77 85.5 37.04 127.29 65.06"/>
            <polygon class="cls-5" points="120.3 14.94 127.75 64.02 117.47 15.62 120.3 14.94"/>
            <polygon class="cls-5" points="158.47 22.61 127.55 65.05 155.99 21.09 158.47 22.61"/>
            <path class="cls-5" d="M131.19,63.44a4.13,4.13,0,0,0-6.43-1,4.19,4.19,0,0,0-.63,5Z"/>
        </g>
        <g id="orange">
            <path class="cls-9" d="M99,16.06C70.08,32.55,59.22,68,74.74,95.21L179.47,35.48C164,8.26,127.92-.43,99,16.06Z"/>
            <path class="cls-5" d="M101.36,20.74C75.45,35.52,65.86,67.52,80,92.23l93.84-53.51C159.7,14,127.27,6,101.36,20.74Z"/>
            <path class="cls-10" d="M103.52,22.85C78.75,37,69.45,67.33,82.74,90.64l89.71-51.15C159.15,16.17,128.29,8.72,103.52,22.85Z"/>
            <polygon class="cls-5" points="75.15 74.74 126.94 65.42 74.86 71.85 75.15 74.74"/>
            <polyline class="cls-5" points="86.56 34.77 84.75 37.04 126.54 65.06"/>
            <polygon class="cls-5" points="119.55 14.94 127 64.02 116.72 15.62 119.55 14.94"/>
            <polygon class="cls-5" points="157.72 22.61 126.8 65.05 155.24 21.09 157.72 22.61"/>
            <path class="cls-5" d="M130.44,63.44a4.13,4.13,0,0,0-6.43-1,4.19,4.19,0,0,0-.63,5Z"/>
        </g>
        <g id="lemon_zest" data-name="lemon zest">
            <polygon class="cls-11" points="405.01 52.6 415.59 49.88 392.9 13.44 382.32 16.16 405.01 52.6"/>
            <polygon class="cls-11" points="380.01 59.02 390.59 56.3 367.9 19.86 357.33 22.58 380.01 59.02"/>
            <polygon class="cls-11" points="355.04 65.55 365.62 62.83 342.93 26.39 332.36 29.11 355.04 65.55"/>
            <polygon class="cls-12" points="407.32 9.73 417.9 7.02 415.59 49.88 405.01 52.6 407.32 9.73"/>
            <polyline class="cls-12" points="392.9 13.44 390.59 56.3 380.01 59.02 382.32 16.16"/>
            <polyline class="cls-12" points="367.93 19.97 365.62 62.83 355.04 65.55 357.35 22.68"/>
            <polyline class="cls-12" points="342.93 26.39 340.62 69.25 330.05 71.97 332.36 29.11"/>
        </g>
        <g id="cinnamon">
            <path class="cls-13" d="M92.87,32.46c1-3.42-.3-6.85-2.82-7.66s-5.36,1.33-6.33,4.75l3.73-13.21c-1.08,3.83.09,7.59,2.62,8.39s5.45-1.65,6.53-5.48-.08-7.58-2.61-8.38L256.75,62.65,249.29,89,86.54,37.21C89.06,38,91.9,35.89,92.87,32.46Z"/>
            <ellipse class="cls-14" cx="92.03" cy="17.8" rx="7.21" ry="4.8" transform="translate(52.03 102.57) rotate(-75.69)"/>
            <ellipse class="cls-14" cx="88.29" cy="31.01" rx="6.45" ry="4.8" transform="translate(37.54 109.63) rotate(-76.51)"/>
            <ellipse class="cls-13" cx="254.13" cy="69.38" rx="7.21" ry="4.8" transform="translate(124.07 298.47) rotate(-75.69)"/>
            <ellipse class="cls-13" cx="250.39" cy="82.59" rx="6.45" ry="4.8" transform="translate(111.67 306.8) rotate(-76.51)"/>
            <line class="cls-15" x1="89.41" y1="24.52" x2="251.52" y2="76.1"/>
        </g>
        <g id="cherry">
            <path class="cls-2" d="M349,74.79c1.86-7.71-2.66-15.15-10.09-16.64a15.32,15.32,0,0,0-8.68.86c-2-1.73-4.93-3.77-7.48-4.08A15.19,15.19,0,0,0,305.87,66.2a23.41,23.41,0,0,0-.34,10.74c.89,4,7.62,13,16.75,14.78,8.27,1.65,17.7-3,20.66-6A24,24,0,0,0,349,74.79Z"/>
            <path class="cls-16" d="M328.88,61.47s3.78-20.23,11.07-36.4S352.42,6.35,352.42,6.35c.61,3.52,1,3.14,1,3.14"/>
            <path class="cls-17" d="M326.42,59.07a4.35,4.35,0,0,0,.36,1.81,2,2,0,0,0,1.35.74,4.4,4.4,0,0,0,1.78.21,18.5,18.5,0,0,0,1.94-.31,4.31,4.31,0,0,1-1.79,1.08,3.57,3.57,0,0,1-1.1.16,6.66,6.66,0,0,1-1.07-.17,3.43,3.43,0,0,1-1.05-.43,1.81,1.81,0,0,1-.77-1A2.64,2.64,0,0,1,326.42,59.07Z"/>
            <path class="cls-18" d="M313.1,61.2a23.8,23.8,0,0,0-3.15,13,9.44,9.44,0,0,1-.7-3.45,13.17,13.17,0,0,1,.37-3.53,13.83,13.83,0,0,1,1.3-3.3A9.74,9.74,0,0,1,313.1,61.2Z"/>
        </g>
        <g id="strawberry">
            <path class="cls-19" d="M377.92,48.14c-6,16-29.8,34-38.06,30.93s-14.2-32.39-8.19-48.35,17.2-14.27,30-9.46S383.93,32.18,377.92,48.14Z"/>
            <path class="cls-20" d="M337.36,28.41a4.42,4.42,0,0,0,.12-1.44,4.41,4.41,0,0,0-.86,1.17c-.19.51-.09.73.12.81S337.16,28.92,337.36,28.41Z"/>
            <path class="cls-20" d="M341.57,31.05a4.42,4.42,0,0,0,.12-1.44,4.65,4.65,0,0,0-.86,1.17c-.19.51-.09.73.12.81S341.38,31.57,341.57,31.05Z"/>
            <path class="cls-20" d="M347.41,33.72a4.59,4.59,0,0,0,.13-1.45,4.41,4.41,0,0,0-.86,1.17c-.2.51-.09.74.11.81S347.22,34.23,347.41,33.72Z"/>
            <path class="cls-20" d="M353.86,36.48A4.53,4.53,0,0,0,354,35a4.41,4.41,0,0,0-.86,1.17c-.2.51-.09.73.11.81S353.67,37,353.86,36.48Z"/>
            <path class="cls-20" d="M372.21,41.54a4.41,4.41,0,0,1,.86-1.17,4.29,4.29,0,0,1-.13,1.45c-.19.51-.41.61-.62.53S372,42.05,372.21,41.54Z"/>
            <path class="cls-20" d="M367,40.55a4.41,4.41,0,0,1,.86-1.17,4.53,4.53,0,0,1-.13,1.44c-.19.51-.42.61-.62.54S366.77,41.06,367,40.55Z"/>
            <path class="cls-20" d="M360.81,38.69a4.41,4.41,0,0,1,.86-1.17,4.29,4.29,0,0,1-.13,1.45c-.19.51-.41.61-.62.53S360.62,39.2,360.81,38.69Z"/>
            <path class="cls-20" d="M334.87,32.78a4.59,4.59,0,0,0,.13-1.45,4.34,4.34,0,0,0-.86,1.18c-.2.51-.09.73.11.8S334.68,33.29,334.87,32.78Z"/>
            <path class="cls-20" d="M339.05,36.62a4.59,4.59,0,0,0,.13-1.45,4.41,4.41,0,0,0-.86,1.17c-.19.51-.09.73.11.81S338.86,37.13,339.05,36.62Z"/>
            <path class="cls-20" d="M345.89,39.58a4.47,4.47,0,0,0,.12-1.45,4.65,4.65,0,0,0-.86,1.17c-.19.51-.09.74.12.81S345.7,40.09,345.89,39.58Z"/>
            <path class="cls-20" d="M352.34,42.35a4.48,4.48,0,0,0,.12-1.45,4.41,4.41,0,0,0-.86,1.17c-.19.51-.09.73.12.81S352.14,42.86,352.34,42.35Z"/>
            <path class="cls-20" d="M370.68,47.4a4.59,4.59,0,0,1,.87-1.17,4.59,4.59,0,0,1-.13,1.45c-.19.51-.42.61-.62.53S370.49,47.91,370.68,47.4Z"/>
            <path class="cls-20" d="M364.33,45a4.41,4.41,0,0,1,.86-1.17,4.59,4.59,0,0,1-.13,1.45c-.19.51-.42.61-.62.53S364.13,45.52,364.33,45Z"/>
            <path class="cls-21" d="M362.25,21.09s-5.35-11-16.62-6.26-16.82,2.65-16.82,2.65,8.12,12,17.91,11.24S360.77,25,362.25,21.09Z"/>
            <path class="cls-22" d="M355.93,22.86s9.15-10.69,16.38-4.93S385,22,385,22s-11.87,11.51-19.59,9.86S355.46,27,355.93,22.86Z"/>
            <path class="cls-21" d="M360.58,20.46s11.27-4.73,16.62,6.26,10.88,13.09,10.88,13.09-14,3.69-20.87-3.37S359.09,24.4,360.58,20.46Z"/>
            <path class="cls-23" d="M359.85,18.85s-9.82-5.43-17.3,3.5-13.26,10.1-13.26,10.1,12.7,4.84,20.77-.5S360.43,22.44,359.85,18.85Z"/>
            <path class="cls-24" d="M359.84,18.66s12.21,2.86,10.59,13.12,1.91,14.63,1.91,14.63-14-5-15.82-13.46S356.38,20.5,359.84,18.66Z"/>
            <path class="cls-20" d="M357.79,44a4.41,4.41,0,0,1,.86-1.17,4.59,4.59,0,0,1-.13,1.45c-.19.51-.42.61-.62.53S357.59,44.5,357.79,44Z"/>
            <path class="cls-20" d="M332.46,39.18a4.59,4.59,0,0,0,.13-1.45,4.41,4.41,0,0,0-.86,1.17c-.19.51-.09.73.11.81S332.27,39.69,332.46,39.18Z"/>
            <path class="cls-20" d="M337.8,42.17a4.42,4.42,0,0,0,.12-1.44,4.65,4.65,0,0,0-.86,1.17c-.19.51-.08.73.12.81S337.61,42.68,337.8,42.17Z"/>
            <path class="cls-20" d="M344.36,45.44a4.29,4.29,0,0,0,.13-1.45,4.41,4.41,0,0,0-.86,1.17c-.19.52-.09.74.11.81S344.17,46,344.36,45.44Z"/>
            <path class="cls-20" d="M350.81,48.21a4.29,4.29,0,0,0,.13-1.45,4.41,4.41,0,0,0-.86,1.17c-.19.51-.09.73.11.81S350.62,48.72,350.81,48.21Z"/>
            <path class="cls-20" d="M369.16,53.26a4.41,4.41,0,0,1,.86-1.17,4.47,4.47,0,0,1-.12,1.45c-.2.51-.42.61-.62.53S369,53.78,369.16,53.26Z"/>
            <path class="cls-20" d="M362.66,50.55a4.41,4.41,0,0,1,.86-1.17,4.47,4.47,0,0,1-.12,1.45c-.2.51-.42.61-.62.53S362.47,51.06,362.66,50.55Z"/>
            <path class="cls-20" d="M356.26,49.85a4.65,4.65,0,0,1,.86-1.17,4.47,4.47,0,0,1-.12,1.45c-.19.51-.42.61-.62.53S356.07,50.36,356.26,49.85Z"/>
            <path class="cls-20" d="M331.71,47.74a4.42,4.42,0,0,0,.12-1.44,4.65,4.65,0,0,0-.86,1.17c-.19.51-.08.73.12.81S331.52,48.25,331.71,47.74Z"/>
            <path class="cls-20" d="M337,48.64a4.47,4.47,0,0,0,.12-1.45,4.65,4.65,0,0,0-.86,1.17c-.19.51-.09.73.12.81S336.81,49.15,337,48.64Z"/>
            <path class="cls-20" d="M342.84,51.3a4.59,4.59,0,0,0,.13-1.45,4.34,4.34,0,0,0-.86,1.18c-.2.51-.09.73.11.81S342.65,51.81,342.84,51.3Z"/>
            <path class="cls-20" d="M349.29,54.07a4.59,4.59,0,0,0,.13-1.45,4.41,4.41,0,0,0-.86,1.17c-.2.51-.09.73.11.81S349.1,54.58,349.29,54.07Z"/>
            <path class="cls-20" d="M367.64,59.13A4.23,4.23,0,0,1,368.5,58a4.53,4.53,0,0,1-.13,1.44c-.19.51-.41.61-.62.54S367.45,59.64,367.64,59.13Z"/>
            <path class="cls-20" d="M361.14,56.41a4.41,4.41,0,0,1,.86-1.17,4.59,4.59,0,0,1-.13,1.45c-.19.51-.42.61-.62.53S360.94,56.93,361.14,56.41Z"/>
            <path class="cls-20" d="M354.74,55.71a4.41,4.41,0,0,1,.86-1.17,4.29,4.29,0,0,1-.13,1.45c-.19.51-.41.61-.62.53S354.55,56.22,354.74,55.71Z"/>
            <path class="cls-20" d="M332.07,55.15a4.59,4.59,0,0,0,.13-1.45,4.41,4.41,0,0,0-.86,1.17c-.19.51-.09.73.11.81S331.88,55.66,332.07,55.15Z"/>
            <path class="cls-20" d="M335.47,54.5a4.29,4.29,0,0,0,.13-1.45,4.41,4.41,0,0,0-.86,1.17c-.19.51-.09.73.11.81S335.28,55,335.47,54.5Z"/>
            <path class="cls-20" d="M341.32,57.16a4.42,4.42,0,0,0,.12-1.44,4.41,4.41,0,0,0-.86,1.17c-.19.51-.09.73.12.81S341.12,57.67,341.32,57.16Z"/>
            <path class="cls-20" d="M347.77,59.93a4.47,4.47,0,0,0,.12-1.45,4.41,4.41,0,0,0-.86,1.17c-.19.51-.09.73.12.81S347.57,60.44,347.77,59.93Z"/>
            <path class="cls-20" d="M359.61,62.28a4.45,4.45,0,0,1,.86-1.17,4.42,4.42,0,0,1-.12,1.44c-.19.51-.42.61-.62.54S359.42,62.79,359.61,62.28Z"/>
            <path class="cls-20" d="M353.22,61.57a4.41,4.41,0,0,1,.86-1.17,4.59,4.59,0,0,1-.13,1.45c-.19.51-.42.61-.62.53S353,62.08,353.22,61.57Z"/>
            <path class="cls-20" d="M334,60.36a4.59,4.59,0,0,0,.13-1.45,4.41,4.41,0,0,0-.86,1.17c-.2.51-.09.74.11.81S333.76,60.87,334,60.36Z"/>
            <path class="cls-20" d="M339.79,63a4.24,4.24,0,0,0,.13-1.44,4.41,4.41,0,0,0-.86,1.17c-.19.51-.09.73.11.81S339.6,63.53,339.79,63Z"/>
            <path class="cls-20" d="M346.24,65.79a4.29,4.29,0,0,0,.13-1.45,4.41,4.41,0,0,0-.86,1.17c-.19.51-.09.74.11.81S346.05,66.3,346.24,65.79Z"/>
            <path class="cls-20" d="M351.69,67.43a4.65,4.65,0,0,1,.86-1.17,4.47,4.47,0,0,1-.12,1.45c-.2.51-.42.61-.62.53S351.5,67.94,351.69,67.43Z"/>
            <path class="cls-20" d="M338.27,68.88a4.53,4.53,0,0,0,.13-1.44,4.41,4.41,0,0,0-.86,1.17c-.2.51-.09.73.11.81S338.08,69.4,338.27,68.88Z"/>
            <path class="cls-20" d="M344.72,71.65a4.59,4.59,0,0,0,.13-1.45,4.41,4.41,0,0,0-.86,1.17c-.2.51-.09.74.11.81S344.53,72.16,344.72,71.65Z"/>
            <path class="cls-20" d="M350.17,73.29a4.41,4.41,0,0,1,.86-1.17,4.29,4.29,0,0,1-.13,1.45c-.19.51-.41.61-.62.53S350,73.81,350.17,73.29Z"/>
            <path class="cls-20" d="M335.17,66.92a4.47,4.47,0,0,0,.12-1.45,4.65,4.65,0,0,0-.86,1.17c-.19.51-.08.74.12.81S335,67.43,335.17,66.92Z"/>
            <path class="cls-20" d="M338.86,75.2a4.47,4.47,0,0,0,.12-1.45,4.41,4.41,0,0,0-.86,1.17c-.19.51-.09.73.12.81S338.66,75.71,338.86,75.2Z"/>
            <path class="cls-20" d="M345,76.36a4.42,4.42,0,0,0,.12-1.44,4.41,4.41,0,0,0-.86,1.17c-.19.51-.09.73.12.81S344.76,76.87,345,76.36Z"/>
            <path class="cls-20" d="M356.54,68.2A4.41,4.41,0,0,1,357.4,67a4.29,4.29,0,0,1-.13,1.45c-.19.51-.41.61-.62.53S356.35,68.71,356.54,68.2Z"/>
            <path class="cls-20" d="M362.74,65.57a4.41,4.41,0,0,1,.86-1.17,4.53,4.53,0,0,1-.13,1.44c-.19.52-.41.61-.62.54S362.55,66.08,362.74,65.57Z"/>
            <path class="cls-20" d="M374,51.3a4.59,4.59,0,0,1,.87-1.17,4.59,4.59,0,0,1-.13,1.45c-.19.51-.42.61-.62.53S373.81,51.81,374,51.3Z"/>
            <path class="cls-20" d="M376,44.83a4.41,4.41,0,0,1,.86-1.17,4.47,4.47,0,0,1-.12,1.45c-.2.51-.42.61-.62.53S375.83,45.34,376,44.83Z"/>
            <ellipse class="cls-25" cx="360.77" cy="19.96" rx="1.74" ry="5.28" transform="translate(289.41 374.17) rotate(-81.78)"/>
        </g>
        <g id="ice">
            <rect class="cls-26" x="218.92" y="118.34" width="47.27" height="50.95" transform="translate(-38.33 118.94) rotate(-25.6)"/>
            <rect class="cls-26" x="236.49" y="80.19" width="47.27" height="50.95" transform="matrix(0.96, 0.26, -0.26, 0.96, 37.26, -65.11)"/>
            <rect class="cls-26" x="181.96" y="66.6" width="47.27" height="50.95" transform="translate(-16.26 52.97) rotate(-14.13)"/>
            <rect class="cls-26" x="273.91" y="61.7" width="47.27" height="50.95" transform="translate(-12.28 75.27) rotate(-14.13)"/>
        </g>
    </g>
</svg>