<svg xmlns="http://www.w3.org/2000/svg" viewBox="0 0 500 500"><defs><style>.cls-1{opacity:0;}.cls-2{fill:#c1272d;}.cls-3{fill:#fff;}.cls-4{fill:none;}.cls-5{fill:#f8ff6a;}.cls-6{fill:#f7f7f7;}.cls-7{fill:#fdffad;}.cls-8{fill:#30ab14;}.cls-9{fill:#dce06c;}</style></defs><title>martini_whole</title><g id="Layer_2" data-name="Layer 2"><g id="base" class="cls-1"><rect class="cls-2" width="500" height="500"/></g><g id="glass"><path class="cls-3" d="M330,444c-5-3-48.5-12-54.5-19s-13-13-14-23-3.71-167,5-196c19-25,123-153,130-162h-293c7,9,111,137,130,162,8.71,29,6,186,5,196s-8,16-14,23S175,441,170,444s-5,11-5,11,37,11,85,11,85-11,85-11S335,447,330,444Z"/></g><g id="whole"><path class="cls-4" d="M137,66.17c16.87,17.28,89.73,112,98,115.45s11.33,4.27,15,4.27,6.73-.85,15-4.27,81.13-98.17,98-115.45C361.31,65.8,138.69,65.8,137,66.17Z"/></g><g id="lemon"><path class="cls-5" d="M99.64,16.06C70.72,32.55,59.86,68,75.38,95.21L180.11,35.48C164.59,8.26,128.56-.43,99.64,16.06Z"/><path class="cls-6" d="M102,20.74C76.09,35.52,66.5,67.52,80.59,92.23l93.84-53.51C160.34,14,127.91,6,102,20.74Z"/><path class="cls-7" d="M104.16,22.85C79.39,37,70.08,67.33,83.38,90.64l89.71-51.15C159.79,16.17,128.93,8.72,104.16,22.85Z"/><polygon class="cls-6" points="75.79 74.74 127.58 65.42 75.5 71.85 75.79 74.74"/><polyline class="cls-6" points="87.2 34.77 85.38 37.04 127.18 65.06"/><polygon class="cls-6" points="120.19 14.94 127.63 64.02 117.36 15.62 120.19 14.94"/><polygon class="cls-6" points="158.35 22.61 127.44 65.05 155.88 21.09 158.35 22.61"/><path class="cls-6" d="M131.08,63.44a4.13,4.13,0,0,0-6.43-1,4.2,4.2,0,0,0-.64,5Z"/></g><g id="lime"><path class="cls-8" d="M99.75,16.06C70.83,32.55,60,68,75.49,95.21L180.22,35.48C164.7,8.26,128.67-.43,99.75,16.06Z"/><path class="cls-6" d="M102.11,20.74C76.2,35.52,66.62,67.52,80.7,92.23l93.84-53.51C160.45,14,128,6,102.11,20.74Z"/><path class="cls-9" d="M104.27,22.85C79.5,37,70.2,67.33,83.49,90.64L173.2,39.49C159.9,16.17,129,8.72,104.27,22.85Z"/><polygon class="cls-6" points="75.9 74.74 127.69 65.42 75.61 71.85 75.9 74.74"/><polyline class="cls-6" points="87.31 34.77 85.5 37.04 127.29 65.06"/><polygon class="cls-6" points="120.3 14.94 127.75 64.02 117.47 15.62 120.3 14.94"/><polygon class="cls-6" points="158.47 22.61 127.55 65.05 155.99 21.09 158.47 22.61"/><path class="cls-6" d="M131.19,63.44a4.13,4.13,0,0,0-6.43-1,4.19,4.19,0,0,0-.63,5Z"/></g></g></svg>