<svg xmlns="http://www.w3.org/2000/svg" viewBox="0 0 500 500">
    <defs>
        <style>.cls-1{opacity:0;}.cls-2{fill:#c1272d;}.cls-26,.cls-3{fill:#fff;}.cls-4{fill:#f8ff6a;}.cls-5{fill:#f7f7f7;}.cls-6{fill:#fdffad;}.cls-7{fill:#30ab14;}.cls-8{fill:#dce06c;}.cls-9{fill:#f7931e;}.cls-10{fill:#f7cc6f;}.cls-11{fill:#faff96;}.cls-12{fill:#f4ff1f;}.cls-13{fill:#8c6239;}.cls-14{fill:#6b4b2c;}.cls-15,.cls-16{fill:none;stroke-miterlimit:10;}.cls-15{stroke:#754c24;}.cls-16{stroke:#004203;stroke-linecap:round;stroke-width:2px;}.cls-17{fill:#691518;}.cls-18{fill:#ff5559;}.cls-19{fill:#a62226;}.cls-20{fill:#a2b400;}.cls-21{fill:#197d38;}.cls-22{fill:#166b2f;}.cls-23{fill:#1d8f3f;}.cls-24{fill:#22a649;}.cls-25{fill:#7ca622;}.cls-26{opacity:0.3;}</style>
    </defs>
    <title>whiskey</title>
    <g id="Layer_2" data-name="Layer 2">
        <g id="base" class="cls-1">
            <rect class="cls-2" width="500" height="500"/>
        </g>
        <g id="glass">
            <path class="cls-3" d="M369.5,195h-239l17,263.94s51.35,7,102,7.06h1c50.65-.09,102-7.06,102-7.06Z"/>
        </g>
        <g id="cuts">
            <path class="cls-3" d="M156.31,390c1,11.8,1.69,19.38,1.69,19.38s26.44,7.56,92,7.56,92-7.56,92-7.56.67-7.58,1.69-19.38Z"/>
            <path class="cls-3" d="M343.7,389.9c.66-7.56,1.45-16.85,2.31-27H154c.86,10.15,1.65,19.44,2.31,27Z"/>
            <path class="cls-3" d="M346,362.8c.73-8.57,1.5-17.74,2.26-27H151.72c.76,9.26,1.53,18.43,2.26,27Z"/>
            <path class="cls-3" d="M348.29,335.7c.75-9.08,1.49-18.24,2.18-27H149.53c.69,8.76,1.43,17.92,2.18,27Z"/>
            <path class="cls-3" d="M350.48,308.6c.76-9.73,1.46-19,2-27h-205c.57,8,1.27,17.27,2,27Z"/>
            <path class="cls-3" d="M147.48,281.5h205c.9-12.7,1.48-22.44,1.48-26.56H146C146,259.06,146.58,268.8,147.48,281.5Z"/>
        </g>
        <g id="lemon">
            <path class="cls-4" d="M109.72,158.09C71.64,179.8,57.34,226.45,77.78,262.28l137.87-78.62C195.22,147.82,147.79,136.38,109.72,158.09Z"/>
            <path class="cls-5" d="M112.82,164.25c-34.11,19.45-46.73,61.59-28.18,94.12l123.53-70.45C189.63,155.4,146.94,144.8,112.82,164.25Z"/>
            <path class="cls-6" d="M115.67,167c-32.61,18.59-44.86,58.55-27.36,89.24l118.1-67.34C188.91,158.24,148.28,148.43,115.67,167Z"/>
            <polygon class="cls-5" points="78.32 235.34 146.5 223.08 77.94 231.53 78.32 235.34"/>
            <polyline class="cls-5" points="93.34 182.72 90.95 185.71 145.97 222.59"/>
            <polygon class="cls-5" points="136.77 156.62 146.57 221.22 133.05 157.51 136.77 156.62"/>
            <polygon class="cls-5" points="187.02 166.72 146.32 222.58 183.76 164.71 187.02 166.72"/>
            <path class="cls-5" d="M151.11,220.46a5.55,5.55,0,0,0-.8-1.09,5.36,5.36,0,0,0-7.67-.23,5.51,5.51,0,0,0-.83,6.63Z"/>
        </g>
        <g id="lime">
            <path class="cls-7" d="M110,158.45C72.4,179.9,58.27,226,78.46,261.39l136.22-77.68C194.49,148.31,147.63,137,110,158.45Z"/>
            <path class="cls-5" d="M113.09,164.54c-33.71,19.22-46.17,60.85-27.84,93l122-69.59C189,155.79,146.79,145.32,113.09,164.54Z"/>
            <path class="cls-8" d="M115.9,167.28c-32.22,18.38-44.32,57.85-27,88.18l116.68-66.54C188.25,158.6,148.12,148.91,115.9,167.28Z"/>
            <polygon class="cls-5" points="79 234.77 146.36 222.66 78.62 231.01 79 234.77"/>
            <polyline class="cls-5" points="93.84 182.79 91.48 185.74 145.84 222.18"/>
            <polygon class="cls-5" points="136.75 157 146.43 220.82 133.07 157.88 136.75 157"/>
            <polygon class="cls-5" points="186.39 166.97 146.18 222.17 183.16 164.99 186.39 166.97"/>
            <path class="cls-5" d="M150.91,220.07a5.43,5.43,0,0,0-.79-1.08,5.3,5.3,0,0,0-7.58-.22,5.45,5.45,0,0,0-.82,6.55Z"/>
        </g>
        <g id="orange">
            <path class="cls-9" d="M109.86,158.34c-37.64,21.46-51.77,67.58-31.58,103l136.3-77.72C194.38,148.2,147.49,136.88,109.86,158.34Z"/>
            <path class="cls-5" d="M112.93,164.43c-33.72,19.23-46.19,60.89-27.86,93l122.11-69.64C188.85,155.68,146.65,145.2,112.93,164.43Z"/>
            <path class="cls-10" d="M115.74,167.18c-32.24,18.38-44.34,57.88-27,88.22l116.74-66.57C188.14,158.49,148,148.8,115.74,167.18Z"/>
            <polygon class="cls-5" points="78.82 234.7 146.22 222.58 78.44 230.94 78.82 234.7"/>
            <polyline class="cls-5" points="93.67 182.69 91.31 185.65 145.7 222.11"/>
            <polygon class="cls-5" points="136.6 156.89 146.29 220.75 132.92 157.77 136.6 156.89"/>
            <polygon class="cls-5" points="186.27 166.87 146.04 222.09 183.04 164.89 186.27 166.87"/>
            <path class="cls-5" d="M150.78,220a6.35,6.35,0,0,0-.8-1.09,5.3,5.3,0,0,0-7.58-.22,5.47,5.47,0,0,0-.82,6.56Z"/>
        </g>
        <g id="lemon_zest" data-name="lemon zest">
            <polygon class="cls-11" points="388.53 201.42 400.79 191.73 339.54 143.96 327.27 153.65 388.53 201.42"/>
            <polygon class="cls-11" points="359.54 224.31 371.8 214.62 310.55 166.86 298.28 176.54 359.54 224.31"/>
            <polygon class="cls-11" points="330.67 247.36 342.93 237.67 281.68 189.91 269.41 199.59 330.67 247.36"/>
            <polygon class="cls-12" points="356.26 130.76 368.53 121.07 400.79 191.73 388.53 201.42 356.26 130.76"/>
            <polyline class="cls-12" points="339.54 143.96 371.8 214.62 359.54 224.31 327.27 153.65"/>
            <polyline class="cls-12" points="310.67 167.01 342.93 237.67 330.67 247.36 298.4 176.7"/>
            <polyline class="cls-12" points="281.68 189.91 313.94 260.57 301.67 270.25 269.41 199.59"/>
        </g>
        <g id="cinnamon">
            <path class="cls-13" d="M126.39,178.85c1.8-3.95,1.16-8.34-1.43-9.81s-6.14.55-7.95,4.5L124,158.31c-2,4.41-1.55,9.18,1,10.65s6.32-.93,8.33-5.34,1.55-9.18-1-10.65L299,247.45l-13.85,30.38L118.44,183.35C121,184.81,124.58,182.8,126.39,178.85Z"/>
            <ellipse class="cls-14" cx="128.65" cy="160.96" rx="8.81" ry="5.35" transform="matrix(0.37, -0.93, 0.93, 0.37, -68.31, 221.53)"/>
            <ellipse class="cls-14" cx="121.7" cy="176.19" rx="7.89" ry="5.35" transform="translate(-85.66 229.65) rotate(-69.82)"/>
            <ellipse class="cls-13" cx="294.67" cy="255.07" rx="8.81" ry="5.35" transform="translate(-50.77 435.51) rotate(-68.46)"/>
            <ellipse class="cls-13" cx="287.72" cy="270.3" rx="7.89" ry="5.35" transform="translate(-65.23 447.12) rotate(-69.82)"/>
            <line class="cls-15" x1="124.33" y1="168.58" x2="290.35" y2="262.68"/>
        </g>
        <g id="cherry">
            <path class="cls-2" d="M351.57,244.53c2.41-9.95-3.43-19.58-13-21.49a19.71,19.71,0,0,0-11.22,1.11c-2.58-2.25-6.37-4.88-9.66-5.28-9.77-1.18-19.36,4.6-21.77,14.56a30.21,30.21,0,0,0-.44,13.88c1.16,5.16,9.85,16.75,21.64,19.1,10.68,2.13,22.88-3.84,26.7-7.82A30.86,30.86,0,0,0,351.57,244.53Z"/>
            <path class="cls-16" d="M325.61,227.32s4.89-26.14,14.3-47S356,156.1,356,156.1c.8,4.55,1.28,4.06,1.28,4.06"/>
            <path class="cls-17" d="M322.43,224.22a5.22,5.22,0,0,0,.37,2.38,2.55,2.55,0,0,0,1.81,1.06,5.79,5.79,0,0,0,2.36.24,16.9,16.9,0,0,0,2.48-.52,5.93,5.93,0,0,1-2.33,1.29,4.57,4.57,0,0,1-1.39.18,9,9,0,0,1-1.36-.22,4.87,4.87,0,0,1-1.32-.53,2.32,2.32,0,0,1-1-1.19A3.58,3.58,0,0,1,322.43,224.22Z"/>
            <path class="cls-18" d="M305.23,227a28.33,28.33,0,0,0-3.39,8.1,27.08,27.08,0,0,0-.7,4.31,25.21,25.21,0,0,0,0,4.43,13.16,13.16,0,0,1-.79-4.45,17.84,17.84,0,0,1,2.15-8.78A13.61,13.61,0,0,1,305.23,227Z"/>
        </g>
        <g id="strawberry">
            <path class="cls-19" d="M359.33,193.59c4.68,21.7-8.64,58.31-19.9,60.77s-38.45-25.3-43.13-47,8.78-27.78,26.19-31.58S354.65,171.89,359.33,193.59Z"/>
            <path class="cls-20" d="M300.9,200.81a5.87,5.87,0,0,0-.88-1.67,5.78,5.78,0,0,0-.12,1.89c.15.69.42.86.7.8S301.05,201.51,300.9,200.81Z"/>
            <path class="cls-20" d="M307.39,200.71a5.66,5.66,0,0,0-.89-1.67,5.85,5.85,0,0,0-.11,1.89c.15.69.42.86.69.8S307.54,201.4,307.39,200.71Z"/>
            <path class="cls-20" d="M315.68,199.47a5.8,5.8,0,0,0-.89-1.67,5.88,5.88,0,0,0-.11,1.89c.15.7.42.87.69.81S315.83,200.17,315.68,199.47Z"/>
            <path class="cls-20" d="M324.71,197.92a5.8,5.8,0,0,0-.89-1.67,5.74,5.74,0,0,0-.12,1.89c.15.69.43.86.7.8S324.86,198.61,324.71,197.92Z"/>
            <path class="cls-20" d="M348.4,190.43a5.78,5.78,0,0,1,.12-1.89,5.87,5.87,0,0,1,.88,1.67c.15.7,0,1-.3,1S348.55,191.12,348.4,190.43Z"/>
            <path class="cls-20" d="M341.94,193.07a5.74,5.74,0,0,1,.12-1.89,5.72,5.72,0,0,1,.88,1.67c.15.69,0,1-.3,1S342.09,193.76,341.94,193.07Z"/>
            <path class="cls-20" d="M333.89,195.4a5.81,5.81,0,0,1,.11-1.88,5.66,5.66,0,0,1,.89,1.67c.15.69,0,1-.31,1S334,196.1,333.89,195.4Z"/>
            <path class="cls-20" d="M301.26,207.34a5.87,5.87,0,0,0-.88-1.67,5.78,5.78,0,0,0-.12,1.89c.15.7.42.87.7.81S301.41,208,301.26,207.34Z"/>
            <path class="cls-20" d="M308.56,208.57a5.66,5.66,0,0,0-.89-1.67,5.85,5.85,0,0,0-.11,1.89c.15.69.42.86.69.8S308.71,209.26,308.56,208.57Z"/>
            <path class="cls-20" d="M318.15,207a5.66,5.66,0,0,0-.89-1.67,5.85,5.85,0,0,0-.11,1.89c.15.69.42.86.69.8S318.3,207.65,318.15,207Z"/>
            <path class="cls-20" d="M327.17,205.4a5.87,5.87,0,0,0-.88-1.67,5.78,5.78,0,0,0-.12,1.89c.15.69.42.86.7.8S327.32,206.1,327.17,205.4Z"/>
            <path class="cls-20" d="M350.87,197.91A5.78,5.78,0,0,1,351,196a5.87,5.87,0,0,1,.88,1.67c.15.7,0,1-.3,1S351,198.61,350.87,197.91Z"/>
            <path class="cls-20" d="M342.21,199.81a5.85,5.85,0,0,1,.11-1.89,5.66,5.66,0,0,1,.89,1.67c.15.69,0,1-.31,1S342.36,200.5,342.21,199.81Z"/>
            <path class="cls-21" d="M323,175.16s-13.63-8.22-22.65,5-16.57,14.82-16.57,14.82,17.41,7.4,27.58-.43S324.19,180.51,323,175.16Z"/>
            <path class="cls-22" d="M317.35,181.56s2.49-18.15,14.49-17,16.83-4.51,16.83-4.51-4.89,21-14.52,24.66S319.73,186.39,317.35,181.56Z"/>
            <path class="cls-21" d="M320.75,175.66s9-13.17,22.66-4.95,21.18,6.57,21.18,6.57-12.8,14-25.27,11.12S321.91,181,320.75,175.66Z"/>
            <path class="cls-23" d="M318.81,174.41s-14.59,1-16.49,16.1-7.41,20.43-7.41,20.43,17.35-3.72,22.43-15.28S322,177.92,318.81,174.41Z"/>
            <path class="cls-24" d="M318.67,174.21s15.42-5.54,20.89,6.82S352,195.65,352,195.65s-18.91,4.4-26.86-3.48S316.18,178.68,318.67,174.21Z"/>
            <path class="cls-20" d="M334.31,203.33a5.78,5.78,0,0,1,.12-1.89,5.87,5.87,0,0,1,.88,1.67c.15.7,0,1-.3,1S334.46,204,334.31,203.33Z"/>
            <path class="cls-20" d="M303.14,216a5.66,5.66,0,0,0-.89-1.67,5.85,5.85,0,0,0-.11,1.89c.15.69.42.86.69.8S303.29,216.73,303.14,216Z"/>
            <path class="cls-20" d="M311.11,215.52a5.8,5.8,0,0,0-.89-1.67,5.88,5.88,0,0,0-.11,1.89c.14.7.42.87.69.81S311.26,216.22,311.11,215.52Z"/>
            <path class="cls-20" d="M320.62,214.44a5.66,5.66,0,0,0-.89-1.67,6.05,6.05,0,0,0-.12,1.89c.15.69.43.86.7.8S320.77,215.13,320.62,214.44Z"/>
            <path class="cls-20" d="M329.64,212.88a5.87,5.87,0,0,0-.88-1.67,5.78,5.78,0,0,0-.12,1.89c.15.7.42.87.7.8S329.79,213.58,329.64,212.88Z"/>
            <path class="cls-20" d="M353.34,205.39a5.78,5.78,0,0,1,.12-1.89,5.87,5.87,0,0,1,.88,1.67c.15.7,0,1-.3,1S353.49,206.09,353.34,205.39Z"/>
            <path class="cls-20" d="M344.3,207a5.81,5.81,0,0,1,.11-1.88,5.66,5.66,0,0,1,.89,1.67c.15.69,0,1-.31,1S344.44,207.74,344.3,207Z"/>
            <path class="cls-20" d="M336.78,210.81a5.7,5.7,0,0,1,.12-1.88,5.72,5.72,0,0,1,.88,1.67c.15.69,0,1-.3,1S336.93,211.51,336.78,210.81Z"/>
            <path class="cls-20" d="M308.36,225.93a5.72,5.72,0,0,0-.88-1.67,5.74,5.74,0,0,0-.12,1.89c.15.69.42.86.7.8S308.51,226.62,308.36,225.93Z"/>
            <path class="cls-20" d="M314.79,223.15a5.87,5.87,0,0,0-.88-1.67,5.78,5.78,0,0,0-.12,1.89c.15.7.42.87.7.81S314.94,223.85,314.79,223.15Z"/>
            <path class="cls-20" d="M323.08,221.92a5.87,5.87,0,0,0-.88-1.67,5.74,5.74,0,0,0-.12,1.89c.15.69.42.86.7.8S323.23,222.61,323.08,221.92Z"/>
            <path class="cls-20" d="M332.11,220.36a5.87,5.87,0,0,0-.88-1.67,5.78,5.78,0,0,0-.12,1.89c.15.7.42.87.7.81S332.26,221.06,332.11,220.36Z"/>
            <path class="cls-20" d="M355.81,212.88a5.74,5.74,0,0,1,.12-1.89,5.72,5.72,0,0,1,.88,1.67c.15.69,0,1-.3,1S356,213.57,355.81,212.88Z"/>
            <path class="cls-20" d="M346.76,214.53a5.74,5.74,0,0,1,.12-1.89,5.48,5.48,0,0,1,.88,1.67c.15.69,0,1-.3,1S346.91,215.22,346.76,214.53Z"/>
            <path class="cls-20" d="M339.25,218.3a5.74,5.74,0,0,1,.12-1.89,5.72,5.72,0,0,1,.88,1.67c.15.69,0,1-.3,1S339.4,219,339.25,218.3Z"/>
            <path class="cls-20" d="M314,233.76a5.66,5.66,0,0,0-.89-1.67A5.81,5.81,0,0,0,313,234c.15.7.42.87.7.81S314.14,234.45,314,233.76Z"/>
            <path class="cls-20" d="M317.26,230.64a5.72,5.72,0,0,0-.88-1.67,5.7,5.7,0,0,0-.12,1.88c.15.7.42.87.7.81S317.41,231.33,317.26,230.64Z"/>
            <path class="cls-20" d="M325.55,229.4a5.87,5.87,0,0,0-.88-1.67,5.78,5.78,0,0,0-.12,1.89c.15.69.42.86.7.8S325.7,230.1,325.55,229.4Z"/>
            <path class="cls-20" d="M334.58,227.85a5.72,5.72,0,0,0-.88-1.67,5.74,5.74,0,0,0-.12,1.89c.15.69.42.86.7.8S334.73,228.54,334.58,227.85Z"/>
            <path class="cls-20" d="M349.23,222a5.74,5.74,0,0,1,.12-1.89,5.72,5.72,0,0,1,.88,1.67c.15.69,0,1-.3,1S349.38,222.7,349.23,222Z"/>
            <path class="cls-20" d="M341.72,225.78a5.74,5.74,0,0,1,.12-1.89,5.72,5.72,0,0,1,.88,1.67c.15.69,0,1-.3,1S341.87,226.47,341.72,225.78Z"/>
            <path class="cls-20" d="M319.73,238.12a5.72,5.72,0,0,0-.88-1.67,5.74,5.74,0,0,0-.12,1.89c.15.69.42.86.7.8S319.88,238.81,319.73,238.12Z"/>
            <path class="cls-20" d="M328,236.88a5.87,5.87,0,0,0-.88-1.67,5.78,5.78,0,0,0-.12,1.89c.15.7.42.87.7.8S328.17,237.58,328,236.88Z"/>
            <path class="cls-20" d="M337.05,235.33a5.66,5.66,0,0,0-.89-1.67,5.85,5.85,0,0,0-.11,1.89c.15.69.42.86.69.8S337.2,236,337.05,235.33Z"/>
            <path class="cls-20" d="M344.19,233.26a5.85,5.85,0,0,1,.11-1.89,5.8,5.8,0,0,1,.89,1.67c.15.69,0,1-.31,1S344.34,234,344.19,233.26Z"/>
            <path class="cls-20" d="M330.49,244.36a5.87,5.87,0,0,0-.88-1.67,5.78,5.78,0,0,0-.12,1.89c.15.7.42.87.7.81S330.64,245.06,330.49,244.36Z"/>
            <path class="cls-20" d="M339.52,242.81a5.8,5.8,0,0,0-.89-1.67,5.85,5.85,0,0,0-.11,1.89c.15.69.42.86.69.8S339.67,243.5,339.52,242.81Z"/>
            <path class="cls-20" d="M346.66,240.74a5.88,5.88,0,0,1,.11-1.89,5.8,5.8,0,0,1,.89,1.67c.15.7,0,1-.31,1S346.81,241.44,346.66,240.74Z"/>
            <path class="cls-20" d="M325.7,244.42a5.87,5.87,0,0,0-.88-1.67,5.74,5.74,0,0,0-.12,1.89c.15.69.42.86.7.8S325.85,245.11,325.7,244.42Z"/>
            <path class="cls-20" d="M335.59,250.84a5.87,5.87,0,0,0-.88-1.67,5.78,5.78,0,0,0-.12,1.89c.15.7.42.86.7.8S335.74,251.54,335.59,250.84Z"/>
            <path class="cls-20" d="M343.11,247.79a5.8,5.8,0,0,0-.89-1.67,5.78,5.78,0,0,0-.12,1.89c.15.69.42.86.7.8S343.26,248.49,343.11,247.79Z"/>
            <path class="cls-20" d="M350.05,230.66a5.88,5.88,0,0,1,.11-1.89,5.8,5.8,0,0,1,.89,1.67c.15.7,0,1-.31,1S350.2,231.35,350.05,230.66Z"/>
            <path class="cls-20" d="M355,223.39a5.74,5.74,0,0,1,.12-1.89,5.66,5.66,0,0,1,.89,1.67c.15.69,0,1-.31,1S355.13,224.08,355,223.39Z"/>
            <path class="cls-20" d="M357.27,199.82a5.85,5.85,0,0,1,.11-1.89,5.66,5.66,0,0,1,.89,1.67c.15.69,0,1-.31,1S357.42,200.51,357.27,199.82Z"/>
            <path class="cls-20" d="M354.91,191.32a5.74,5.74,0,0,1,.12-1.89,5.87,5.87,0,0,1,.88,1.67c.15.69,0,1-.3,1S355.06,192,354.91,191.32Z"/>
            <ellipse class="cls-25" cx="320.61" cy="174.98" rx="6.9" ry="2.26" transform="translate(-43.79 150.05) rotate(-24.71)"/>
        </g>
        <g id="ice">
            <rect class="cls-26" x="191.56" y="348.63" width="52.68" height="56.78" transform="translate(-85.44 64.59) rotate(-14.13)"/>
            <rect class="cls-26" x="284.42" y="319.28" width="52.68" height="56.78" transform="translate(-107.34 141.18) rotate(-21.92)"/>
            <rect class="cls-26" x="158.78" y="323.61" width="52.68" height="56.78" transform="translate(-32.17 18.89) rotate(-5.38)"/>
            <rect class="cls-26" x="268.48" y="265.42" width="52.68" height="56.78" transform="translate(-107.59 400.13) rotate(-59.7)"/>
            <rect class="cls-26" x="161.85" y="256.91" width="52.68" height="56.78" transform="translate(100.26 -44.97) rotate(18.5)"/>
            <rect class="cls-26" x="216.79" y="266.84" width="52.68" height="56.78" transform="translate(-64.71 68.28) rotate(-14.13)"/>
            <rect class="cls-26" x="245.82" y="338.47" width="52.68" height="56.78" transform="translate(-176.59 281.55) rotate(-42.67)"/>
        </g>
    </g>
</svg>