<svg xmlns="http://www.w3.org/2000/svg" viewBox="0 0 500 500"><defs><style>.cls-1{opacity:0;}.cls-2{fill:#c1272d;}.cls-3{fill:#fff;}.cls-4,.cls-7{fill:none;}.cls-5{fill:#faff96;}.cls-6{fill:#f4ff1f;}.cls-7{stroke:#004203;stroke-linecap:round;stroke-miterlimit:10;stroke-width:2px;}.cls-8{fill:#691518;}.cls-9{fill:#ff5559;}</style></defs><title>whiskey_whole</title><g id="Layer_2" data-name="Layer 2"><g id="base" class="cls-1"><rect class="cls-2" width="500" height="500"/></g><g id="glass"><path class="cls-3" d="M369.5,195h-239l17,263.94s51.35,7,102,7.06h1c50.65-.09,102-7.06,102-7.06Z"/></g><g id="whole"><path class="cls-4" d="M146,254.94c0,18.8,12,154.44,12,154.44s26.44,7.56,92,7.56,92-7.56,92-7.56,12-135.64,12-154.44Z"/></g><g id="lemon_zest" data-name="lemon zest"><polygon class="cls-5" points="388.53 201.42 400.79 191.73 339.54 143.96 327.27 153.65 388.53 201.42"/><polygon class="cls-5" points="359.54 224.31 371.8 214.62 310.55 166.86 298.28 176.54 359.54 224.31"/><polygon class="cls-5" points="330.67 247.36 342.93 237.67 281.68 189.91 269.41 199.59 330.67 247.36"/><polygon class="cls-6" points="356.26 130.76 368.53 121.07 400.79 191.73 388.53 201.42 356.26 130.76"/><polyline class="cls-6" points="339.54 143.96 371.8 214.62 359.54 224.31 327.27 153.65"/><polyline class="cls-6" points="310.67 167.01 342.93 237.67 330.67 247.36 298.4 176.7"/><polyline class="cls-6" points="281.68 189.91 313.94 260.57 301.67 270.25 269.41 199.59"/></g><g id="cherry"><path class="cls-2" d="M351.57,244.53c2.41-9.95-3.43-19.58-13-21.49a19.71,19.71,0,0,0-11.22,1.11c-2.58-2.25-6.37-4.88-9.66-5.28-9.77-1.18-19.36,4.6-21.77,14.56a30.21,30.21,0,0,0-.44,13.88c1.16,5.16,9.85,16.75,21.64,19.1,10.68,2.13,22.88-3.84,26.7-7.82A30.86,30.86,0,0,0,351.57,244.53Z"/><path class="cls-7" d="M325.61,227.32s4.89-26.14,14.3-47S356,156.1,356,156.1c.8,4.55,1.28,4.06,1.28,4.06"/><path class="cls-8" d="M322.43,224.22a5.22,5.22,0,0,0,.37,2.38,2.55,2.55,0,0,0,1.81,1.06,5.79,5.79,0,0,0,2.36.24,16.9,16.9,0,0,0,2.48-.52,5.93,5.93,0,0,1-2.33,1.29,4.57,4.57,0,0,1-1.39.18,9,9,0,0,1-1.36-.22,4.87,4.87,0,0,1-1.32-.53,2.32,2.32,0,0,1-1-1.19A3.58,3.58,0,0,1,322.43,224.22Z"/><path class="cls-9" d="M305.23,227a28.33,28.33,0,0,0-3.39,8.1,27.08,27.08,0,0,0-.7,4.31,25.21,25.21,0,0,0,0,4.43,13.16,13.16,0,0,1-.79-4.45,17.84,17.84,0,0,1,2.15-8.78A13.61,13.61,0,0,1,305.23,227Z"/></g></g></svg>