<svg xmlns="http://www.w3.org/2000/svg" viewBox="0 0 500 500"><defs><style>.cls-1{fill:none;}.cls-2{fill:#fff;}</style></defs><title>collins_segment</title><g id="Layer_1" data-name="Layer 1"><rect class="cls-1" x="4" width="500" height="500"/></g><g id="Layer_2" data-name="Layer 2"><path class="cls-2" d="M341,269c19.5-44-23.5-119.5-23.5-170.5C317.5,75.5,333,53,338,44H162c5,9,20.5,31.5,20.5,54.5,0,51-43,126.5-23.5,170.5s61,43,74.25,51.75c0,17,.5,73.5-.5,83.5S223.5,424,214,430s-38.5,8-43.5,11-5,14-5,14,36.49,10.84,84,11h1c47.51-.15,84-11,84-11s0-11-5-14-34-5-43.5-11-17.75-15.75-18.75-25.75-.5-66.5-.5-83.5C280,312,321.5,313,341,269Z"/></g><g id="Layer_4" data-name="Layer 4"><path class="cls-2" d="M175.92,276c17.4,20.84,34,27.94,65,29h18.14c31-1.06,47.61-8.16,65-29Z"/><path class="cls-2" d="M165.23,247c.41,10,2.6,18.76,7.52,25.07,1.06,1.37,2.12,2.67,3.17,3.93H324.08c1.05-1.26,2.11-2.56,3.17-3.93,4.92-6.31,7.11-15.06,7.52-25.07Z"/><path class="cls-2" d="M165.23,247H334.77c.37-8.94-.68-18.88-2.49-29H167.72C165.91,228.12,164.86,238.06,165.23,247Z"/><path class="cls-2" d="M167.72,218H332.28c-1.75-9.75-4.19-19.67-6.74-29H174.46C171.91,198.33,169.47,208.25,167.72,218Z"/><path class="cls-2" d="M174.46,189H325.54c-3-10.84-6.07-20.9-8.38-29H182.84C180.53,168.1,177.43,178.16,174.46,189Z"/><path class="cls-2" d="M185,152c-.58,2.37-1.32,5.05-2.16,8H317.16c-.84-2.94-1.58-5.62-2.16-8-1.7-6.92-3.29-14-4.58-21H189.58C188.29,138,186.7,145.09,185,152Z"/><path class="cls-2" d="M310.42,131a179,179,0,0,1-3.18-29H192.76a179,179,0,0,1-3.18,29Z"/><path class="cls-2" d="M189,73.36c2.89,8.8,3.94,18.5,3.76,28.64H307.24c-.18-10.14.87-19.84,3.76-28.64C310.22,73.08,189.78,73.08,189,73.36Z"/></g></svg>