<svg xmlns="http://www.w3.org/2000/svg" viewBox="0 0 500 500"><defs><style>.cls-1{fill:none;}.cls-2{fill:#fff;}</style></defs><title>highball_segment</title><g id="Layer_1" data-name="Layer 1"><rect class="cls-1" width="500" height="500"/></g><g id="Layer_2" data-name="Layer 2"><path class="cls-2" d="M151,44l24.09,411S208,466,250,466s74.91-11,74.91-11L349,44Z"/></g><g id="Layer_4" data-name="Layer 4"><path class="cls-2" d="M314.56,376H185.44c1.68,21.22,2.74,34.48,2.74,34.48S195.91,418,250,418s61.82-7.52,61.82-7.52S312.88,397.22,314.56,376Z"/><path class="cls-2" d="M314.56,376c.93-11.83,2.05-26.13,3.28-42H182.16c1.23,15.87,2.35,30.17,3.28,42Z"/><path class="cls-2" d="M317.84,334c1-13.11,2.12-27.28,3.24-42H178.92c1.12,14.72,2.22,28.89,3.24,42Z"/><path class="cls-2" d="M321.08,292c1-13.67,2.11-27.8,3.17-42H175.75c1.06,14.2,2.13,28.33,3.17,42Z"/><path class="cls-2" d="M324.25,250c1.05-14.08,2.09-28.21,3.09-42H172.66c1,13.79,2,27.92,3.09,42Z"/><path class="cls-2" d="M327.34,208c1.05-14.54,2.06-28.7,3-42H169.69c.91,13.3,1.92,27.46,3,42Z"/><path class="cls-2" d="M330.31,166c1.06-15.39,2-29.63,2.74-42H167c.75,12.37,1.68,26.61,2.74,42Z"/><path class="cls-2" d="M333.05,124c1.21-19.86,1.95-34.87,1.95-42H165c0,7.13.74,22.14,1.95,42Z"/></g></svg>