<svg xmlns="http://www.w3.org/2000/svg" viewBox="0 0 500 500"><defs><style>.cls-1{fill:none;}.cls-2{fill:#fff;}</style></defs><title>liqeur_segment</title><g id="Layer_1" data-name="Layer 1"><rect class="cls-1" width="500" height="500"/></g><g id="Layer_2" data-name="Layer 2"><path class="cls-2" d="M176.5,44h147s-9,13-14,34-9,58-9,103,.75,88-4,99c-6.25,8.25-30,18-30,40s-1,82.5-1,82.5,2,18.5,16,24.5,44,13,47,19a33,33,0,0,1,3,13s-30,7-78,7-85-11-85-11,0-11,5-14,36-9,42-16,17-13,18-23,0-67,0-84S210,286.5,204,278.5s-4.29-45.5-4.29-96.5-2.77-93.66-7.21-106C186.5,61,181.5,53,176.5,44Z"/></g><g id="Layer_4" data-name="Layer 4"><path class="cls-2" d="M209.75,249c.64,11.86,2.06,19,6.26,23.44,0,0,5.74,11.24,33.74,11.24h.5c28,0,32.5-9.92,32.5-9.92C287.3,269,289,261.42,289.88,249Z"/><path class="cls-2" d="M209.75,249h80.13c.63-8.91.83-20.33,1.33-35H208.78C209.22,228.78,209.27,240.19,209.75,249Z"/><path class="cls-2" d="M207.55,179c.18,7.17.4,14.17.7,20.83.23,5,.39,9.75.53,14.17h82.43c.15-4.28.32-8.82.54-13.67.31-7,.55-14.11.77-21.33Z"/><path class="cls-2" d="M207.55,179h85c.34-11.64.63-23.47,1.06-35H206.77C207.05,155.59,207.25,167.5,207.55,179Z"/><path class="cls-2" d="M206.77,144h86.81c.45-12.2,1.07-24.06,2.09-35H205.41C206.09,119.71,206.47,131.67,206.77,144Z"/><path class="cls-2" d="M205.41,109h90.26c1.25-13.41,3.11-25.44,6-35H200.31C203,81.63,204.46,94.1,205.41,109Z"/></g></svg>