<svg xmlns="http://www.w3.org/2000/svg" viewBox="0 0 500 500"><defs><style>.cls-1{fill:none;}.cls-2{fill:#fff;}</style></defs><title>margherita_segment</title><g id="Layer_1" data-name="Layer 1"><rect class="cls-1" x="1" width="500" height="500"/></g><g id="Layer_2" data-name="Layer 2"><path class="cls-2" d="M397,44H103c2.2,2.83-6,12.9,15,34,7.44,7.48,25.5,11.5,38.5,22.5,8,22,15.5,78.5,73.5,94.5,8.71,29,9,197,8,207s-8,16-14,23-49.5,16-54.5,19-5,11-5,11S202,466,250,466s85.5-11,85.5-11,0-8-5-11S282,432,276,425s-13-13-14-23-.71-178,8-207c58-16,64-74,72-96,13-11,32.56-10.62,40-18.1C403,59.8,394.8,46.83,397,44Z"/></g><g id="Layer_4" data-name="Layer 4"><path class="cls-2" d="M310.31,154.48c.69-.76,1.35-1.59,2-2.48H187.68c.66.89,1.32,1.72,2,2.48C209.65,176.75,225.47,183,250,183S290.35,176.75,310.31,154.48Z"/><path class="cls-2" d="M312.32,152c5.65-7.69,10.12-19.74,13.61-31H174.07c3.49,11.26,8,23.31,13.61,31Z"/><path class="cls-2" d="M157.5,90h185C361.76,83.42,388,72,388,59H112C112,72,138.24,83.42,157.5,90Z"/><path class="cls-2" d="M157.5,90c2.66.91,5.19,1.73,7.5,2.45,1.72,1,4.59,14.11,9.07,28.55H325.93c4.48-14.44,7.35-27.58,9.07-28.55,2.31-.72,4.84-1.54,7.5-2.45Z"/></g></svg>