<svg xmlns="http://www.w3.org/2000/svg" viewBox="0 0 500 500"><defs><style>.cls-1{fill:none;}.cls-2{fill:#fff;}</style></defs><title>martini_segment</title><g id="Layer_1" data-name="Layer 1"><rect class="cls-1" width="500" height="500"/></g><g id="Layer_2" data-name="Layer 2"><path class="cls-2" d="M330,444c-5-3-48.5-12-54.5-19s-13-13-14-23-3.71-167,5-196c19-25,123-153,130-162h-293c7,9,111,137,130,162,8.71,29,6,186,5,196s-8,16-14,23S175,441,170,444s-5,11-5,11,37,11,85,11,85-11,85-11S335,447,330,444Z"/></g><g id="Layer_4" data-name="Layer 4"><path class="cls-2" d="M211.33,156c11.84,14.17,21,24.53,23.67,25.62,8.27,3.42,11.33,4.27,15,4.27s6.73-.85,15-4.27c2.63-1.09,11.83-11.45,23.67-25.62Z"/><path class="cls-2" d="M211.33,156h77.34c7.48-8.94,16-19.39,24.62-30H186.71C195.33,136.61,203.85,147.06,211.33,156Z"/><path class="cls-2" d="M186.71,126H313.29c8.34-10.28,16.76-20.69,24.36-30H162.35C170,105.31,178.37,115.72,186.71,126Z"/><path class="cls-2" d="M137,66.17c4.82,4.93,14.2,16.19,25.35,29.83h175.3C348.8,82.36,358.18,71.1,363,66.17c-.32-.07-8.7-.13-22.05-.17H159.05C145.7,66,137.32,66.1,137,66.17Z"/></g></svg>