<svg xmlns="http://www.w3.org/2000/svg" viewBox="0 0 500 500"><defs><style>.cls-1{fill:none;}.cls-2{fill:#fff;}</style></defs><title>whiskey_segment</title><g id="Layer_1" data-name="Layer 1"><rect class="cls-1" width="500" height="500"/></g><g id="Layer_2" data-name="Layer 2"><path class="cls-2" d="M369.5,195h-239l17,263.94s51.35,7,102,7.06h1c50.65-.09,102-7.06,102-7.06Z"/></g><g id="Layer_4" data-name="Layer 4"><path class="cls-2" d="M156.31,390c1,11.8,1.69,19.38,1.69,19.38s26.44,7.56,92,7.56,92-7.56,92-7.56.67-7.58,1.69-19.38Z"/><path class="cls-2" d="M343.7,389.9c.66-7.56,1.45-16.85,2.31-27H154c.86,10.15,1.65,19.44,2.31,27Z"/><path class="cls-2" d="M346,362.8c.73-8.57,1.5-17.74,2.26-27H151.72c.76,9.26,1.53,18.43,2.26,27Z"/><path class="cls-2" d="M348.29,335.7c.75-9.08,1.49-18.24,2.18-27H149.53c.69,8.76,1.43,17.92,2.18,27Z"/><path class="cls-2" d="M350.48,308.6c.76-9.73,1.46-19,2-27h-205c.57,8,1.27,17.27,2,27Z"/><path class="cls-2" d="M147.48,281.5h205c.9-12.7,1.48-22.44,1.48-26.56H146C146,259.06,146.58,268.8,147.48,281.5Z"/></g></svg>